<mxfile host="app.diagrams.net" agent="Mozilla/5.0 (Windows NT 10.0; Win64; x64) AppleWebKit/537.36 (KHTML, like Gecko) Chrome/133.0.0.0 Safari/537.36 Edg/133.0.0.0" version="26.1.0">
  <diagram name="第 1 页" id="1uPgYDbh0dgHihSLWT6n">
    <mxGraphModel dx="962" dy="-2203" grid="1" gridSize="10" guides="1" tooltips="1" connect="1" arrows="1" fold="1" page="1" pageScale="1" pageWidth="827" pageHeight="1169" math="1" shadow="0">
      <root>
        <mxCell id="0" />
        <mxCell id="1" parent="0" />
        <mxCell id="VGcXp5rNp3n3L62gUcXS-299" value="" style="rounded=1;whiteSpace=wrap;html=1;gradientColor=light-dark(#FFEFD5,#E6F7FF);gradientDirection=south;strokeColor=default;fillColor=default;opacity=20;shadow=0;" vertex="1" parent="1">
          <mxGeometry x="535.6" y="3566.27" width="345.79" height="332.81" as="geometry" />
        </mxCell>
        <mxCell id="VGcXp5rNp3n3L62gUcXS-300" value="" style="rounded=1;whiteSpace=wrap;html=1;dashed=1;strokeColor=light-dark(#042433,#042433);fillColor=none;shadow=0;" vertex="1" parent="1">
          <mxGeometry x="-151.93" y="3040" width="1078.78" height="890" as="geometry" />
        </mxCell>
        <mxCell id="VGcXp5rNp3n3L62gUcXS-301" style="edgeStyle=orthogonalEdgeStyle;rounded=0;orthogonalLoop=1;jettySize=auto;html=1;exitX=1;exitY=0.5;exitDx=0;exitDy=0;entryX=0;entryY=0.5;entryDx=0;entryDy=0;" edge="1" parent="1" source="VGcXp5rNp3n3L62gUcXS-302" target="VGcXp5rNp3n3L62gUcXS-299">
          <mxGeometry relative="1" as="geometry" />
        </mxCell>
        <mxCell id="VGcXp5rNp3n3L62gUcXS-302" value="" style="rounded=1;whiteSpace=wrap;html=1;gradientColor=light-dark(#FFEFD5,#E6F7FF);gradientDirection=south;strokeColor=default;fillColor=default;opacity=20;shadow=0;" vertex="1" parent="1">
          <mxGeometry x="-119.70000000000002" y="3567.83" width="623.85" height="331.25" as="geometry" />
        </mxCell>
        <mxCell id="VGcXp5rNp3n3L62gUcXS-303" value="" style="rounded=1;whiteSpace=wrap;html=1;gradientColor=light-dark(#FFEFD5,#E6F7FF);gradientDirection=south;strokeColor=default;fillColor=default;opacity=20;shadow=0;" vertex="1" parent="1">
          <mxGeometry x="537.5600000000001" y="3128.56" width="345.79" height="349.13" as="geometry" />
        </mxCell>
        <mxCell id="VGcXp5rNp3n3L62gUcXS-304" value="" style="rounded=1;whiteSpace=wrap;html=1;gradientColor=light-dark(#FFEFD5,#E6F7FF);gradientDirection=south;strokeColor=none;fillColor=default;opacity=20;shadow=0;" vertex="1" parent="1">
          <mxGeometry x="1850.1100000000001" y="3636.38" width="588.68" height="264.79" as="geometry" />
        </mxCell>
        <mxCell id="VGcXp5rNp3n3L62gUcXS-305" value="" style="rounded=1;whiteSpace=wrap;html=1;dashed=1;strokeColor=light-dark(#042433,#042433);fillColor=none;shadow=0;" vertex="1" parent="1">
          <mxGeometry x="1008.79" y="3574.75" width="1460" height="355.25" as="geometry" />
        </mxCell>
        <mxCell id="VGcXp5rNp3n3L62gUcXS-306" value="" style="ellipse;whiteSpace=wrap;html=1;aspect=fixed;fillColor=none;strokeColor=#042433;dashed=1;" vertex="1" parent="1">
          <mxGeometry x="2292.0099999999998" y="3420.5" width="32.87" height="32.87" as="geometry" />
        </mxCell>
        <mxCell id="VGcXp5rNp3n3L62gUcXS-307" value="" style="rounded=1;whiteSpace=wrap;html=1;dashed=1;strokeColor=light-dark(#042433,#042433);fillColor=none;shadow=0;" vertex="1" parent="1">
          <mxGeometry x="1008.79" y="3040" width="1454.91" height="490" as="geometry" />
        </mxCell>
        <mxCell id="VGcXp5rNp3n3L62gUcXS-308" value="" style="rounded=1;whiteSpace=wrap;html=1;gradientColor=light-dark(#FFEFD5,#E6F7FF);gradientDirection=south;strokeColor=none;fillColor=default;opacity=20;shadow=0;" vertex="1" parent="1">
          <mxGeometry x="1939.7399999999998" y="3047.75" width="483.06" height="470.5" as="geometry" />
        </mxCell>
        <mxCell id="VGcXp5rNp3n3L62gUcXS-309" value="" style="ellipse;whiteSpace=wrap;html=1;aspect=fixed;fillColor=none;strokeColor=#0F9ED5;" vertex="1" parent="1">
          <mxGeometry x="2225.67" y="3366" width="140" height="140" as="geometry" />
        </mxCell>
        <mxCell id="VGcXp5rNp3n3L62gUcXS-310" value="" style="ellipse;whiteSpace=wrap;html=1;aspect=fixed;fillColor=none;strokeColor=#042433;dashed=1;" vertex="1" parent="1">
          <mxGeometry x="2269.1" y="3369.84" width="40.81" height="40.81" as="geometry" />
        </mxCell>
        <mxCell id="VGcXp5rNp3n3L62gUcXS-311" value="&lt;p style=&quot;language:zh-CN;line-height:150%;margin-top:0pt;margin-bottom:0pt;&lt;br/&gt;margin-left:0in;text-align:left;direction:ltr;unicode-bidi:embed;mso-line-break-override:&lt;br/&gt;none;word-break:normal;punctuation-wrap:hanging&quot;&gt;&lt;br&gt;&lt;/p&gt;" style="text;whiteSpace=wrap;html=1;fontSize=17;fontStyle=1" vertex="1" parent="1">
          <mxGeometry x="1469.3" y="3842.4200000000005" width="35.37" height="18.96" as="geometry" />
        </mxCell>
        <mxCell id="VGcXp5rNp3n3L62gUcXS-312" value="" style="rounded=1;whiteSpace=wrap;html=1;gradientColor=light-dark(#FFEFD5,#E6F7FF);gradientDirection=south;strokeColor=none;fillColor=default;opacity=20;shadow=0;" vertex="1" parent="1">
          <mxGeometry x="1037.79" y="3580" width="760" height="320" as="geometry" />
        </mxCell>
        <mxCell id="VGcXp5rNp3n3L62gUcXS-313" value="" style="rounded=1;whiteSpace=wrap;html=1;gradientColor=light-dark(#FFEFD5,#E6F7FF);gradientDirection=south;strokeColor=none;fillColor=default;opacity=20;shadow=0;" vertex="1" parent="1">
          <mxGeometry x="1040.67" y="3044.75" width="832.13" height="473.5" as="geometry" />
        </mxCell>
        <mxCell id="VGcXp5rNp3n3L62gUcXS-314" value="" style="rounded=1;whiteSpace=wrap;html=1;imageAspect=1;glass=0;arcSize=16;fillColor=none;strokeColor=#156082;" vertex="1" parent="1">
          <mxGeometry x="1618.73" y="3372.75" width="240" height="121" as="geometry" />
        </mxCell>
        <mxCell id="VGcXp5rNp3n3L62gUcXS-315" value="" style="ellipse;whiteSpace=wrap;html=1;aspect=fixed;fillColor=none;strokeColor=#FF9C7D;strokeWidth=4;dashed=1;shadow=0;dashPattern=1 2;" vertex="1" parent="1">
          <mxGeometry x="1667.8" y="3093" width="170" height="170" as="geometry" />
        </mxCell>
        <mxCell id="VGcXp5rNp3n3L62gUcXS-316" value="" style="ellipse;whiteSpace=wrap;html=1;aspect=fixed;fillColor=none;strokeColor=#FF9C7D;strokeWidth=4;dashed=1;dashPattern=12 12;shadow=0;" vertex="1" parent="1">
          <mxGeometry x="1667.8" y="3093" width="170" height="170" as="geometry" />
        </mxCell>
        <mxCell id="VGcXp5rNp3n3L62gUcXS-317" value="" style="ellipse;whiteSpace=wrap;html=1;aspect=fixed;fillColor=none;strokeColor=#FF9C7D;strokeWidth=4;dashed=1;dashPattern=12 12;shadow=0;" vertex="1" parent="1">
          <mxGeometry x="1407.8" y="3094.25" width="170" height="170" as="geometry" />
        </mxCell>
        <mxCell id="VGcXp5rNp3n3L62gUcXS-318" value="" style="rounded=1;whiteSpace=wrap;html=1;gradientColor=light-dark(#FFEFD5,#E6F7FF);gradientDirection=south;strokeColor=default;fillColor=default;opacity=20;shadow=0;" vertex="1" parent="1">
          <mxGeometry x="-119.70000000000002" y="3129.12" width="623.05" height="349.13" as="geometry" />
        </mxCell>
        <mxCell id="VGcXp5rNp3n3L62gUcXS-319" style="rounded=0;orthogonalLoop=1;jettySize=auto;html=1;strokeColor=#156082;targetPerimeterSpacing=0;fontSize=11;strokeWidth=3;endArrow=block;endFill=1;endSize=2;entryX=0.5;entryY=0;entryDx=0;entryDy=0;shadow=0;exitX=0.5;exitY=1;exitDx=0;exitDy=0;" edge="1" parent="1" source="VGcXp5rNp3n3L62gUcXS-329" target="VGcXp5rNp3n3L62gUcXS-330">
          <mxGeometry relative="1" as="geometry">
            <mxPoint x="21.35" y="3304.25" as="sourcePoint" />
            <mxPoint x="32.79999999999999" y="3279.12" as="targetPoint" />
          </mxGeometry>
        </mxCell>
        <mxCell id="VGcXp5rNp3n3L62gUcXS-320" style="rounded=0;orthogonalLoop=1;jettySize=auto;html=1;strokeColor=#156082;targetPerimeterSpacing=0;fontSize=11;strokeWidth=3;endArrow=block;endFill=1;endSize=2;exitX=0.5;exitY=1;exitDx=0;exitDy=0;shadow=0;" edge="1" parent="1" source="VGcXp5rNp3n3L62gUcXS-322" target="VGcXp5rNp3n3L62gUcXS-328">
          <mxGeometry relative="1" as="geometry">
            <mxPoint x="330.3" y="3239.12" as="sourcePoint" />
            <mxPoint x="345.34" y="3284.12" as="targetPoint" />
          </mxGeometry>
        </mxCell>
        <mxCell id="VGcXp5rNp3n3L62gUcXS-321" style="rounded=0;orthogonalLoop=1;jettySize=auto;html=1;exitX=1;exitY=0.5;exitDx=0;exitDy=0;entryX=0;entryY=0.5;entryDx=0;entryDy=0;" edge="1" parent="1" source="VGcXp5rNp3n3L62gUcXS-318" target="VGcXp5rNp3n3L62gUcXS-303">
          <mxGeometry relative="1" as="geometry">
            <mxPoint x="545.16" y="3316.0650000000005" as="targetPoint" />
          </mxGeometry>
        </mxCell>
        <mxCell id="VGcXp5rNp3n3L62gUcXS-322" value="&lt;p style=&quot;caret-color: rgb(0, 0, 0); color: rgb(0, 0, 0); font-style: normal; font-variant-caps: normal; font-weight: 400; letter-spacing: normal; text-indent: 0px; text-transform: none; white-space: normal; word-spacing: 0px; -webkit-text-stroke-width: 0px; text-decoration: none; text-align: left; margin-top: 0pt; margin-bottom: 0pt; margin-left: 0in; direction: ltr; unicode-bidi: embed; word-break: normal;&quot;&gt;&lt;font face=&quot;Helvetica&quot;&gt;&lt;span style=&quot;font-weight: bold;&quot;&gt;Item P&lt;/span&gt;&lt;span style=&quot;font-weight: bold;&quot;&gt;romp&lt;/span&gt;&lt;span style=&quot;font-weight: bold;&quot;&gt;t&lt;/span&gt;&lt;span style=&quot;font-weight: bold;&quot;&gt;：&lt;/span&gt;&lt;/font&gt;&lt;/p&gt;&lt;p style=&quot;caret-color: rgb(0, 0, 0); color: rgb(0, 0, 0); font-family: Helvetica; font-style: normal; font-variant-caps: normal; font-weight: 400; letter-spacing: normal; text-indent: 0px; text-transform: none; white-space: normal; word-spacing: 0px; -webkit-text-stroke-width: 0px; text-decoration: none; text-align: left; margin-top: 0pt; margin-bottom: 0pt; margin-left: 0in; direction: ltr; unicode-bidi: embed; word-break: normal;&quot;&gt;&lt;span style=&quot;font-family: Aptos;&quot;&gt;{&amp;lt;title&amp;gt;, &amp;lt;brand&amp;gt;, &amp;lt;categories&amp;gt;, &amp;lt;&lt;/span&gt;&lt;span style=&quot;font-family: Aptos; color: red;&quot;&gt;summarization&lt;/span&gt;&lt;span style=&quot;font-family: Aptos;&quot;&gt;&amp;gt;}&lt;/span&gt;&lt;/p&gt;&lt;p style=&quot;caret-color: rgb(0, 0, 0); color: rgb(0, 0, 0); font-family: Helvetica; font-style: normal; font-variant-caps: normal; font-weight: 400; letter-spacing: normal; text-indent: 0px; text-transform: none; white-space: normal; word-spacing: 0px; -webkit-text-stroke-width: 0px; text-decoration: none; text-align: left; margin-top: 0pt; margin-bottom: 0pt; margin-left: 0in; direction: ltr; unicode-bidi: embed; word-break: normal;&quot;&gt;&lt;span style=&quot;font-family: Aptos;&quot;&gt;You will assist me in summarizing which types of users might&amp;nbsp;&lt;/span&gt;&lt;span style=&quot;font-family: Aptos; color: red;&quot;&gt;dislike&lt;/span&gt;&lt;span style=&quot;font-family: Aptos;&quot;&gt;&amp;nbsp;&lt;/span&gt;&lt;/p&gt;&lt;p style=&quot;caret-color: rgb(0, 0, 0); color: rgb(0, 0, 0); font-family: Helvetica; font-style: normal; font-variant-caps: normal; font-weight: 400; letter-spacing: normal; text-indent: 0px; text-transform: none; white-space: normal; word-spacing: 0px; -webkit-text-stroke-width: 0px; text-decoration: none; text-align: left; margin-top: 0pt; margin-bottom: 0pt; margin-left: 0in; direction: ltr; unicode-bidi: embed; word-break: normal;&quot;&gt;&lt;span style=&quot;font-family: Aptos;&quot;&gt;a specific toy product...&lt;/span&gt;&lt;/p&gt;" style="text;whiteSpace=wrap;html=1;shadow=0;fontSize=16;" vertex="1" parent="1">
          <mxGeometry x="232.99" y="3156.75" width="262.37" height="153.25" as="geometry" />
        </mxCell>
        <mxCell id="VGcXp5rNp3n3L62gUcXS-323" value="" style="curved=1;endArrow=classic;html=1;rounded=0;fontSize=12;startSize=8;endSize=8;entryX=0;entryY=0.5;entryDx=0;entryDy=0;shadow=0;exitX=1;exitY=0.5;exitDx=0;exitDy=0;" edge="1" parent="1" source="VGcXp5rNp3n3L62gUcXS-330" target="VGcXp5rNp3n3L62gUcXS-322">
          <mxGeometry width="50" height="50" relative="1" as="geometry">
            <mxPoint x="220.29999999999998" y="3289.12" as="sourcePoint" />
            <mxPoint x="220.29999999999987" y="3189.12" as="targetPoint" />
            <Array as="points">
              <mxPoint x="193.35" y="3398.25" />
              <mxPoint x="186" y="3240" />
            </Array>
          </mxGeometry>
        </mxCell>
        <mxCell id="VGcXp5rNp3n3L62gUcXS-324" value="&lt;p style=&quot;caret-color: rgb(0, 0, 0); color: rgb(0, 0, 0); font-style: normal; font-variant-caps: normal; font-weight: 400; letter-spacing: normal; orphans: auto; text-indent: 0px; text-transform: none; white-space: normal; widows: auto; word-spacing: 0px; -webkit-text-stroke-width: 0px; text-decoration: none; margin-top: 0pt; margin-bottom: 0pt; margin-left: 0in; text-align: left; direction: ltr; unicode-bidi: embed; word-break: normal;&quot;&gt;&lt;span style=&quot;font-family: Aptos; color: black; font-weight: bold;&quot;&gt;Item Prompt&lt;/span&gt;&lt;span style=&quot;font-family: 等线; color: black; font-weight: bold;&quot;&gt;：&lt;/span&gt;&lt;/p&gt;&lt;p style=&quot;caret-color: rgb(0, 0, 0); color: rgb(0, 0, 0); font-style: normal; font-variant-caps: normal; font-weight: 400; letter-spacing: normal; orphans: auto; text-indent: 0px; text-transform: none; white-space: normal; widows: auto; word-spacing: 0px; -webkit-text-stroke-width: 0px; text-decoration: none; margin-top: 0pt; margin-bottom: 0pt; margin-left: 0in; text-align: left; direction: ltr; unicode-bidi: embed; word-break: normal;&quot;&gt;&lt;span style=&quot;font-family: Aptos; color: black;&quot;&gt;{&amp;lt;title&amp;gt;, &amp;lt;brand&amp;gt;, &amp;lt;categories&amp;gt;, &amp;lt;&lt;/span&gt;&lt;span style=&quot;font-family: Aptos; color: red;&quot;&gt;pos_summarization&lt;/span&gt;&lt;span style=&quot;font-family: Aptos; color: black;&quot;&gt;&amp;gt; &amp;lt;&lt;/span&gt;&lt;span style=&quot;font-family: Aptos; color: red;&quot;&gt;neg_summarization&lt;/span&gt;&lt;span style=&quot;font-family: Aptos; color: black;&quot;&gt;&amp;gt;}}&lt;/span&gt;&lt;/p&gt;&lt;p style=&quot;caret-color: rgb(0, 0, 0); color: rgb(0, 0, 0); font-style: normal; font-variant-caps: normal; font-weight: 400; letter-spacing: normal; orphans: auto; text-indent: 0px; text-transform: none; white-space: normal; widows: auto; word-spacing: 0px; -webkit-text-stroke-width: 0px; text-decoration: none; margin-top: 0pt; margin-bottom: 0pt; margin-left: 0in; text-align: left; direction: ltr; unicode-bidi: embed; word-break: normal;&quot;&gt;&lt;span style=&quot;font-family: Aptos; color: black;&quot;&gt;You will assist me in deducing the possible&lt;span class=&quot;Apple-converted-space&quot;&gt;&amp;nbsp;&lt;/span&gt;&lt;/span&gt;&lt;span style=&quot;font-family: Aptos; color: red;&quot;&gt;features&lt;/span&gt;&lt;span style=&quot;font-family: Aptos; color: black;&quot;&gt;&lt;span class=&quot;Apple-converted-space&quot;&gt;&amp;nbsp;&lt;/span&gt;of a specific toy product.&lt;/span&gt;&lt;/p&gt;" style="text;whiteSpace=wrap;html=1;shadow=0;fontSize=16;" vertex="1" parent="1">
          <mxGeometry x="556.79" y="3153.56" width="336.56" height="136.44" as="geometry" />
        </mxCell>
        <mxCell id="VGcXp5rNp3n3L62gUcXS-325" value="&lt;p style=&quot;caret-color: rgb(0, 0, 0); color: rgb(0, 0, 0); font-style: normal; font-variant-caps: normal; font-weight: 400; letter-spacing: normal; text-indent: 0px; text-transform: none; white-space: normal; word-spacing: 0px; -webkit-text-stroke-width: 0px; text-decoration: none; margin-top: 0pt; margin-bottom: 0pt; margin-left: 0in; text-align: left; direction: ltr; unicode-bidi: embed; word-break: normal;&quot;&gt;&lt;span style=&quot;font-family: Aptos; color: black; font-weight: bold;&quot;&gt;Item Profile&lt;/span&gt;&lt;span style=&quot;font-family: 等线; color: black; font-weight: bold;&quot;&gt;：&lt;/span&gt;&lt;/p&gt;&lt;p style=&quot;caret-color: rgb(0, 0, 0); color: rgb(0, 0, 0); font-style: normal; font-variant-caps: normal; font-weight: 400; letter-spacing: normal; text-indent: 0px; text-transform: none; white-space: normal; word-spacing: 0px; -webkit-text-stroke-width: 0px; text-decoration: none; margin-top: 0pt; margin-bottom: 0pt; margin-left: 0in; text-align: left; direction: ltr; unicode-bidi: embed; word-break: normal;&quot;&gt;&lt;span style=&quot;font-family: Aptos; color: black;&quot;&gt;{&amp;lt;feature&amp;gt;: &amp;lt;the possible&lt;span class=&quot;Apple-converted-space&quot;&gt;&amp;nbsp;&lt;/span&gt;&lt;/span&gt;&lt;span style=&quot;font-family: Aptos; color: red;&quot;&gt;features&lt;/span&gt;&lt;span style=&quot;font-family: Aptos; color: black;&quot;&gt;&lt;span class=&quot;Apple-converted-space&quot;&gt;&amp;nbsp;&lt;/span&gt;&lt;/span&gt;&lt;/p&gt;&lt;p style=&quot;caret-color: rgb(0, 0, 0); color: rgb(0, 0, 0); font-style: normal; font-variant-caps: normal; font-weight: 400; letter-spacing: normal; text-indent: 0px; text-transform: none; white-space: normal; word-spacing: 0px; -webkit-text-stroke-width: 0px; text-decoration: none; margin-top: 0pt; margin-bottom: 0pt; margin-left: 0in; text-align: left; direction: ltr; unicode-bidi: embed; word-break: normal;&quot;&gt;&lt;span style=&quot;font-family: Aptos; color: black;&quot;&gt;of the product&amp;gt;, …}&lt;/span&gt;&lt;/p&gt;" style="text;whiteSpace=wrap;html=1;shadow=0;fontSize=16;" vertex="1" parent="1">
          <mxGeometry x="602.5699999999999" y="3365.75" width="245" height="97" as="geometry" />
        </mxCell>
        <mxCell id="VGcXp5rNp3n3L62gUcXS-326" style="edgeStyle=orthogonalEdgeStyle;rounded=0;orthogonalLoop=1;jettySize=auto;html=1;strokeColor=#156082;targetPerimeterSpacing=0;fontSize=11;strokeWidth=3;endArrow=block;endFill=1;endSize=2;exitX=0.5;exitY=1;exitDx=0;exitDy=0;shadow=0;entryX=0.5;entryY=0;entryDx=0;entryDy=0;" edge="1" parent="1" source="VGcXp5rNp3n3L62gUcXS-324" target="VGcXp5rNp3n3L62gUcXS-325">
          <mxGeometry relative="1" as="geometry">
            <mxPoint x="850.4699999999993" y="3306.44" as="sourcePoint" />
            <mxPoint x="751.7600000000007" y="3475.44" as="targetPoint" />
          </mxGeometry>
        </mxCell>
        <mxCell id="VGcXp5rNp3n3L62gUcXS-327" value="&lt;p style=&quot;language:zh-CN;margin-top:0pt;margin-bottom:0pt;margin-left:0in;&lt;br/&gt;text-align:left;direction:ltr;unicode-bidi:embed;mso-line-break-override:none;&lt;br/&gt;word-break:normal;punctuation-wrap:hanging&quot;&gt;&lt;span style=&quot;color: black; font-weight: bold;&quot;&gt;Step1: Positive and Negtive Item Profile Generation&lt;/span&gt;&lt;/p&gt;" style="text;whiteSpace=wrap;html=1;shadow=0;fontSize=18;" vertex="1" parent="1">
          <mxGeometry x="-23.40999999999999" y="3091.75" width="463.05" height="25" as="geometry" />
        </mxCell>
        <mxCell id="VGcXp5rNp3n3L62gUcXS-328" value="&lt;p style=&quot;language:zh-CN;margin-top:0pt;margin-bottom:0pt;margin-left:0in;&lt;br/&gt;text-align:left;direction:ltr;unicode-bidi:embed;mso-line-break-override:none;&lt;br/&gt;word-break:normal;punctuation-wrap:hanging&quot;&gt;&lt;span style=&quot;color: black; font-weight: bold;&quot;&gt;Item Profile&lt;/span&gt;&lt;span style=&quot;font-family: 等线; color: black; font-weight: bold;&quot;&gt;：&lt;/span&gt;&lt;/p&gt;&lt;p style=&quot;language:zh-CN;margin-top:0pt;margin-bottom:0pt;margin-left:0in;&lt;br/&gt;text-align:left;direction:ltr;unicode-bidi:embed;mso-line-break-override:none;&lt;br/&gt;word-break:normal;punctuation-wrap:hanging&quot;&gt;&lt;span style=&quot;color: black;&quot;&gt;{&amp;lt;summarization&amp;gt;: &amp;lt;the types of&lt;br&gt;users who might &lt;/span&gt;&lt;span style=&quot;font-family: Aptos; color: red;&quot;&gt;dislike&lt;/span&gt;&lt;span style=&quot;font-family: Aptos; color: black;&quot;&gt;&lt;br&gt;this toy product&amp;gt;, …}&lt;/span&gt;&lt;/p&gt;" style="text;whiteSpace=wrap;html=1;shadow=0;fontSize=16;" vertex="1" parent="1">
          <mxGeometry x="234.18" y="3365.75" width="260" height="80" as="geometry" />
        </mxCell>
        <mxCell id="VGcXp5rNp3n3L62gUcXS-329" value="&lt;p style=&quot;language:zh-CN;margin-top:0pt;margin-bottom:0pt;margin-left:0in;&lt;br/&gt;text-align:left;direction:ltr;unicode-bidi:embed;mso-line-break-override:none;&lt;br/&gt;word-break:normal;punctuation-wrap:hanging&quot;&gt;&lt;span style=&quot;color: black; font-weight: bold;&quot;&gt;Item Prompt&lt;/span&gt;&lt;span style=&quot;font-family: 等线; color: black; font-weight: bold;&quot;&gt;：&lt;/span&gt;&lt;/p&gt;&lt;p style=&quot;language:zh-CN;margin-top:0pt;margin-bottom:0pt;margin-left:0in;&lt;br/&gt;text-align:left;direction:ltr;unicode-bidi:embed;mso-line-break-override:none;&lt;br/&gt;word-break:normal;punctuation-wrap:hanging&quot;&gt;&lt;span style=&quot;color: black;&quot;&gt;{&amp;lt;title&amp;gt;, &amp;lt;brand&amp;gt;,&lt;br&gt;&amp;lt;categories&amp;gt;, &amp;lt;description&amp;gt;}&lt;/span&gt;&lt;/p&gt;&lt;p style=&quot;language:zh-CN;margin-top:0pt;margin-bottom:0pt;margin-left:0in;&lt;br/&gt;text-align:left;direction:ltr;unicode-bidi:embed;mso-line-break-override:none;&lt;br/&gt;word-break:normal;punctuation-wrap:hanging&quot;&gt;&lt;span style=&quot;color: black;&quot;&gt;You will assist me in summarizing which&lt;br&gt;types of users might &lt;/span&gt;&lt;span style=&quot;font-family: Aptos; color: red;&quot;&gt;enjoy&lt;/span&gt;&lt;span style=&quot;font-family: Aptos;&quot;&gt; a&lt;br&gt;specific toy product...&lt;/span&gt;&lt;/p&gt;" style="text;whiteSpace=wrap;html=1;shadow=0;fontSize=16;" vertex="1" parent="1">
          <mxGeometry x="-108.21" y="3156.75" width="260" height="153.25" as="geometry" />
        </mxCell>
        <mxCell id="VGcXp5rNp3n3L62gUcXS-330" value="&lt;p style=&quot;language:zh-CN;margin-top:0pt;margin-bottom:0pt;margin-left:0in;&lt;br/&gt;text-align:left;direction:ltr;unicode-bidi:embed;mso-line-break-override:none;&lt;br/&gt;word-break:normal;punctuation-wrap:hanging&quot;&gt;&lt;span style=&quot;color: black; font-weight: bold;&quot;&gt;Item Profile&lt;/span&gt;&lt;span style=&quot;font-family: 等线; color: black; font-weight: bold;&quot;&gt;：&lt;/span&gt;&lt;/p&gt;&lt;p style=&quot;language:zh-CN;margin-top:0pt;margin-bottom:0pt;margin-left:0in;&lt;br/&gt;text-align:left;direction:ltr;unicode-bidi:embed;mso-line-break-override:none;&lt;br/&gt;word-break:normal;punctuation-wrap:hanging&quot;&gt;&lt;span style=&quot;color: black;&quot;&gt;{&amp;lt;summarization&amp;gt;: &amp;lt;the types of&lt;br&gt;users who might &lt;/span&gt;&lt;span style=&quot;font-family: Aptos; color: red;&quot;&gt;enjoy&lt;/span&gt;&lt;span style=&quot;font-family: Aptos;&quot;&gt; this&lt;br&gt;toy product&amp;gt;, …}&lt;/span&gt;&lt;/p&gt;" style="text;whiteSpace=wrap;html=1;shadow=0;fontSize=16;" vertex="1" parent="1">
          <mxGeometry x="-108.21000000000001" y="3359.94" width="260" height="96.5" as="geometry" />
        </mxCell>
        <mxCell id="VGcXp5rNp3n3L62gUcXS-331" style="rounded=0;orthogonalLoop=1;jettySize=auto;html=1;strokeColor=#156082;targetPerimeterSpacing=0;fontSize=11;strokeWidth=3;endArrow=block;endFill=1;endSize=2;entryX=0.5;entryY=0;entryDx=0;entryDy=0;exitX=0.5;exitY=1;exitDx=0;exitDy=0;shadow=0;" edge="1" parent="1" source="VGcXp5rNp3n3L62gUcXS-335" target="VGcXp5rNp3n3L62gUcXS-336">
          <mxGeometry relative="1" as="geometry">
            <mxPoint x="29.28000000000003" y="3882.4099999999994" as="sourcePoint" />
            <mxPoint x="29.28000000000003" y="3912.4099999999994" as="targetPoint" />
          </mxGeometry>
        </mxCell>
        <mxCell id="VGcXp5rNp3n3L62gUcXS-332" style="rounded=0;orthogonalLoop=1;jettySize=auto;html=1;strokeColor=#156082;targetPerimeterSpacing=0;fontSize=11;strokeWidth=3;endArrow=block;endFill=1;endSize=2;entryX=0.5;entryY=0;entryDx=0;entryDy=0;shadow=0;" edge="1" parent="1" source="VGcXp5rNp3n3L62gUcXS-337" target="VGcXp5rNp3n3L62gUcXS-338">
          <mxGeometry relative="1" as="geometry">
            <mxPoint x="385.54999999999995" y="3830.8399999999992" as="sourcePoint" />
            <mxPoint x="385.54999999999995" y="3855.8399999999992" as="targetPoint" />
          </mxGeometry>
        </mxCell>
        <mxCell id="VGcXp5rNp3n3L62gUcXS-333" value="" style="curved=1;endArrow=classic;html=1;rounded=0;fontSize=12;startSize=8;endSize=8;exitX=1;exitY=0.5;exitDx=0;exitDy=0;entryX=0;entryY=0.5;entryDx=0;entryDy=0;shadow=0;" edge="1" parent="1" source="VGcXp5rNp3n3L62gUcXS-336" target="VGcXp5rNp3n3L62gUcXS-337">
          <mxGeometry width="50" height="50" relative="1" as="geometry">
            <mxPoint x="186.67000000000013" y="3804.4900000000002" as="sourcePoint" />
            <mxPoint x="246.67000000000013" y="3668.89" as="targetPoint" />
            <Array as="points">
              <mxPoint x="204.15" y="3833.83" />
              <mxPoint x="194" y="3670" />
            </Array>
          </mxGeometry>
        </mxCell>
        <mxCell id="VGcXp5rNp3n3L62gUcXS-334" value="&lt;p style=&quot;language:zh-CN;margin-top:0pt;margin-bottom:0pt;margin-left:0in;&lt;br/&gt;text-align:left;direction:ltr;unicode-bidi:embed;mso-line-break-override:none;&lt;br/&gt;word-break:normal;punctuation-wrap:hanging&quot;&gt;&lt;span style=&quot;color: black; font-weight: bold;&quot;&gt;Step3: Positive and Negtive User Profile Generation&lt;/span&gt;&lt;/p&gt;" style="text;whiteSpace=wrap;html=1;shadow=0;fontSize=18;" vertex="1" parent="1">
          <mxGeometry x="-51.68" y="3532.83" width="450.06" height="25" as="geometry" />
        </mxCell>
        <mxCell id="VGcXp5rNp3n3L62gUcXS-335" value="&lt;p style=&quot;language:zh-CN;margin-top:0pt;margin-bottom:0pt;margin-left:0in;&lt;br/&gt;text-align:left;direction:ltr;unicode-bidi:embed;mso-line-break-override:none;&lt;br/&gt;word-break:normal;punctuation-wrap:hanging&quot;&gt;&lt;span style=&quot;color: black; font-weight: bold;&quot;&gt;User Prompt&lt;/span&gt;&lt;span style=&quot;font-family: 等线; color: black; font-weight: bold;&quot;&gt;：&lt;/span&gt;&lt;/p&gt;&lt;p style=&quot;language:zh-CN;margin-top:0pt;margin-bottom:0pt;margin-left:0in;&lt;br/&gt;text-align:left;direction:ltr;unicode-bidi:embed;mso-line-break-override:none;&lt;br/&gt;word-break:normal;punctuation-wrap:hanging&quot;&gt;&lt;span style=&quot;color: black;&quot;&gt;&amp;lt;History Items&amp;gt;: [{&amp;lt;title&amp;gt;,&lt;br&gt;&amp;lt;brand&amp;gt;, &amp;lt;categories&amp;gt;, &amp;lt;&lt;/span&gt;&lt;span style=&quot;color: red;&quot;&gt;features&lt;/span&gt;&lt;span style=&quot;font-family: Aptos; color: black;&quot;&gt;&amp;gt;},…]&lt;/span&gt;&lt;/p&gt;&lt;p style=&quot;language:zh-CN;margin-top:0pt;margin-bottom:0pt;margin-left:0in;&lt;br/&gt;text-align:left;direction:ltr;unicode-bidi:embed;mso-line-break-override:none;&lt;br/&gt;word-break:normal;punctuation-wrap:hanging&quot;&gt;&lt;span style=&quot;color: black;&quot;&gt;You will help identify the types of toys&lt;br&gt;a user is likely to &lt;/span&gt;&lt;span style=&quot;font-family: Aptos; color: red;&quot;&gt;prefer&lt;/span&gt;&lt;span style=&quot;font-family: Aptos; color: black;&quot;&gt;.&lt;/span&gt;&lt;/p&gt;" style="text;whiteSpace=wrap;html=1;shadow=0;fontSize=16;" vertex="1" parent="1">
          <mxGeometry x="-113.41" y="3599.9900000000002" width="268.05" height="141.42" as="geometry" />
        </mxCell>
        <mxCell id="VGcXp5rNp3n3L62gUcXS-336" value="&lt;p style=&quot;language:zh-CN;margin-top:0pt;margin-bottom:0pt;margin-left:0in;&lt;br/&gt;text-align:left;direction:ltr;unicode-bidi:embed;mso-line-break-override:none;&lt;br/&gt;word-break:normal;punctuation-wrap:hanging&quot;&gt;&lt;span style=&quot;color: black; font-weight: bold;&quot;&gt;User Profile&lt;/span&gt;&lt;span style=&quot;font-family: 等线; color: black; font-weight: bold;&quot;&gt;：&lt;/span&gt;&lt;/p&gt;&lt;p style=&quot;language:zh-CN;margin-top:0pt;margin-bottom:0pt;margin-left:0in;&lt;br/&gt;text-align:left;direction:ltr;unicode-bidi:embed;mso-line-break-override:none;&lt;br/&gt;word-break:normal;punctuation-wrap:hanging&quot;&gt;&lt;span style=&quot;color: black;&quot;&gt;{&amp;lt;summarization&amp;gt;: &amp;lt;the types of&lt;br&gt;toys the user is likely to &lt;/span&gt;&lt;span style=&quot;color: red;&quot;&gt;enjoy&lt;/span&gt;&lt;span style=&quot;font-family: Aptos;&quot;&gt;&amp;gt;,…}&lt;/span&gt;&lt;/p&gt;" style="text;whiteSpace=wrap;html=1;shadow=0;fontSize=16;" vertex="1" parent="1">
          <mxGeometry x="-108.68" y="3811.42" width="258.68" height="57.81" as="geometry" />
        </mxCell>
        <mxCell id="VGcXp5rNp3n3L62gUcXS-337" value="&lt;p style=&quot;language:zh-CN;margin-top:0pt;margin-bottom:0pt;margin-left:0in;&lt;br/&gt;text-align:left;direction:ltr;unicode-bidi:embed;mso-line-break-override:none;&lt;br/&gt;word-break:normal;punctuation-wrap:hanging&quot;&gt;&lt;span style=&quot;color: black; font-weight: bold;&quot;&gt;User Prompt&lt;/span&gt;&lt;span style=&quot;font-family: 等线; color: black; font-weight: bold;&quot;&gt;：&lt;/span&gt;&lt;/p&gt;&lt;p style=&quot;language:zh-CN;margin-top:0pt;margin-bottom:0pt;margin-left:0in;&lt;br/&gt;text-align:left;direction:ltr;unicode-bidi:embed;mso-line-break-override:none;&lt;br/&gt;word-break:normal;punctuation-wrap:hanging&quot;&gt;&lt;span style=&quot;color: black;&quot;&gt;&amp;lt;History Items&amp;gt;: [{&amp;lt;title&amp;gt;,&lt;br&gt;&amp;lt;brand&amp;gt;, &amp;lt;categories&amp;gt;, &amp;lt;&lt;/span&gt;&lt;span style=&quot;color: red;&quot;&gt;features&lt;/span&gt;&lt;span style=&quot;font-family: Aptos; color: black;&quot;&gt;&amp;gt;},…],&lt;/span&gt;&lt;/p&gt;&lt;p style=&quot;language:zh-CN;margin-top:0pt;margin-bottom:0pt;margin-left:0in;&lt;br/&gt;text-align:left;direction:ltr;unicode-bidi:embed;mso-line-break-override:none;&lt;br/&gt;word-break:normal;punctuation-wrap:hanging&quot;&gt;&lt;span style=&quot;color: black;&quot;&gt;&amp;lt;&lt;/span&gt;&lt;span style=&quot;color: red;&quot;&gt;User Preference&lt;/span&gt;&lt;span style=&quot;font-family: Aptos;&quot;&gt;&amp;gt;&lt;/span&gt;&lt;/p&gt;&lt;p style=&quot;language:zh-CN;margin-top:0pt;margin-bottom:0pt;margin-left:0in;&lt;br/&gt;text-align:left;direction:ltr;unicode-bidi:embed;mso-line-break-override:none;&lt;br/&gt;word-break:normal;punctuation-wrap:hanging&quot;&gt;&lt;span style=&quot;color: black;&quot;&gt;You will help identify the types of toys&lt;br&gt;a user is likely to &lt;/span&gt;&lt;span style=&quot;font-family: Aptos; color: red;&quot;&gt;dislike&lt;/span&gt;&lt;span style=&quot;font-family: Aptos; color: black;&quot;&gt;.&lt;/span&gt;&lt;/p&gt;" style="text;whiteSpace=wrap;html=1;shadow=0;fontSize=16;" vertex="1" parent="1">
          <mxGeometry x="232.18" y="3593.58" width="270" height="153.75" as="geometry" />
        </mxCell>
        <mxCell id="VGcXp5rNp3n3L62gUcXS-338" value="&lt;p style=&quot;language:zh-CN;margin-top:0pt;margin-bottom:0pt;margin-left:0in;&lt;br/&gt;text-align:left;direction:ltr;unicode-bidi:embed;mso-line-break-override:none;&lt;br/&gt;word-break:normal;punctuation-wrap:hanging&quot;&gt;&lt;span style=&quot;color: black; font-weight: bold;&quot;&gt;User Profile&lt;/span&gt;&lt;span style=&quot;font-family: 等线; color: black; font-weight: bold;&quot;&gt;：&lt;/span&gt;&lt;/p&gt;&lt;p style=&quot;language:zh-CN;margin-top:0pt;margin-bottom:0pt;margin-left:0in;&lt;br/&gt;text-align:left;direction:ltr;unicode-bidi:embed;mso-line-break-override:none;&lt;br/&gt;word-break:normal;punctuation-wrap:hanging&quot;&gt;&lt;span style=&quot;color: black;&quot;&gt;{&amp;lt;summarization&amp;gt;: &amp;lt;the types of&lt;br&gt;toys the user is likely to &lt;/span&gt;&lt;span style=&quot;color: red;&quot;&gt;dislike&lt;/span&gt;&lt;span style=&quot;font-family: Aptos; color: black;&quot;&gt;&amp;gt;,…}&lt;/span&gt;&lt;/p&gt;" style="text;whiteSpace=wrap;html=1;shadow=0;fontSize=16;" vertex="1" parent="1">
          <mxGeometry x="232.99" y="3796.15" width="267.01" height="80" as="geometry" />
        </mxCell>
        <mxCell id="VGcXp5rNp3n3L62gUcXS-339" value="&lt;p style=&quot;language:zh-CN;margin-top:0pt;margin-bottom:0pt;margin-left:0in;&lt;br/&gt;text-align:left;direction:ltr;unicode-bidi:embed;mso-line-break-override:none;&lt;br/&gt;word-break:normal;punctuation-wrap:hanging&quot;&gt;&lt;span style=&quot;color: black; font-weight: bold;&quot;&gt;User Prompt&lt;/span&gt;&lt;span style=&quot;font-family: 等线; color: black; font-weight: bold;&quot;&gt;：&lt;/span&gt;&lt;/p&gt;&lt;p style=&quot;language:zh-CN;margin-top:0pt;margin-bottom:0pt;margin-left:0in;&lt;br/&gt;text-align:left;direction:ltr;unicode-bidi:embed;mso-line-break-override:none;&lt;br/&gt;word-break:normal;punctuation-wrap:hanging&quot;&gt;&lt;span style=&quot;color: black;&quot;&gt;&amp;lt;History Items&amp;gt;: [{&amp;lt;title&amp;gt;,&lt;br&gt;&amp;lt;brand&amp;gt;, &amp;lt;categories&amp;gt;, &amp;lt;&lt;/span&gt;&lt;span style=&quot;color: red;&quot;&gt;features&lt;/span&gt;&lt;span style=&quot;font-family: Aptos; color: black;&quot;&gt;&amp;gt;},…],&lt;/span&gt;&lt;/p&gt;&lt;p style=&quot;language:zh-CN;margin-top:0pt;margin-bottom:0pt;margin-left:0in;&lt;br/&gt;text-align:left;direction:ltr;unicode-bidi:embed;mso-line-break-override:none;&lt;br/&gt;word-break:normal;punctuation-wrap:hanging&quot;&gt;&lt;span style=&quot;color: black;&quot;&gt;&amp;lt;&lt;/span&gt;&lt;span style=&quot;color: red;&quot;&gt;User Preference&lt;/span&gt;&lt;span style=&quot;font-family: Aptos;&quot;&gt;&amp;gt;&lt;/span&gt;&lt;/p&gt;&lt;p style=&quot;language:zh-CN;margin-top:0pt;margin-bottom:0pt;margin-left:0in;&lt;br/&gt;text-align:left;direction:ltr;unicode-bidi:embed;mso-line-break-override:none;&lt;br/&gt;word-break:normal;punctuation-wrap:hanging&quot;&gt;&lt;span style=&quot;color: black;&quot;&gt;&amp;lt;&lt;/span&gt;&lt;span style=&quot;color: red;&quot;&gt;User Dislikes&lt;/span&gt;&lt;span style=&quot;font-family: Aptos;&quot;&gt;&amp;gt;&lt;/span&gt;&lt;/p&gt;&lt;p style=&quot;language:zh-CN;margin-top:0pt;margin-bottom:0pt;margin-left:0in;&lt;br/&gt;text-align:left;direction:ltr;unicode-bidi:embed;mso-line-break-override:none;&lt;br/&gt;word-break:normal;punctuation-wrap:hanging&quot;&gt;&lt;span style=&quot;color: black;&quot;&gt;You will help identify the core&amp;nbsp;&lt;/span&gt;&lt;/p&gt;&lt;p style=&quot;language:zh-CN;margin-top:0pt;margin-bottom:0pt;margin-left:0in;&lt;br/&gt;text-align:left;direction:ltr;unicode-bidi:embed;mso-line-break-override:none;&lt;br/&gt;word-break:normal;punctuation-wrap:hanging&quot;&gt;&lt;span style=&quot;font-family: Aptos;&quot;&gt;&lt;font style=&quot;color: rgb(255, 0, 0);&quot;&gt;interests&lt;/font&gt;&lt;/span&gt;&lt;span style=&quot;font-family: Aptos;&quot;&gt; and&amp;nbsp;&lt;/span&gt;&lt;span style=&quot;font-family: Aptos;&quot;&gt;&lt;font style=&quot;color: rgb(255, 0, 0);&quot;&gt;preferences&lt;/font&gt; &lt;/span&gt;&lt;span style=&quot;font-family: Aptos;&quot;&gt;of the user&lt;/span&gt;&lt;/p&gt;" style="text;whiteSpace=wrap;html=1;shadow=0;fontSize=16;" vertex="1" parent="1">
          <mxGeometry x="558.09" y="3597.68" width="287.5" height="150" as="geometry" />
        </mxCell>
        <mxCell id="VGcXp5rNp3n3L62gUcXS-340" value="&lt;p style=&quot;language:zh-CN;margin-top:0pt;margin-bottom:0pt;margin-left:0in;&lt;br/&gt;text-align:left;direction:ltr;unicode-bidi:embed;mso-line-break-override:none;&lt;br/&gt;word-break:normal;punctuation-wrap:hanging&quot;&gt;&lt;span style=&quot;color: black; font-weight: bold;&quot;&gt;User Profile&lt;/span&gt;&lt;span style=&quot;font-family: 等线; color: black; font-weight: bold;&quot;&gt;：&lt;/span&gt;&lt;/p&gt;&lt;p style=&quot;language:zh-CN;margin-top:0pt;margin-bottom:0pt;margin-left:0in;&lt;br/&gt;text-align:left;direction:ltr;unicode-bidi:embed;mso-line-break-override:none;&lt;br/&gt;word-break:normal;punctuation-wrap:hanging&quot;&gt;&lt;span style=&quot;color: black;&quot;&gt;{&amp;lt;feature&amp;gt;: &amp;lt;the user&#39;s core&amp;nbsp;&lt;/span&gt;&lt;/p&gt;&lt;p style=&quot;language:zh-CN;margin-top:0pt;margin-bottom:0pt;margin-left:0in;&lt;br/&gt;text-align:left;direction:ltr;unicode-bidi:embed;mso-line-break-override:none;&lt;br/&gt;word-break:normal;punctuation-wrap:hanging&quot;&gt;&lt;span style=&quot;font-family: Aptos;&quot;&gt;&lt;font style=&quot;color: rgb(255, 0, 0);&quot;&gt;interests&lt;/font&gt;&amp;nbsp;&lt;/span&gt;&lt;span style=&quot;font-family: Aptos;&quot;&gt;and&amp;nbsp;&lt;/span&gt;&lt;span style=&quot;font-family: Aptos;&quot;&gt;&lt;font style=&quot;color: rgb(255, 0, 0);&quot;&gt;preferences&lt;/font&gt;&lt;/span&gt;&lt;span style=&quot;font-family: Aptos;&quot;&gt;&amp;gt;,…}&lt;/span&gt;&lt;/p&gt;" style="text;whiteSpace=wrap;html=1;shadow=0;fontSize=16;" vertex="1" parent="1">
          <mxGeometry x="587.08" y="3809.7" width="227.5" height="65" as="geometry" />
        </mxCell>
        <mxCell id="VGcXp5rNp3n3L62gUcXS-341" value="" style="html=1;strokeWidth=2;shape=manualInput;whiteSpace=wrap;rounded=1;size=13;arcSize=0;fillColor=#A9A9A9;strokeColor=none;opacity=50;shadow=0;" vertex="1" parent="1">
          <mxGeometry x="-73.06" y="3034.75" width="440" height="40" as="geometry" />
        </mxCell>
        <mxCell id="VGcXp5rNp3n3L62gUcXS-342" value="&lt;p style=&quot;language:zh-CN;margin-top:0pt;margin-bottom:0pt;margin-left:0in;&lt;br/&gt;text-align:left;direction:ltr;unicode-bidi:embed;mso-line-break-override:none;&lt;br/&gt;word-break:normal;punctuation-wrap:hanging&quot;&gt;&lt;span style=&quot;font-size: 12pt; color: black; font-weight: bold;&quot;&gt;&lt;span style=&quot;mso-spacerun:yes&quot;&gt;&amp;nbsp;&lt;/span&gt;User-Item Dual Perspective Chain-of-Thought Analysis&lt;/span&gt;&lt;/p&gt;" style="text;whiteSpace=wrap;html=1;shadow=0;" vertex="1" parent="1">
          <mxGeometry x="-73.06" y="3044.75" width="430" height="30" as="geometry" />
        </mxCell>
        <mxCell id="VGcXp5rNp3n3L62gUcXS-343" value="&lt;p style=&quot;language:zh-CN;margin-top:0pt;margin-bottom:0pt;margin-left:0in;&lt;br/&gt;text-align:left;direction:ltr;unicode-bidi:embed;mso-line-break-override:none;&lt;br/&gt;word-break:normal;punctuation-wrap:hanging&quot;&gt;&lt;span&gt;&lt;svg xmlns=&quot;http://www.w3.org/2000/svg&quot; width=&quot;5.268ex&quot; height=&quot;2.262ex&quot; role=&quot;img&quot; viewBox=&quot;0 -750 2328.7 1000&quot; xmlns:xlink=&quot;http://www.w3.org/1999/xlink&quot; style=&quot;vertical-align: -0.566ex;&quot;&gt;&lt;defs&gt;&lt;path id=&quot;MJX-4-TEX-I-1D453&quot; d=&quot;M118 -162Q120 -162 124 -164T135 -167T147 -168Q160 -168 171 -155T187 -126Q197 -99 221 27T267 267T289 382V385H242Q195 385 192 387Q188 390 188 397L195 425Q197 430 203 430T250 431Q298 431 298 432Q298 434 307 482T319 540Q356 705 465 705Q502 703 526 683T550 630Q550 594 529 578T487 561Q443 561 443 603Q443 622 454 636T478 657L487 662Q471 668 457 668Q445 668 434 658T419 630Q412 601 403 552T387 469T380 433Q380 431 435 431Q480 431 487 430T498 424Q499 420 496 407T491 391Q489 386 482 386T428 385H372L349 263Q301 15 282 -47Q255 -132 212 -173Q175 -205 139 -205Q107 -205 81 -186T55 -132Q55 -95 76 -78T118 -61Q162 -61 162 -103Q162 -122 151 -136T127 -157L118 -162Z&quot;&gt;&lt;/path&gt;&lt;path id=&quot;MJX-4-TEX-N-28&quot; d=&quot;M94 250Q94 319 104 381T127 488T164 576T202 643T244 695T277 729T302 750H315H319Q333 750 333 741Q333 738 316 720T275 667T226 581T184 443T167 250T184 58T225 -81T274 -167T316 -220T333 -241Q333 -250 318 -250H315H302L274 -226Q180 -141 137 -14T94 250Z&quot;&gt;&lt;/path&gt;&lt;path id=&quot;MJX-4-TEX-N-22C5&quot; d=&quot;M78 250Q78 274 95 292T138 310Q162 310 180 294T199 251Q199 226 182 208T139 190T96 207T78 250Z&quot;&gt;&lt;/path&gt;&lt;path id=&quot;MJX-4-TEX-N-2C&quot; d=&quot;M78 35T78 60T94 103T137 121Q165 121 187 96T210 8Q210 -27 201 -60T180 -117T154 -158T130 -185T117 -194Q113 -194 104 -185T95 -172Q95 -168 106 -156T131 -126T157 -76T173 -3V9L172 8Q170 7 167 6T161 3T152 1T140 0Q113 0 96 17Z&quot;&gt;&lt;/path&gt;&lt;path id=&quot;MJX-4-TEX-N-29&quot; d=&quot;M60 749L64 750Q69 750 74 750H86L114 726Q208 641 251 514T294 250Q294 182 284 119T261 12T224 -76T186 -143T145 -194T113 -227T90 -246Q87 -249 86 -250H74Q66 -250 63 -250T58 -247T55 -238Q56 -237 66 -225Q221 -64 221 250T66 725Q56 737 55 738Q55 746 60 749Z&quot;&gt;&lt;/path&gt;&lt;/defs&gt;&lt;g stroke=&quot;currentColor&quot; fill=&quot;currentColor&quot; stroke-width=&quot;0&quot; transform=&quot;scale(1,-1)&quot;&gt;&lt;g data-mml-node=&quot;math&quot;&gt;&lt;g data-mml-node=&quot;mi&quot;&gt;&lt;use data-c=&quot;1D453&quot; xlink:href=&quot;#MJX-4-TEX-I-1D453&quot;&gt;&lt;/use&gt;&lt;/g&gt;&lt;g data-mml-node=&quot;mo&quot; transform=&quot;translate(550,0)&quot;&gt;&lt;use data-c=&quot;28&quot; xlink:href=&quot;#MJX-4-TEX-N-28&quot;&gt;&lt;/use&gt;&lt;/g&gt;&lt;g data-mml-node=&quot;mo&quot; transform=&quot;translate(939,0)&quot;&gt;&lt;use data-c=&quot;22C5&quot; xlink:href=&quot;#MJX-4-TEX-N-22C5&quot;&gt;&lt;/use&gt;&lt;/g&gt;&lt;g data-mml-node=&quot;mo&quot; transform=&quot;translate(1217,0)&quot;&gt;&lt;use data-c=&quot;2C&quot; xlink:href=&quot;#MJX-4-TEX-N-2C&quot;&gt;&lt;/use&gt;&lt;/g&gt;&lt;g data-mml-node=&quot;mo&quot; transform=&quot;translate(1661.7,0)&quot;&gt;&lt;use data-c=&quot;22C5&quot; xlink:href=&quot;#MJX-4-TEX-N-22C5&quot;&gt;&lt;/use&gt;&lt;/g&gt;&lt;g data-mml-node=&quot;mo&quot; transform=&quot;translate(1939.7,0)&quot;&gt;&lt;use data-c=&quot;29&quot; xlink:href=&quot;#MJX-4-TEX-N-29&quot;&gt;&lt;/use&gt;&lt;/g&gt;&lt;/g&gt;&lt;/g&gt;&lt;/svg&gt;&lt;/span&gt;&lt;/p&gt;" style="text;whiteSpace=wrap;html=1;fontSize=15;shadow=0;" vertex="1" parent="1">
          <mxGeometry x="1182.8" y="3375.25" width="50" height="30" as="geometry" />
        </mxCell>
        <mxCell id="VGcXp5rNp3n3L62gUcXS-344" value="" style="html=1;shadow=0;dashed=0;align=center;verticalAlign=middle;shape=mxgraph.arrows2.arrow;dy=0.48;dx=22.56;notch=0;fillColor=#747474;strokeColor=none;opacity=60;" vertex="1" parent="1">
          <mxGeometry x="1184.06" y="3406" width="48.74" height="20" as="geometry" />
        </mxCell>
        <mxCell id="VGcXp5rNp3n3L62gUcXS-345" value="" style="shape=table;startSize=0;container=1;collapsible=0;childLayout=tableLayout;fillColor=light-dark(#f9d8c6, #ededed);shadow=0;" vertex="1" parent="1">
          <mxGeometry x="1242.8" y="3358.25" width="110" height="110" as="geometry" />
        </mxCell>
        <mxCell id="VGcXp5rNp3n3L62gUcXS-346" value="" style="shape=tableRow;horizontal=0;startSize=0;swimlaneHead=0;swimlaneBody=0;strokeColor=inherit;top=0;left=0;bottom=0;right=0;collapsible=0;dropTarget=0;fillColor=none;points=[[0,0.5],[1,0.5]];portConstraint=eastwest;shadow=0;" vertex="1" parent="VGcXp5rNp3n3L62gUcXS-345">
          <mxGeometry width="110" height="22" as="geometry" />
        </mxCell>
        <mxCell id="VGcXp5rNp3n3L62gUcXS-347" value="" style="shape=partialRectangle;html=1;whiteSpace=wrap;connectable=0;strokeColor=inherit;overflow=hidden;fillColor=none;top=0;left=0;bottom=0;right=0;pointerEvents=1;shadow=0;" vertex="1" parent="VGcXp5rNp3n3L62gUcXS-346">
          <mxGeometry width="23" height="22" as="geometry">
            <mxRectangle width="23" height="22" as="alternateBounds" />
          </mxGeometry>
        </mxCell>
        <mxCell id="VGcXp5rNp3n3L62gUcXS-348" value="" style="shape=partialRectangle;html=1;whiteSpace=wrap;connectable=0;strokeColor=inherit;overflow=hidden;fillColor=none;top=0;left=0;bottom=0;right=0;pointerEvents=1;shadow=0;" vertex="1" parent="VGcXp5rNp3n3L62gUcXS-346">
          <mxGeometry x="23" width="22" height="22" as="geometry">
            <mxRectangle width="22" height="22" as="alternateBounds" />
          </mxGeometry>
        </mxCell>
        <mxCell id="VGcXp5rNp3n3L62gUcXS-349" value="" style="shape=partialRectangle;html=1;whiteSpace=wrap;connectable=0;strokeColor=inherit;overflow=hidden;fillColor=light-dark(#f7cbb3, #ededed);top=1;left=1;bottom=1;right=1;pointerEvents=1;shadow=0;" vertex="1" parent="VGcXp5rNp3n3L62gUcXS-346">
          <mxGeometry x="45" width="20" height="22" as="geometry">
            <mxRectangle width="20" height="22" as="alternateBounds" />
          </mxGeometry>
        </mxCell>
        <mxCell id="VGcXp5rNp3n3L62gUcXS-350" value="" style="shape=partialRectangle;html=1;whiteSpace=wrap;connectable=0;strokeColor=inherit;overflow=hidden;fillColor=none;top=0;left=0;bottom=0;right=0;pointerEvents=1;shadow=0;" vertex="1" parent="VGcXp5rNp3n3L62gUcXS-346">
          <mxGeometry x="65" width="22" height="22" as="geometry">
            <mxRectangle width="22" height="22" as="alternateBounds" />
          </mxGeometry>
        </mxCell>
        <mxCell id="VGcXp5rNp3n3L62gUcXS-351" value="" style="shape=partialRectangle;html=1;whiteSpace=wrap;connectable=0;strokeColor=inherit;overflow=hidden;fillColor=none;top=0;left=0;bottom=0;right=0;pointerEvents=1;shadow=0;" vertex="1" parent="VGcXp5rNp3n3L62gUcXS-346">
          <mxGeometry x="87" width="23" height="22" as="geometry">
            <mxRectangle width="23" height="22" as="alternateBounds" />
          </mxGeometry>
        </mxCell>
        <mxCell id="VGcXp5rNp3n3L62gUcXS-352" value="" style="shape=tableRow;horizontal=0;startSize=0;swimlaneHead=0;swimlaneBody=0;strokeColor=inherit;top=0;left=0;bottom=0;right=0;collapsible=0;dropTarget=0;fillColor=none;points=[[0,0.5],[1,0.5]];portConstraint=eastwest;shadow=0;" vertex="1" parent="VGcXp5rNp3n3L62gUcXS-345">
          <mxGeometry y="22" width="110" height="22" as="geometry" />
        </mxCell>
        <mxCell id="VGcXp5rNp3n3L62gUcXS-353" value="" style="shape=partialRectangle;html=1;whiteSpace=wrap;connectable=0;strokeColor=inherit;overflow=hidden;fillColor=none;top=0;left=0;bottom=0;right=0;pointerEvents=1;shadow=0;" vertex="1" parent="VGcXp5rNp3n3L62gUcXS-352">
          <mxGeometry width="23" height="22" as="geometry">
            <mxRectangle width="23" height="22" as="alternateBounds" />
          </mxGeometry>
        </mxCell>
        <mxCell id="VGcXp5rNp3n3L62gUcXS-354" value="" style="shape=partialRectangle;html=1;whiteSpace=wrap;connectable=0;strokeColor=inherit;overflow=hidden;fillColor=light-dark(#f2aa84, #ededed);top=1;left=1;bottom=1;right=1;pointerEvents=1;shadow=0;" vertex="1" parent="VGcXp5rNp3n3L62gUcXS-352">
          <mxGeometry x="23" width="22" height="22" as="geometry">
            <mxRectangle width="22" height="22" as="alternateBounds" />
          </mxGeometry>
        </mxCell>
        <mxCell id="VGcXp5rNp3n3L62gUcXS-355" value="" style="shape=partialRectangle;html=1;whiteSpace=wrap;connectable=0;strokeColor=inherit;overflow=hidden;fillColor=none;top=0;left=0;bottom=0;right=0;pointerEvents=1;shadow=0;" vertex="1" parent="VGcXp5rNp3n3L62gUcXS-352">
          <mxGeometry x="45" width="20" height="22" as="geometry">
            <mxRectangle width="20" height="22" as="alternateBounds" />
          </mxGeometry>
        </mxCell>
        <mxCell id="VGcXp5rNp3n3L62gUcXS-356" value="" style="shape=partialRectangle;html=1;whiteSpace=wrap;connectable=0;strokeColor=inherit;overflow=hidden;fillColor=light-dark(#f6c6ad, #ededed);top=1;left=1;bottom=1;right=1;pointerEvents=1;shadow=0;" vertex="1" parent="VGcXp5rNp3n3L62gUcXS-352">
          <mxGeometry x="65" width="22" height="22" as="geometry">
            <mxRectangle width="22" height="22" as="alternateBounds" />
          </mxGeometry>
        </mxCell>
        <mxCell id="VGcXp5rNp3n3L62gUcXS-357" value="" style="shape=partialRectangle;html=1;whiteSpace=wrap;connectable=0;strokeColor=inherit;overflow=hidden;fillColor=none;top=0;left=0;bottom=0;right=0;pointerEvents=1;shadow=0;" vertex="1" parent="VGcXp5rNp3n3L62gUcXS-352">
          <mxGeometry x="87" width="23" height="22" as="geometry">
            <mxRectangle width="23" height="22" as="alternateBounds" />
          </mxGeometry>
        </mxCell>
        <mxCell id="VGcXp5rNp3n3L62gUcXS-358" value="" style="shape=tableRow;horizontal=0;startSize=0;swimlaneHead=0;swimlaneBody=0;strokeColor=inherit;top=0;left=0;bottom=0;right=0;collapsible=0;dropTarget=0;fillColor=none;points=[[0,0.5],[1,0.5]];portConstraint=eastwest;shadow=0;" vertex="1" parent="VGcXp5rNp3n3L62gUcXS-345">
          <mxGeometry y="44" width="110" height="22" as="geometry" />
        </mxCell>
        <mxCell id="VGcXp5rNp3n3L62gUcXS-359" value="" style="shape=partialRectangle;html=1;whiteSpace=wrap;connectable=0;strokeColor=inherit;overflow=hidden;fillColor=none;top=0;left=0;bottom=0;right=0;pointerEvents=1;shadow=0;" vertex="1" parent="VGcXp5rNp3n3L62gUcXS-358">
          <mxGeometry width="23" height="22" as="geometry">
            <mxRectangle width="23" height="22" as="alternateBounds" />
          </mxGeometry>
        </mxCell>
        <mxCell id="VGcXp5rNp3n3L62gUcXS-360" value="" style="shape=partialRectangle;html=1;whiteSpace=wrap;connectable=0;strokeColor=inherit;overflow=hidden;fillColor=none;top=0;left=0;bottom=0;right=0;pointerEvents=1;shadow=0;" vertex="1" parent="VGcXp5rNp3n3L62gUcXS-358">
          <mxGeometry x="23" width="22" height="22" as="geometry">
            <mxRectangle width="22" height="22" as="alternateBounds" />
          </mxGeometry>
        </mxCell>
        <mxCell id="VGcXp5rNp3n3L62gUcXS-361" value="" style="shape=partialRectangle;html=1;whiteSpace=wrap;connectable=0;strokeColor=inherit;overflow=hidden;fillColor=none;top=0;left=0;bottom=0;right=0;pointerEvents=1;shadow=0;" vertex="1" parent="VGcXp5rNp3n3L62gUcXS-358">
          <mxGeometry x="45" width="20" height="22" as="geometry">
            <mxRectangle width="20" height="22" as="alternateBounds" />
          </mxGeometry>
        </mxCell>
        <mxCell id="VGcXp5rNp3n3L62gUcXS-362" value="" style="shape=partialRectangle;html=1;whiteSpace=wrap;connectable=0;strokeColor=inherit;overflow=hidden;fillColor=light-dark(#c04f15, #ededed);top=1;left=1;bottom=1;right=1;pointerEvents=1;shadow=0;" vertex="1" parent="VGcXp5rNp3n3L62gUcXS-358">
          <mxGeometry x="65" width="22" height="22" as="geometry">
            <mxRectangle width="22" height="22" as="alternateBounds" />
          </mxGeometry>
        </mxCell>
        <mxCell id="VGcXp5rNp3n3L62gUcXS-363" value="" style="shape=partialRectangle;html=1;whiteSpace=wrap;connectable=0;strokeColor=inherit;overflow=hidden;fillColor=none;top=0;left=0;bottom=0;right=0;pointerEvents=1;shadow=0;" vertex="1" parent="VGcXp5rNp3n3L62gUcXS-358">
          <mxGeometry x="87" width="23" height="22" as="geometry">
            <mxRectangle width="23" height="22" as="alternateBounds" />
          </mxGeometry>
        </mxCell>
        <mxCell id="VGcXp5rNp3n3L62gUcXS-364" value="" style="shape=tableRow;horizontal=0;startSize=0;swimlaneHead=0;swimlaneBody=0;strokeColor=inherit;top=0;left=0;bottom=0;right=0;collapsible=0;dropTarget=0;fillColor=none;points=[[0,0.5],[1,0.5]];portConstraint=eastwest;shadow=0;" vertex="1" parent="VGcXp5rNp3n3L62gUcXS-345">
          <mxGeometry y="66" width="110" height="22" as="geometry" />
        </mxCell>
        <mxCell id="VGcXp5rNp3n3L62gUcXS-365" value="" style="shape=partialRectangle;html=1;whiteSpace=wrap;connectable=0;strokeColor=inherit;overflow=hidden;fillColor=none;top=0;left=0;bottom=0;right=0;pointerEvents=1;shadow=0;" vertex="1" parent="VGcXp5rNp3n3L62gUcXS-364">
          <mxGeometry width="23" height="22" as="geometry">
            <mxRectangle width="23" height="22" as="alternateBounds" />
          </mxGeometry>
        </mxCell>
        <mxCell id="VGcXp5rNp3n3L62gUcXS-366" value="" style="shape=partialRectangle;html=1;whiteSpace=wrap;connectable=0;strokeColor=inherit;overflow=hidden;fillColor=light-dark(#c04f15, #ededed);top=1;left=1;bottom=1;right=1;pointerEvents=1;shadow=0;" vertex="1" parent="VGcXp5rNp3n3L62gUcXS-364">
          <mxGeometry x="23" width="22" height="22" as="geometry">
            <mxRectangle width="22" height="22" as="alternateBounds" />
          </mxGeometry>
        </mxCell>
        <mxCell id="VGcXp5rNp3n3L62gUcXS-367" value="" style="shape=partialRectangle;html=1;whiteSpace=wrap;connectable=0;strokeColor=inherit;overflow=hidden;fillColor=none;top=0;left=0;bottom=0;right=0;pointerEvents=1;shadow=0;" vertex="1" parent="VGcXp5rNp3n3L62gUcXS-364">
          <mxGeometry x="45" width="20" height="22" as="geometry">
            <mxRectangle width="20" height="22" as="alternateBounds" />
          </mxGeometry>
        </mxCell>
        <mxCell id="VGcXp5rNp3n3L62gUcXS-368" value="" style="shape=partialRectangle;html=1;whiteSpace=wrap;connectable=0;strokeColor=inherit;overflow=hidden;fillColor=none;top=0;left=0;bottom=0;right=0;pointerEvents=1;shadow=0;" vertex="1" parent="VGcXp5rNp3n3L62gUcXS-364">
          <mxGeometry x="65" width="22" height="22" as="geometry">
            <mxRectangle width="22" height="22" as="alternateBounds" />
          </mxGeometry>
        </mxCell>
        <mxCell id="VGcXp5rNp3n3L62gUcXS-369" value="" style="shape=partialRectangle;html=1;whiteSpace=wrap;connectable=0;strokeColor=inherit;overflow=hidden;fillColor=none;top=0;left=0;bottom=0;right=0;pointerEvents=1;shadow=0;" vertex="1" parent="VGcXp5rNp3n3L62gUcXS-364">
          <mxGeometry x="87" width="23" height="22" as="geometry">
            <mxRectangle width="23" height="22" as="alternateBounds" />
          </mxGeometry>
        </mxCell>
        <mxCell id="VGcXp5rNp3n3L62gUcXS-370" value="" style="shape=tableRow;horizontal=0;startSize=0;swimlaneHead=0;swimlaneBody=0;strokeColor=inherit;top=0;left=0;bottom=0;right=0;collapsible=0;dropTarget=0;fillColor=none;points=[[0,0.5],[1,0.5]];portConstraint=eastwest;shadow=0;" vertex="1" parent="VGcXp5rNp3n3L62gUcXS-345">
          <mxGeometry y="88" width="110" height="22" as="geometry" />
        </mxCell>
        <mxCell id="VGcXp5rNp3n3L62gUcXS-371" value="" style="shape=partialRectangle;html=1;whiteSpace=wrap;connectable=0;strokeColor=inherit;overflow=hidden;fillColor=none;top=0;left=0;bottom=0;right=0;pointerEvents=1;shadow=0;" vertex="1" parent="VGcXp5rNp3n3L62gUcXS-370">
          <mxGeometry width="23" height="22" as="geometry">
            <mxRectangle width="23" height="22" as="alternateBounds" />
          </mxGeometry>
        </mxCell>
        <mxCell id="VGcXp5rNp3n3L62gUcXS-372" value="" style="shape=partialRectangle;html=1;whiteSpace=wrap;connectable=0;strokeColor=inherit;overflow=hidden;fillColor=none;top=0;left=0;bottom=0;right=0;pointerEvents=1;shadow=0;" vertex="1" parent="VGcXp5rNp3n3L62gUcXS-370">
          <mxGeometry x="23" width="22" height="22" as="geometry">
            <mxRectangle width="22" height="22" as="alternateBounds" />
          </mxGeometry>
        </mxCell>
        <mxCell id="VGcXp5rNp3n3L62gUcXS-373" value="" style="shape=partialRectangle;html=1;whiteSpace=wrap;connectable=0;strokeColor=inherit;overflow=hidden;fillColor=none;top=0;left=0;bottom=0;right=0;pointerEvents=1;shadow=0;" vertex="1" parent="VGcXp5rNp3n3L62gUcXS-370">
          <mxGeometry x="45" width="20" height="22" as="geometry">
            <mxRectangle width="20" height="22" as="alternateBounds" />
          </mxGeometry>
        </mxCell>
        <mxCell id="VGcXp5rNp3n3L62gUcXS-374" value="" style="shape=partialRectangle;html=1;whiteSpace=wrap;connectable=0;strokeColor=inherit;overflow=hidden;fillColor=light-dark(#f6c6ad, #ededed);top=1;left=1;bottom=1;right=1;pointerEvents=1;shadow=0;" vertex="1" parent="VGcXp5rNp3n3L62gUcXS-370">
          <mxGeometry x="65" width="22" height="22" as="geometry">
            <mxRectangle width="22" height="22" as="alternateBounds" />
          </mxGeometry>
        </mxCell>
        <mxCell id="VGcXp5rNp3n3L62gUcXS-375" value="" style="shape=partialRectangle;html=1;whiteSpace=wrap;connectable=0;strokeColor=inherit;overflow=hidden;fillColor=none;top=0;left=0;bottom=0;right=0;pointerEvents=1;shadow=0;" vertex="1" parent="VGcXp5rNp3n3L62gUcXS-370">
          <mxGeometry x="87" width="23" height="22" as="geometry">
            <mxRectangle width="23" height="22" as="alternateBounds" />
          </mxGeometry>
        </mxCell>
        <mxCell id="VGcXp5rNp3n3L62gUcXS-376" style="rounded=0;orthogonalLoop=1;jettySize=auto;html=1;exitX=1;exitY=1;exitDx=0;exitDy=0;entryX=0;entryY=0;entryDx=0;entryDy=0;endArrow=none;startFill=0;shadow=0;" edge="1" parent="1" source="VGcXp5rNp3n3L62gUcXS-377" target="VGcXp5rNp3n3L62gUcXS-378">
          <mxGeometry relative="1" as="geometry" />
        </mxCell>
        <mxCell id="VGcXp5rNp3n3L62gUcXS-377" value="" style="ellipse;whiteSpace=wrap;html=1;aspect=fixed;fillColor=light-dark(#f2aa84, #ededed);strokeWidth=1;shadow=1;" vertex="1" parent="1">
          <mxGeometry x="1443.17" y="3131.75" width="25" height="25" as="geometry" />
        </mxCell>
        <mxCell id="VGcXp5rNp3n3L62gUcXS-378" value="" style="ellipse;whiteSpace=wrap;html=1;aspect=fixed;fillColor=light-dark(#f2aa84, #ededed);strokeWidth=1;shadow=1;" vertex="1" parent="1">
          <mxGeometry x="1478.17" y="3167.75" width="25" height="25" as="geometry" />
        </mxCell>
        <mxCell id="VGcXp5rNp3n3L62gUcXS-379" style="rounded=0;orthogonalLoop=1;jettySize=auto;html=1;exitX=1;exitY=0.5;exitDx=0;exitDy=0;entryX=0;entryY=1;entryDx=0;entryDy=0;endArrow=none;startFill=0;shadow=0;" edge="1" parent="1" source="VGcXp5rNp3n3L62gUcXS-380" target="VGcXp5rNp3n3L62gUcXS-378">
          <mxGeometry relative="1" as="geometry" />
        </mxCell>
        <mxCell id="VGcXp5rNp3n3L62gUcXS-380" value="" style="ellipse;whiteSpace=wrap;html=1;aspect=fixed;fillColor=light-dark(#f2aa84, #ededed);strokeWidth=1;shadow=1;" vertex="1" parent="1">
          <mxGeometry x="1431.92" y="3192.75" width="25" height="25" as="geometry" />
        </mxCell>
        <mxCell id="VGcXp5rNp3n3L62gUcXS-381" value="" style="ellipse;whiteSpace=wrap;html=1;aspect=fixed;fillColor=light-dark(#f2aa84, #ededed);strokeWidth=1;shadow=1;" vertex="1" parent="1">
          <mxGeometry x="1471.92" y="3218.25" width="25" height="25" as="geometry" />
        </mxCell>
        <mxCell id="VGcXp5rNp3n3L62gUcXS-382" style="rounded=0;orthogonalLoop=1;jettySize=auto;html=1;exitX=1;exitY=1;exitDx=0;exitDy=0;entryX=0;entryY=0;entryDx=0;entryDy=0;endArrow=none;startFill=0;shadow=0;" edge="1" parent="1" source="VGcXp5rNp3n3L62gUcXS-380" target="VGcXp5rNp3n3L62gUcXS-381">
          <mxGeometry relative="1" as="geometry">
            <mxPoint x="1408.17" y="3244.75" as="sourcePoint" />
            <mxPoint x="1495.17" y="3220.75" as="targetPoint" />
          </mxGeometry>
        </mxCell>
        <mxCell id="VGcXp5rNp3n3L62gUcXS-383" value="" style="ellipse;whiteSpace=wrap;html=1;aspect=fixed;fillColor=light-dark(#f2aa84, #ededed);strokeWidth=1;shadow=1;textShadow=0;" vertex="1" parent="1">
          <mxGeometry x="1508.17" y="3126.75" width="25" height="25" as="geometry" />
        </mxCell>
        <mxCell id="VGcXp5rNp3n3L62gUcXS-384" style="rounded=0;orthogonalLoop=1;jettySize=auto;html=1;entryX=1;entryY=0;entryDx=0;entryDy=0;endArrow=none;startFill=0;exitX=0;exitY=1;exitDx=0;exitDy=0;shadow=0;" edge="1" parent="1" source="VGcXp5rNp3n3L62gUcXS-383" target="VGcXp5rNp3n3L62gUcXS-378">
          <mxGeometry relative="1" as="geometry">
            <mxPoint x="1513.17" y="3127.75" as="sourcePoint" />
            <mxPoint x="1495.17" y="3184.75" as="targetPoint" />
          </mxGeometry>
        </mxCell>
        <mxCell id="VGcXp5rNp3n3L62gUcXS-385" value="" style="ellipse;whiteSpace=wrap;html=1;aspect=fixed;fillColor=light-dark(#f2aa84, #ededed);strokeWidth=1;shadow=1;" vertex="1" parent="1">
          <mxGeometry x="1513.6799999999998" y="3192.75" width="25" height="25" as="geometry" />
        </mxCell>
        <mxCell id="VGcXp5rNp3n3L62gUcXS-386" style="rounded=0;orthogonalLoop=1;jettySize=auto;html=1;exitX=0;exitY=0;exitDx=0;exitDy=0;entryX=1;entryY=1;entryDx=0;entryDy=0;endArrow=none;startFill=0;shadow=0;" edge="1" parent="1" source="VGcXp5rNp3n3L62gUcXS-385" target="VGcXp5rNp3n3L62gUcXS-378">
          <mxGeometry relative="1" as="geometry">
            <mxPoint x="1408.17" y="3244.75" as="sourcePoint" />
            <mxPoint x="1495.17" y="3220.75" as="targetPoint" />
          </mxGeometry>
        </mxCell>
        <mxCell id="VGcXp5rNp3n3L62gUcXS-387" style="rounded=0;orthogonalLoop=1;jettySize=auto;html=1;entryX=0.5;entryY=1;entryDx=0;entryDy=0;endArrow=none;startFill=0;exitX=0.5;exitY=0;exitDx=0;exitDy=0;shadow=0;" edge="1" parent="1" source="VGcXp5rNp3n3L62gUcXS-385" target="VGcXp5rNp3n3L62gUcXS-383">
          <mxGeometry relative="1" as="geometry">
            <mxPoint x="1573.17" y="3247.75" as="sourcePoint" />
            <mxPoint x="1511.17" y="3240.75" as="targetPoint" />
          </mxGeometry>
        </mxCell>
        <mxCell id="VGcXp5rNp3n3L62gUcXS-388" value="" style="html=1;shadow=0;dashed=0;align=center;verticalAlign=middle;shape=mxgraph.arrows2.bendArrow;dy=8.15;dx=29.73;notch=0;arrowHead=38.23;rounded=0;direction=north;flipH=1;fillColor=#747474;strokeColor=none;opacity=60;" vertex="1" parent="1">
          <mxGeometry x="1364.42" y="3328.5" width="137.5" height="97.5" as="geometry" />
        </mxCell>
        <mxCell id="VGcXp5rNp3n3L62gUcXS-389" value="&lt;p style=&quot;language:zh-CN;margin-top:0pt;margin-bottom:0pt;margin-left:0in;&lt;br/&gt;text-align:left;direction:ltr;unicode-bidi:embed;mso-line-break-override:none;&lt;br/&gt;word-break:normal;punctuation-wrap:hanging&quot;&gt;&lt;span&gt;&lt;b&gt;&lt;i&gt;Top-K&lt;/i&gt;&lt;/b&gt;&lt;/span&gt;&lt;/p&gt;" style="text;whiteSpace=wrap;html=1;fontSize=16;shadow=0;" vertex="1" parent="1">
          <mxGeometry x="1437.8" y="3431" width="75" height="30" as="geometry" />
        </mxCell>
        <mxCell id="VGcXp5rNp3n3L62gUcXS-390" value="" style="rounded=1;whiteSpace=wrap;html=1;fillColor=#FFF1CC;shadow=0;" vertex="1" parent="1">
          <mxGeometry x="1082.8" y="3129.25" width="227.5" height="80" as="geometry" />
        </mxCell>
        <mxCell id="VGcXp5rNp3n3L62gUcXS-391" value="&lt;span style=&quot;color: rgb(0, 0, 0); font-family: Helvetica; font-size: 20px; font-style: normal; font-variant-ligatures: normal; font-variant-caps: normal; font-weight: 400; letter-spacing: normal; orphans: 2; text-align: center; text-indent: 0px; text-transform: none; widows: 2; word-spacing: 0px; -webkit-text-stroke-width: 0px; white-space: normal; background-color: rgb(251, 251, 251); text-decoration-thickness: initial; text-decoration-style: initial; text-decoration-color: initial; float: none; display: inline !important;&quot;&gt;$$E^s_u$$&lt;/span&gt;" style="text;whiteSpace=wrap;html=1;shadow=0;" vertex="1" parent="1">
          <mxGeometry x="1199.05" y="3144.75" width="49.44" height="54.5" as="geometry" />
        </mxCell>
        <mxCell id="VGcXp5rNp3n3L62gUcXS-392" value="&lt;p style=&quot;language:zh-CN;margin-top:0pt;margin-bottom:0pt;margin-left:0in;&lt;br/&gt;text-align:left;direction:ltr;unicode-bidi:embed;mso-line-break-override:none;&lt;br/&gt;word-break:normal;punctuation-wrap:hanging&quot;&gt;&lt;span style=&quot;font-size: 20px; text-align: center;&quot;&gt;Embedding Layer&lt;/span&gt;&lt;/p&gt;" style="text;whiteSpace=wrap;html=1;shadow=0;" vertex="1" parent="1">
          <mxGeometry x="1135.3" y="3135.87" width="167.5" height="40" as="geometry" />
        </mxCell>
        <mxCell id="VGcXp5rNp3n3L62gUcXS-393" value="" style="shape=image;verticalLabelPosition=bottom;labelBackgroundColor=default;verticalAlign=top;aspect=fixed;imageAspect=0;editableCssRules=.*;image=data:image/svg+xml,PHN2ZyB4bWxuczp4bGluaz0iaHR0cDovL3d3dy53My5vcmcvMTk5OS94bGluayIgeG1sbnM9Imh0dHA6Ly93d3cudzMub3JnLzIwMDAvc3ZnIiBoZWlnaHQ9IjIwMCIgd2lkdGg9IjE3My4zMzMzMzQ5MjI3OTA1MyIgdmVyc2lvbj0iMS4xIiB2aWV3Qm94PSI2OC4yNjY2NzAyMjcwNTA3OCAwIDg4Ny40NjY2NzQ4MDQ2ODc1IDEwMjQiIGNsYXNzPSJpY29uIj48cGF0aCBmaWxsPSIjMDAwMDAwIiBkPSJNNDMzLjk3MTIgNTg1LjE0NzczM2gxNTYuMDU3NkM3OTEuOTk1NzMzIDU4NS4xNDc3MzMgOTU1LjczMzMzMyA3NDguODg1MzMzIDk1NS43MzMzMzMgOTUwLjg1MjI2NyA5NTUuNzMzMzMzIDk5MS4yNjYxMzMgOTIyLjk2NTMzMyAxMDI0IDg4Mi41ODU2IDEwMjRIMTQxLjQxNDRBNzMuMTQ3NzMzIDczLjE0NzczMyAwIDAgMSA2OC4yNjY2NjcgOTUwLjg1MjI2N2MwLTIwMS45NjY5MzMgMTYzLjczNzYtMzY1LjcwNDUzMyAzNjUuNzA0NTMzLTM2NS43MDQ1MzR6TTUxMiA1MTJjLTE0Mi45NTA0IDAtMjU4LjgzMzA2Ny0xMTQuNjE5NzMzLTI1OC44MzMwNjctMjU2QzI1My4xNjY5MzMgMTE0LjYxOTczMyAzNjkuMDQ5NiAwIDUxMiAwYzE0Mi45NTA0IDAgMjU4LjgzMzA2NyAxMTQuNjE5NzMzIDI1OC44MzMwNjcgMjU2IDAgMTQxLjM4MDI2Ny0xMTUuODgyNjY3IDI1Ni0yNTguODMzMDY3IDI1NnoiLz48L3N2Zz4=;shadow=0;" vertex="1" parent="1">
          <mxGeometry x="1100.3" y="3163.25" width="22.06" height="25.5" as="geometry" />
        </mxCell>
        <mxCell id="VGcXp5rNp3n3L62gUcXS-394" value="" style="shape=image;verticalLabelPosition=bottom;labelBackgroundColor=default;verticalAlign=top;aspect=fixed;imageAspect=0;editableCssRules=.*;image=data:image/svg+xml,PHN2ZyB4bWxuczp4bGluaz0iaHR0cDovL3d3dy53My5vcmcvMTk5OS94bGluayIgeG1sbnM9Imh0dHA6Ly93d3cudzMub3JnLzIwMDAvc3ZnIiBoZWlnaHQ9IjIwMCIgd2lkdGg9IjE3NSIgdmVyc2lvbj0iMS4xIiB2aWV3Qm94PSI2NCAwIDg5NiAxMDI0IiBjbGFzcz0iaWNvbiI+PHBhdGggZmlsbD0iIzU0QzNGMSIgZD0iTTg2NCAzODRIMTYwYTk2IDk2IDAgMCAxLTk2LTk2Vjk2YTk2IDk2IDAgMCAxIDk2LTk2aDcwNGE5NiA5NiAwIDAgMSA5NiA5NnYxOTJhOTYgOTYgMCAwIDEtOTYgOTZ6TTE2MCA2NGEzMiAzMiAwIDAgMC0zMiAzMnYxOTJhMzIgMzIgMCAwIDAgMzIgMzJoNzA0YTMyIDMyIDAgMCAwIDMyLTMyVjk2YTMyIDMyIDAgMCAwLTMyLTMyeiIvPjxwYXRoIGZpbGw9IiM1NEMzRjEiIGQ9Ik04NjQgNzA0SDE2MGE5NiA5NiAwIDAgMS05Ni05NnYtMTkyYTk2IDk2IDAgMCAxIDk2LTk2aDcwNGE5NiA5NiAwIDAgMSA5NiA5NnYxOTJhOTYgOTYgMCAwIDEtOTYgOTZ6TTE2MCAzODRhMzIgMzIgMCAwIDAtMzIgMzJ2MTkyYTMyIDMyIDAgMCAwIDMyIDMyaDcwNGEzMiAzMiAwIDAgMCAzMi0zMnYtMTkyYTMyIDMyIDAgMCAwLTMyLTMyeiIvPjxwYXRoIGZpbGw9IiM1NEMzRjEiIGQ9Ik04NjQgMTAyNEgxNjBhOTYgOTYgMCAwIDEtOTYtOTZ2LTE5MmE5NiA5NiAwIDAgMSA5Ni05Nmg3MDRhOTYgOTYgMCAwIDEgOTYgOTZ2MTkyYTk2IDk2IDAgMCAxLTk2IDk2ek0xNjAgNzA0YTMyIDMyIDAgMCAwLTMyIDMydjE5MmEzMiAzMiAwIDAgMCAzMiAzMmg3MDRhMzIgMzIgMCAwIDAgMzItMzJ2LTE5MmEzMiAzMiAwIDAgMC0zMi0zMnoiLz48cGF0aCBmaWxsPSIjNTRDM0YxIiBkPSJNMjI0IDE5Mm0tMzIgMGEzMiAzMiAwIDEgMCA2NCAwIDMyIDMyIDAgMSAwLTY0IDBaIi8+PHBhdGggZmlsbD0iIzU0QzNGMSIgZD0iTTIyNCA1MTJtLTMyIDBhMzIgMzIgMCAxIDAgNjQgMCAzMiAzMiAwIDEgMC02NCAwWiIvPjxwYXRoIGZpbGw9IiM1NEMzRjEiIGQ9Ik0yMjQgODMybS0zMiAwYTMyIDMyIDAgMSAwIDY0IDAgMzIgMzIgMCAxIDAtNjQgMFoiLz48L3N2Zz4=;shadow=0;" vertex="1" parent="1">
          <mxGeometry x="1048.4299999999998" y="3646.43" width="97.34" height="111.24" as="geometry" />
        </mxCell>
        <mxCell id="VGcXp5rNp3n3L62gUcXS-395" value="" style="shape=image;verticalLabelPosition=bottom;labelBackgroundColor=default;verticalAlign=top;aspect=fixed;imageAspect=0;editableCssRules=.*;image=data:image/svg+xml,PHN2ZyB4bWxuczp4bGluaz0iaHR0cDovL3d3dy53My5vcmcvMTk5OS94bGluayIgeG1sbnM9Imh0dHA6Ly93d3cudzMub3JnLzIwMDAvc3ZnIiBoZWlnaHQ9IjIwMCIgd2lkdGg9IjE3NSIgdmVyc2lvbj0iMS4xIiB2aWV3Qm94PSI2NCAwIDg5NiAxMDI0IiBjbGFzcz0iaWNvbiI+PHBhdGggZmlsbD0iI0ZGOEM4MiIgZD0iTTg2NCAzODRIMTYwYTk2IDk2IDAgMCAxLTk2LTk2Vjk2YTk2IDk2IDAgMCAxIDk2LTk2aDcwNGE5NiA5NiAwIDAgMSA5NiA5NnYxOTJhOTYgOTYgMCAwIDEtOTYgOTZ6TTE2MCA2NGEzMiAzMiAwIDAgMC0zMiAzMnYxOTJhMzIgMzIgMCAwIDAgMzIgMzJoNzA0YTMyIDMyIDAgMCAwIDMyLTMyVjk2YTMyIDMyIDAgMCAwLTMyLTMyeiIvPjxwYXRoIGZpbGw9IiNGRjhDODIiIGQ9Ik04NjQgNzA0SDE2MGE5NiA5NiAwIDAgMS05Ni05NnYtMTkyYTk2IDk2IDAgMCAxIDk2LTk2aDcwNGE5NiA5NiAwIDAgMSA5NiA5NnYxOTJhOTYgOTYgMCAwIDEtOTYgOTZ6TTE2MCAzODRhMzIgMzIgMCAwIDAtMzIgMzJ2MTkyYTMyIDMyIDAgMCAwIDMyIDMyaDcwNGEzMiAzMiAwIDAgMCAzMi0zMnYtMTkyYTMyIDMyIDAgMCAwLTMyLTMyeiIvPjxwYXRoIGZpbGw9IiNGRjhDODIiIGQ9Ik04NjQgMTAyNEgxNjBhOTYgOTYgMCAwIDEtOTYtOTZ2LTE5MmE5NiA5NiAwIDAgMSA5Ni05Nmg3MDRhOTYgOTYgMCAwIDEgOTYgOTZ2MTkyYTk2IDk2IDAgMCAxLTk2IDk2ek0xNjAgNzA0YTMyIDMyIDAgMCAwLTMyIDMydjE5MmEzMiAzMiAwIDAgMCAzMiAzMmg3MDRhMzIgMzIgMCAwIDAgMzItMzJ2LTE5MmEzMiAzMiAwIDAgMC0zMi0zMnoiLz48cGF0aCBmaWxsPSIjRkY4QzgyIiBkPSJNMjI0IDE5Mm0tMzIgMGEzMiAzMiAwIDEgMCA2NCAwIDMyIDMyIDAgMSAwLTY0IDBaIi8+PHBhdGggZmlsbD0iI0ZGOEM4MiIgZD0iTTIyNCA1MTJtLTMyIDBhMzIgMzIgMCAxIDAgNjQgMCAzMiAzMiAwIDEgMC02NCAwWiIvPjxwYXRoIGZpbGw9IiNGRjhDODIiIGQ9Ik0yMjQgODMybS0zMiAwYTMyIDMyIDAgMSAwIDY0IDAgMzIgMzIgMCAxIDAtNjQgMFoiLz48L3N2Zz4=;shadow=0;" vertex="1" parent="1">
          <mxGeometry x="1072.8" y="3366" width="97.34" height="111.25" as="geometry" />
        </mxCell>
        <mxCell id="VGcXp5rNp3n3L62gUcXS-396" value="" style="shape=image;verticalLabelPosition=bottom;labelBackgroundColor=default;verticalAlign=top;aspect=fixed;imageAspect=0;editableCssRules=.*;image=data:image/svg+xml,PHN2ZyB4bWxuczp4bGluaz0iaHR0cDovL3d3dy53My5vcmcvMTk5OS94bGluayIgeG1sbnM9Imh0dHA6Ly93d3cudzMub3JnLzIwMDAvc3ZnIiBoZWlnaHQ9IjE4OS41NjM2NDM5MzIzNDI1MyIgd2lkdGg9IjE0NS4xODY1NDM0NjQ2NjA2NCIgdmVyc2lvbj0iMS4xIiB2aWV3Qm94PSIxMzkuNzQ1MzYxMzI4MTI1IDAuOTMwODQ3MTY3OTY4NzUgNzQzLjM1NTEwMjUzOTA2MjUgOTcwLjU2NTg1NjkzMzU5MzgiIGNsYXNzPSJpY29uIj48cGF0aCBmaWxsPSIjRkY1RTAwIiBkPSJNNzAxLjc5NjUzOCAxODEuMTU0OTA5YzIwLjIwMDcyNyA1MS4yIDIzLjI3MjcyNyAxMzUuNzI2NTQ1LTE4LjYxODE4MiAxNzYuNDA3MjczQzYxNC45NDI3MiA1OS4yMDU4MTggNDQ0Ljc3MjUzOCAwLjkzMDkwOSA0NDQuNzcyNTM4IDAuOTMwOTA5YzIwLjI5MzgxOCAxNTEuNjQ1MDkxLTcxLjEyMTQ1NSAzMTcuNjI2MTgyLTE2MC44NjEwOTEgNDQyLjc0MDM2NC0yLjk3ODkwOS01OS45NTA1NDUtNi4yMzcwOTEtMTAwLjUzODE4Mi0zNS41NjA3MjctMTYyLjM1MDU0NkMyNDIuMjA2NzIgMzkyLjU2NDM2NCAxNjguMDEzMjY1IDQ4MC44MTQ1NDUgMTQ2LjQxNjE3NSA1OTIuMDU4MTgyYy0yNi4yNTE2MzYgMTUzLjUwNjkwOSAyMS41OTcwOTEgMjYxLjEyIDIwNC4wNTUyNzIgMzc5LjQzODU0NS01Ny4yNTA5MDktMTM1LjcyNjU0NS0yNi4yNTE2MzYtMjEzLjQ1NzQ1NSAxOC42MTgxODItMjgzLjkyNzI3MiA0Ny45NDE4MTgtODEuMDgyMTgyIDYwLjUwOTA5MS0xNTguODEzMDkxIDYwLjUwOTA5MS0xNTguODEzMDkxczM4LjUzOTYzNiA1NC42NDQzNjQgMjMuMjcyNzI3IDE0MS4wMzI3MjdjNjQuNzkxMjczLTg0LjYxOTYzNiA3Ny4zNTg1NDUtMjIwLjYyNTQ1NSA2OC4xNDI1NDYtMjY5Ljk2MzYzNiAxNDguMzg2OTA5IDExOC4yMjU0NTUgMjE0Ljg1MzgxOCAzNzkuNDM4NTQ1IDEyOC4zNzIzNjMgNTY4LjEzMzgxOCA0NTcuNjM0OTA5LTI5OC4wNzcwOTEgMTEyLjY0LTc0MS4wMDM2MzYgNTIuNDEwMTgyLTc4Ni43MTEyNzMiLz48L3N2Zz4=;shadow=0;" vertex="1" parent="1">
          <mxGeometry x="1276.55" y="3174.25" width="20.98" height="27.5" as="geometry" />
        </mxCell>
        <mxCell id="VGcXp5rNp3n3L62gUcXS-397" value="" style="html=1;shadow=0;dashed=0;align=center;verticalAlign=middle;shape=mxgraph.arrows2.arrow;dy=0.48;dx=22.56;notch=0;fillColor=#747474;strokeColor=none;opacity=60;" vertex="1" parent="1">
          <mxGeometry x="1322.8" y="3160.5" width="62.5" height="30" as="geometry" />
        </mxCell>
        <mxCell id="VGcXp5rNp3n3L62gUcXS-398" value="" style="html=1;shadow=0;dashed=0;align=center;verticalAlign=middle;shape=mxgraph.arrows2.arrow;dy=0.48;dx=22.56;notch=0;fillColor=#747474;strokeColor=none;opacity=60;" vertex="1" parent="1">
          <mxGeometry x="1593.17" y="3161.75" width="49.63" height="30" as="geometry" />
        </mxCell>
        <mxCell id="VGcXp5rNp3n3L62gUcXS-399" value="" style="html=1;shadow=0;dashed=0;align=center;verticalAlign=middle;shape=mxgraph.arrows2.arrow;dy=0.66;dx=15.38;notch=0;fillColor=#FF9C7D;strokeColor=none;rotation=348;direction=south;" vertex="1" parent="1">
          <mxGeometry x="1735.3" y="3097.25" width="12" height="26" as="geometry" />
        </mxCell>
        <mxCell id="VGcXp5rNp3n3L62gUcXS-400" value="" style="html=1;shadow=0;dashed=0;align=center;verticalAlign=middle;shape=mxgraph.arrows2.arrow;dy=0.66;dx=15.38;notch=0;fillColor=#FF9C7D;strokeColor=none;rotation=14;direction=south;" vertex="1" parent="1">
          <mxGeometry x="1763.17" y="3094.4900000000002" width="12" height="26" as="geometry" />
        </mxCell>
        <mxCell id="VGcXp5rNp3n3L62gUcXS-401" value="" style="html=1;shadow=0;dashed=0;align=center;verticalAlign=middle;shape=mxgraph.arrows2.arrow;dy=0.66;dx=15.38;notch=0;fillColor=#FF9C7D;strokeColor=none;rotation=338;direction=east;" vertex="1" parent="1">
          <mxGeometry x="1672.8" y="3176.25" width="26" height="12" as="geometry" />
        </mxCell>
        <mxCell id="VGcXp5rNp3n3L62gUcXS-402" value="" style="html=1;shadow=0;dashed=0;align=center;verticalAlign=middle;shape=mxgraph.arrows2.arrow;dy=0.66;dx=15.38;notch=0;fillColor=#FF9C7D;strokeColor=none;rotation=12;direction=west;" vertex="1" parent="1">
          <mxGeometry x="1672.17" y="3149.25" width="26" height="12" as="geometry" />
        </mxCell>
        <mxCell id="VGcXp5rNp3n3L62gUcXS-403" value="" style="html=1;shadow=0;dashed=0;align=center;verticalAlign=middle;shape=mxgraph.arrows2.arrow;dy=0.66;dx=15.38;notch=0;fillColor=#FF9C7D;strokeColor=none;rotation=330;direction=north;" vertex="1" parent="1">
          <mxGeometry x="1783.8" y="3218.25" width="12" height="26" as="geometry" />
        </mxCell>
        <mxCell id="VGcXp5rNp3n3L62gUcXS-404" value="" style="html=1;shadow=0;dashed=0;align=center;verticalAlign=middle;shape=mxgraph.arrows2.arrow;dy=0.66;dx=15.38;notch=0;fillColor=#FF9C7D;strokeColor=none;rotation=32;direction=south;" vertex="1" parent="1">
          <mxGeometry x="1708.8" y="3220.25" width="12" height="26" as="geometry" />
        </mxCell>
        <mxCell id="VGcXp5rNp3n3L62gUcXS-405" value="" style="html=1;shadow=0;dashed=0;align=center;verticalAlign=middle;shape=mxgraph.arrows2.arrow;dy=0.66;dx=15.38;notch=0;fillColor=#FF9C7D;strokeColor=none;rotation=8;direction=west;" vertex="1" parent="1">
          <mxGeometry x="1801.8" y="3174.75" width="26" height="12" as="geometry" />
        </mxCell>
        <mxCell id="VGcXp5rNp3n3L62gUcXS-406" value="" style="html=1;shadow=0;dashed=0;align=center;verticalAlign=middle;shape=mxgraph.arrows2.arrow;dy=0.66;dx=15.38;notch=0;fillColor=#FF9C7D;strokeColor=none;rotation=339;direction=east;" vertex="1" parent="1">
          <mxGeometry x="1801.8" y="3149.25" width="26" height="12" as="geometry" />
        </mxCell>
        <mxCell id="VGcXp5rNp3n3L62gUcXS-407" value="&lt;p style=&quot;language:zh-CN;margin-top:0pt;margin-bottom:0pt;margin-left:0in;&lt;br/&gt;text-align:left;direction:ltr;unicode-bidi:embed;mso-line-break-override:none;&lt;br/&gt;word-break:normal;punctuation-wrap:hanging&quot;&gt;&lt;span style=&quot;color: black; font-weight: bold; font-style: italic;&quot;&gt;&lt;font&gt;Relation-Aware Graph&lt;/font&gt;&lt;/span&gt;&lt;/p&gt;" style="text;whiteSpace=wrap;html=1;shadow=0;fontSize=19;verticalAlign=middle;" vertex="1" parent="1">
          <mxGeometry x="1375.3" y="3278.75" width="258.75" height="40" as="geometry" />
        </mxCell>
        <mxCell id="VGcXp5rNp3n3L62gUcXS-408" value="&lt;p style=&quot;language:zh-CN;margin-top:0pt;margin-bottom:0pt;margin-left:0in;&lt;br/&gt;text-align:left;direction:ltr;unicode-bidi:embed;mso-line-break-override:none;&lt;br/&gt;word-break:normal;punctuation-wrap:hanging&quot;&gt;&lt;span style=&quot;color: black; font-weight: bold; font-style: italic;&quot;&gt;&lt;font&gt;Graph Neural Network&lt;/font&gt;&lt;/span&gt;&lt;/p&gt;" style="text;whiteSpace=wrap;html=1;shadow=0;fontSize=19;verticalAlign=middle;" vertex="1" parent="1">
          <mxGeometry x="1636.29" y="3276.5" width="258.75" height="40" as="geometry" />
        </mxCell>
        <mxCell id="VGcXp5rNp3n3L62gUcXS-409" value="" style="html=1;shadow=0;dashed=0;align=center;verticalAlign=middle;shape=mxgraph.arrows2.arrow;dy=0.48;dx=22.56;notch=0;fillColor=#747474;strokeColor=none;opacity=60;direction=south;" vertex="1" parent="1">
          <mxGeometry x="1731.74" y="3316.5" width="29.12" height="50" as="geometry" />
        </mxCell>
        <mxCell id="VGcXp5rNp3n3L62gUcXS-410" value="&lt;p style=&quot;language:zh-CN;margin-top:0pt;margin-bottom:0pt;margin-left:0in;&lt;br/&gt;text-align:left;direction:ltr;unicode-bidi:embed;mso-line-break-override:none;&lt;br/&gt;word-break:normal;punctuation-wrap:hanging&quot;&gt;&lt;span style=&quot;color: black; font-weight: bold; font-style: italic;&quot;&gt;&lt;font style=&quot;font-size: 21px;&quot;&gt;.&lt;/font&gt;&lt;/span&gt;&lt;/p&gt;" style="text;whiteSpace=wrap;html=1;shadow=0;movable=1;resizable=1;rotatable=1;deletable=1;editable=1;locked=0;connectable=1;" vertex="1" parent="1">
          <mxGeometry x="1752.42" y="3425.5" width="20" height="30" as="geometry" />
        </mxCell>
        <mxCell id="VGcXp5rNp3n3L62gUcXS-411" value="&lt;p style=&quot;language:zh-CN;margin-top:0pt;margin-bottom:0pt;margin-left:0in;&lt;br/&gt;text-align:left;direction:ltr;unicode-bidi:embed;mso-line-break-override:none;&lt;br/&gt;word-break:normal;punctuation-wrap:hanging&quot;&gt;&lt;span style=&quot;color: black; font-weight: bold; font-style: italic;&quot;&gt;&lt;font style=&quot;font-size: 21px;&quot;&gt;.&lt;/font&gt;&lt;/span&gt;&lt;/p&gt;" style="text;whiteSpace=wrap;html=1;shadow=0;movable=1;resizable=1;rotatable=1;deletable=1;editable=1;locked=0;connectable=1;" vertex="1" parent="1">
          <mxGeometry x="1764.92" y="3425.5" width="20" height="30" as="geometry" />
        </mxCell>
        <mxCell id="VGcXp5rNp3n3L62gUcXS-412" value="&lt;p style=&quot;language:zh-CN;margin-top:0pt;margin-bottom:0pt;margin-left:0in;&lt;br/&gt;text-align:left;direction:ltr;unicode-bidi:embed;mso-line-break-override:none;&lt;br/&gt;word-break:normal;punctuation-wrap:hanging&quot;&gt;&lt;span style=&quot;color: black; font-weight: bold; font-style: italic;&quot;&gt;&lt;font style=&quot;font-size: 21px;&quot;&gt;.&lt;/font&gt;&lt;/span&gt;&lt;/p&gt;" style="text;whiteSpace=wrap;html=1;shadow=0;movable=1;resizable=1;rotatable=1;deletable=1;editable=1;locked=0;connectable=1;" vertex="1" parent="1">
          <mxGeometry x="1775.92" y="3425.5" width="20" height="30" as="geometry" />
        </mxCell>
        <mxCell id="VGcXp5rNp3n3L62gUcXS-413" value="&lt;span style=&quot;color: rgb(0, 0, 0); font-family: Helvetica; font-style: normal; font-variant-ligatures: normal; font-variant-caps: normal; font-weight: 400; letter-spacing: normal; orphans: 2; text-align: center; text-indent: 0px; text-transform: none; widows: 2; word-spacing: 0px; -webkit-text-stroke-width: 0px; white-space: normal; background-color: rgb(251, 251, 251); text-decoration-thickness: initial; text-decoration-style: initial; text-decoration-color: initial; float: none; display: inline !important;&quot;&gt;$$\tilde{E}_u$$&lt;/span&gt;" style="text;whiteSpace=wrap;html=1;shadow=0;fontSize=25;" vertex="1" parent="1">
          <mxGeometry x="1570.8600000000001" y="3412.25" width="52.5" height="52.5" as="geometry" />
        </mxCell>
        <mxCell id="VGcXp5rNp3n3L62gUcXS-414" value="&lt;p style=&quot;language:zh-CN;margin-top:0pt;margin-bottom:0pt;margin-left:0in;&lt;br/&gt;text-align:left;direction:ltr;unicode-bidi:embed;mso-line-break-override:none;&lt;br/&gt;word-break:normal;punctuation-wrap:hanging&quot;&gt;&lt;span style=&quot;color: black; font-weight: bold; font-style: italic;&quot;&gt;&lt;font&gt;User Similarity Matrix&lt;/font&gt;&lt;/span&gt;&lt;/p&gt;" style="text;whiteSpace=wrap;html=1;fontSize=19;verticalAlign=middle;" vertex="1" parent="1">
          <mxGeometry x="1222.8" y="3477.25" width="232.5" height="47.5" as="geometry" />
        </mxCell>
        <mxCell id="VGcXp5rNp3n3L62gUcXS-415" value="" style="shape=cube;whiteSpace=wrap;html=1;boundedLbl=1;backgroundOutline=1;darkOpacity=0.05;darkOpacity2=0.1;fillColor=light-dark(#f7c1bd, #ededed);size=8;flipH=1;shadow=0;strokeColor=none;gradientColor=light-dark(#ffa68a, #ededed);" vertex="1" parent="1">
          <mxGeometry x="1633.73" y="3382.75" width="25" height="101" as="geometry" />
        </mxCell>
        <mxCell id="VGcXp5rNp3n3L62gUcXS-416" value="" style="ellipse;whiteSpace=wrap;html=1;aspect=fixed;fillColor=none;strokeColor=#0F9ED5;" vertex="1" parent="1">
          <mxGeometry x="1962.7999999999997" y="3156.75" width="140" height="140" as="geometry" />
        </mxCell>
        <mxCell id="VGcXp5rNp3n3L62gUcXS-417" value="" style="ellipse;whiteSpace=wrap;html=1;aspect=fixed;fillColor=light-dark(#E97132,#EDEDED);strokeWidth=1;shadow=1;" vertex="1" parent="1">
          <mxGeometry x="1995.7999999999997" y="3178.25" width="12.5" height="12.5" as="geometry" />
        </mxCell>
        <mxCell id="VGcXp5rNp3n3L62gUcXS-418" value="" style="ellipse;whiteSpace=wrap;html=1;aspect=fixed;fillColor=light-dark(#E97132,#EDEDED);strokeWidth=1;shadow=1;" vertex="1" parent="1">
          <mxGeometry x="1985.7999999999997" y="3219.75" width="12.5" height="12.5" as="geometry" />
        </mxCell>
        <mxCell id="VGcXp5rNp3n3L62gUcXS-419" value="" style="ellipse;whiteSpace=wrap;html=1;aspect=fixed;fillColor=light-dark(#E97132,#EDEDED);strokeWidth=1;shadow=1;" vertex="1" parent="1">
          <mxGeometry x="2018.2999999999997" y="3190.75" width="12.5" height="12.5" as="geometry" />
        </mxCell>
        <mxCell id="VGcXp5rNp3n3L62gUcXS-420" value="" style="ellipse;whiteSpace=wrap;html=1;aspect=fixed;fillColor=light-dark(#E97132,#EDEDED);strokeWidth=1;shadow=1;" vertex="1" parent="1">
          <mxGeometry x="2020.7999999999997" y="3242.25" width="12.5" height="12.5" as="geometry" />
        </mxCell>
        <mxCell id="VGcXp5rNp3n3L62gUcXS-421" value="" style="ellipse;whiteSpace=wrap;html=1;aspect=fixed;fillColor=light-dark(#E97132,#EDEDED);strokeWidth=1;shadow=1;" vertex="1" parent="1">
          <mxGeometry x="2038.2999999999997" y="3167.75" width="12.5" height="12.5" as="geometry" />
        </mxCell>
        <mxCell id="VGcXp5rNp3n3L62gUcXS-422" value="" style="ellipse;whiteSpace=wrap;html=1;aspect=fixed;fillColor=light-dark(#E97132,#EDEDED);strokeWidth=1;shadow=1;" vertex="1" parent="1">
          <mxGeometry x="2065.7999999999997" y="3227.25" width="12.5" height="12.5" as="geometry" />
        </mxCell>
        <mxCell id="VGcXp5rNp3n3L62gUcXS-423" value="" style="ellipse;whiteSpace=wrap;html=1;aspect=fixed;fillColor=none;strokeColor=#0F9ED5;" vertex="1" parent="1">
          <mxGeometry x="1962.7999999999997" y="3366" width="140" height="140" as="geometry" />
        </mxCell>
        <mxCell id="VGcXp5rNp3n3L62gUcXS-424" value="" style="ellipse;whiteSpace=wrap;html=1;aspect=fixed;fillColor=light-dark(#F2AA84,#EDEDED);strokeWidth=1;shadow=1;" vertex="1" parent="1">
          <mxGeometry x="1995.7999999999997" y="3393.5" width="12.5" height="12.5" as="geometry" />
        </mxCell>
        <mxCell id="VGcXp5rNp3n3L62gUcXS-425" value="" style="ellipse;whiteSpace=wrap;html=1;aspect=fixed;fillColor=light-dark(#F2AA84,#EDEDED);strokeWidth=1;shadow=1;" vertex="1" parent="1">
          <mxGeometry x="1985.7999999999997" y="3435" width="12.5" height="12.5" as="geometry" />
        </mxCell>
        <mxCell id="VGcXp5rNp3n3L62gUcXS-426" value="" style="ellipse;whiteSpace=wrap;html=1;aspect=fixed;fillColor=light-dark(#F2AA84,#EDEDED);strokeWidth=1;shadow=1;" vertex="1" parent="1">
          <mxGeometry x="2018.2999999999997" y="3406" width="12.5" height="12.5" as="geometry" />
        </mxCell>
        <mxCell id="VGcXp5rNp3n3L62gUcXS-427" value="" style="ellipse;whiteSpace=wrap;html=1;aspect=fixed;fillColor=light-dark(#F2AA84,#EDEDED);strokeWidth=1;shadow=1;" vertex="1" parent="1">
          <mxGeometry x="2020.7999999999997" y="3457.5" width="12.5" height="12.5" as="geometry" />
        </mxCell>
        <mxCell id="VGcXp5rNp3n3L62gUcXS-428" value="" style="ellipse;whiteSpace=wrap;html=1;aspect=fixed;fillColor=light-dark(#F2AA84,#EDEDED);strokeWidth=1;shadow=1;" vertex="1" parent="1">
          <mxGeometry x="2053.2999999999997" y="3445" width="12.5" height="12.5" as="geometry" />
        </mxCell>
        <mxCell id="VGcXp5rNp3n3L62gUcXS-429" value="" style="ellipse;whiteSpace=wrap;html=1;aspect=fixed;fillColor=light-dark(#F2AA84,#EDEDED);strokeWidth=1;shadow=1;" vertex="1" parent="1">
          <mxGeometry x="2065.7999999999997" y="3424" width="12.5" height="12.5" as="geometry" />
        </mxCell>
        <mxCell id="VGcXp5rNp3n3L62gUcXS-430" value="" style="endArrow=classic;startArrow=classic;html=1;rounded=0;entryX=0;entryY=1;entryDx=0;entryDy=0;exitX=0.5;exitY=0;exitDx=0;exitDy=0;" edge="1" parent="1" source="VGcXp5rNp3n3L62gUcXS-424" target="VGcXp5rNp3n3L62gUcXS-420">
          <mxGeometry width="50" height="50" relative="1" as="geometry">
            <mxPoint x="2025.7999999999997" y="3393.5" as="sourcePoint" />
            <mxPoint x="2075.7999999999997" y="3343.5" as="targetPoint" />
          </mxGeometry>
        </mxCell>
        <mxCell id="VGcXp5rNp3n3L62gUcXS-431" value="" style="endArrow=classic;startArrow=classic;html=1;rounded=0;exitX=0.5;exitY=0;exitDx=0;exitDy=0;entryX=1;entryY=1;entryDx=0;entryDy=0;dashed=1;" edge="1" parent="1" source="VGcXp5rNp3n3L62gUcXS-429" target="VGcXp5rNp3n3L62gUcXS-420">
          <mxGeometry width="50" height="50" relative="1" as="geometry">
            <mxPoint x="2011.7999999999997" y="3403.5" as="sourcePoint" />
            <mxPoint x="2036.7999999999997" y="3287.5" as="targetPoint" />
          </mxGeometry>
        </mxCell>
        <mxCell id="VGcXp5rNp3n3L62gUcXS-432" value="&lt;p style=&quot;language:zh-CN;margin-top:0pt;margin-bottom:0pt;margin-left:0in;&lt;br/&gt;text-align:left;direction:ltr;unicode-bidi:embed;mso-line-break-override:none;&lt;br/&gt;word-break:normal;punctuation-wrap:hanging&quot;&gt;&lt;span style=&quot;color: black; font-weight: bold; font-style: italic;&quot;&gt;&lt;font&gt;Positive Guidence&lt;/font&gt;&lt;/span&gt;&lt;/p&gt;" style="text;whiteSpace=wrap;html=1;shadow=0;fontSize=11;" vertex="1" parent="1">
          <mxGeometry x="2232.8" y="3175.88" width="176.25" height="40" as="geometry" />
        </mxCell>
        <mxCell id="VGcXp5rNp3n3L62gUcXS-433" value="&lt;p style=&quot;language:zh-CN;margin-top:0pt;margin-bottom:0pt;margin-left:0in;&lt;br/&gt;text-align:left;direction:ltr;unicode-bidi:embed;mso-line-break-override:none;&lt;br/&gt;word-break:normal;punctuation-wrap:hanging&quot;&gt;&lt;span style=&quot;color: black; font-weight: bold; font-style: italic;&quot;&gt;&lt;font&gt;Negtive Guidence&lt;/font&gt;&lt;/span&gt;&lt;/p&gt;" style="text;whiteSpace=wrap;html=1;shadow=0;fontSize=11;" vertex="1" parent="1">
          <mxGeometry x="2232.8" y="3201.38" width="180" height="40" as="geometry" />
        </mxCell>
        <mxCell id="VGcXp5rNp3n3L62gUcXS-434" value="" style="endArrow=classic;startArrow=classic;html=1;rounded=0;endSize=5;" edge="1" parent="1">
          <mxGeometry width="50" height="50" relative="1" as="geometry">
            <mxPoint x="2217.3999999999996" y="3188.38" as="sourcePoint" />
            <mxPoint x="2167.3999999999996" y="3188.38" as="targetPoint" />
          </mxGeometry>
        </mxCell>
        <mxCell id="VGcXp5rNp3n3L62gUcXS-435" value="" style="ellipse;whiteSpace=wrap;html=1;aspect=fixed;fillColor=none;strokeColor=#0F9ED5;" vertex="1" parent="1">
          <mxGeometry x="2162.54" y="3109.12" width="58.88" height="58.88" as="geometry" />
        </mxCell>
        <mxCell id="VGcXp5rNp3n3L62gUcXS-436" value="&lt;p style=&quot;language:zh-CN;margin-top:0pt;margin-bottom:0pt;margin-left:0in;&lt;br/&gt;text-align:left;direction:ltr;unicode-bidi:embed;mso-line-break-override:none;&lt;br/&gt;word-break:normal;punctuation-wrap:hanging&quot;&gt;&lt;span style=&quot;color: light-dark(black, rgb(237, 237, 237)); font-style: italic; font-weight: bold; background-color: transparent;&quot;&gt;Embedding Space&lt;/span&gt;&lt;/p&gt;" style="text;whiteSpace=wrap;html=1;shadow=0;fontSize=11;" vertex="1" parent="1">
          <mxGeometry x="2232.8" y="3129.25" width="125.69" height="24.87" as="geometry" />
        </mxCell>
        <mxCell id="VGcXp5rNp3n3L62gUcXS-437" value="" style="ellipse;whiteSpace=wrap;html=1;aspect=fixed;fillColor=light-dark(#E97132,#EDEDED);strokeWidth=1;shadow=1;" vertex="1" parent="1">
          <mxGeometry x="2179.17" y="3268.76" width="12.5" height="12.5" as="geometry" />
        </mxCell>
        <mxCell id="VGcXp5rNp3n3L62gUcXS-438" value="&lt;p style=&quot;language:zh-CN;margin-top:0pt;margin-bottom:0pt;margin-left:0in;&lt;br/&gt;text-align:left;direction:ltr;unicode-bidi:embed;mso-line-break-override:none;&lt;br/&gt;word-break:normal;punctuation-wrap:hanging&quot;&gt;&lt;b&gt;&lt;i&gt;User Embedding&lt;/i&gt;&lt;/b&gt;&lt;/p&gt;" style="text;whiteSpace=wrap;html=1;shadow=0;fontSize=11;" vertex="1" parent="1">
          <mxGeometry x="2229.2599999999998" y="3264.25" width="190" height="27.5" as="geometry" />
        </mxCell>
        <mxCell id="VGcXp5rNp3n3L62gUcXS-439" value="&lt;p style=&quot;language:zh-CN;margin-top:0pt;margin-bottom:0pt;margin-left:0in;&lt;br/&gt;text-align:left;direction:ltr;unicode-bidi:embed;mso-line-break-override:none;&lt;br/&gt;word-break:normal;punctuation-wrap:hanging&quot;&gt;&lt;b&gt;&lt;i&gt;Denoised User Embedding&lt;/i&gt;&lt;/b&gt;&lt;/p&gt;" style="text;whiteSpace=wrap;html=1;shadow=0;fontSize=11;" vertex="1" parent="1">
          <mxGeometry x="2231.08" y="3229.88" width="190" height="27.5" as="geometry" />
        </mxCell>
        <mxCell id="VGcXp5rNp3n3L62gUcXS-440" value="" style="ellipse;whiteSpace=wrap;html=1;aspect=fixed;fillColor=light-dark(#f2aa84, #ededed);strokeWidth=1;shadow=1;" vertex="1" parent="1">
          <mxGeometry x="2180.14" y="3237.38" width="12.5" height="12.5" as="geometry" />
        </mxCell>
        <mxCell id="VGcXp5rNp3n3L62gUcXS-441" value="" style="html=1;strokeWidth=2;shape=manualInput;whiteSpace=wrap;rounded=1;size=13;arcSize=0;fillColor=#A9A9A9;strokeColor=none;opacity=50;shadow=0;" vertex="1" parent="1">
          <mxGeometry x="1048.4299999999998" y="3047.75" width="250" height="40" as="geometry" />
        </mxCell>
        <mxCell id="VGcXp5rNp3n3L62gUcXS-442" value="&lt;p style=&quot;language:zh-CN;margin-top:0pt;margin-bottom:0pt;margin-left:0in;&lt;br/&gt;text-align:left;direction:ltr;unicode-bidi:embed;mso-line-break-override:none;&lt;br/&gt;word-break:normal;punctuation-wrap:hanging&quot;&gt;&lt;span style=&quot;font-size: 16px;&quot;&gt;&lt;b&gt;Relation-Aware User Modeling&lt;/b&gt;&lt;/span&gt;&lt;/p&gt;" style="text;whiteSpace=wrap;html=1;shadow=0;" vertex="1" parent="1">
          <mxGeometry x="1048.4299999999998" y="3057.75" width="250" height="30" as="geometry" />
        </mxCell>
        <mxCell id="VGcXp5rNp3n3L62gUcXS-443" value="" style="html=1;strokeWidth=2;shape=manualInput;whiteSpace=wrap;rounded=1;size=13;arcSize=0;fillColor=#A9A9A9;strokeColor=none;opacity=50;shadow=0;" vertex="1" parent="1">
          <mxGeometry x="1949.5500000000002" y="3049" width="224.15" height="40" as="geometry" />
        </mxCell>
        <mxCell id="VGcXp5rNp3n3L62gUcXS-444" value="&lt;p style=&quot;language:zh-CN;margin-top:0pt;margin-bottom:0pt;margin-left:0in;&lt;br/&gt;text-align:left;direction:ltr;unicode-bidi:embed;mso-line-break-override:none;&lt;br/&gt;word-break:normal;punctuation-wrap:hanging&quot;&gt;&lt;span style=&quot;font-size: 16px;&quot;&gt;&lt;b&gt;Dual Bidirectional Guidence&lt;/b&gt;&lt;/span&gt;&lt;/p&gt;" style="text;whiteSpace=wrap;html=1;shadow=0;" vertex="1" parent="1">
          <mxGeometry x="1949.5500000000002" y="3059" width="224.15" height="30" as="geometry" />
        </mxCell>
        <mxCell id="VGcXp5rNp3n3L62gUcXS-445" style="rounded=0;orthogonalLoop=1;jettySize=auto;html=1;exitX=1;exitY=1;exitDx=0;exitDy=0;entryX=0;entryY=0;entryDx=0;entryDy=0;endArrow=none;startFill=0;shadow=0;" edge="1" parent="1" source="VGcXp5rNp3n3L62gUcXS-446" target="VGcXp5rNp3n3L62gUcXS-447">
          <mxGeometry relative="1" as="geometry" />
        </mxCell>
        <mxCell id="VGcXp5rNp3n3L62gUcXS-446" value="" style="ellipse;whiteSpace=wrap;html=1;aspect=fixed;fillColor=light-dark(#f2aa84, #ededed);strokeWidth=1;shadow=1;" vertex="1" parent="1">
          <mxGeometry x="1703.17" y="3130.5" width="25" height="25" as="geometry" />
        </mxCell>
        <mxCell id="VGcXp5rNp3n3L62gUcXS-447" value="" style="ellipse;whiteSpace=wrap;html=1;aspect=fixed;fillColor=light-dark(#f2aa84, #ededed);strokeWidth=1;shadow=1;" vertex="1" parent="1">
          <mxGeometry x="1738.17" y="3166.5" width="25" height="25" as="geometry" />
        </mxCell>
        <mxCell id="VGcXp5rNp3n3L62gUcXS-448" style="rounded=0;orthogonalLoop=1;jettySize=auto;html=1;exitX=1;exitY=0.5;exitDx=0;exitDy=0;entryX=0;entryY=1;entryDx=0;entryDy=0;endArrow=none;startFill=0;shadow=0;" edge="1" parent="1" source="VGcXp5rNp3n3L62gUcXS-449" target="VGcXp5rNp3n3L62gUcXS-447">
          <mxGeometry relative="1" as="geometry" />
        </mxCell>
        <mxCell id="VGcXp5rNp3n3L62gUcXS-449" value="" style="ellipse;whiteSpace=wrap;html=1;aspect=fixed;fillColor=light-dark(#f2aa84, #ededed);strokeWidth=1;shadow=1;" vertex="1" parent="1">
          <mxGeometry x="1691.92" y="3191.5" width="25" height="25" as="geometry" />
        </mxCell>
        <mxCell id="VGcXp5rNp3n3L62gUcXS-450" value="" style="ellipse;whiteSpace=wrap;html=1;aspect=fixed;fillColor=light-dark(#f2aa84, #ededed);strokeWidth=1;shadow=1;" vertex="1" parent="1">
          <mxGeometry x="1731.92" y="3217" width="25" height="25" as="geometry" />
        </mxCell>
        <mxCell id="VGcXp5rNp3n3L62gUcXS-451" style="rounded=0;orthogonalLoop=1;jettySize=auto;html=1;exitX=1;exitY=1;exitDx=0;exitDy=0;entryX=0;entryY=0;entryDx=0;entryDy=0;endArrow=none;startFill=0;shadow=0;" edge="1" parent="1" source="VGcXp5rNp3n3L62gUcXS-449" target="VGcXp5rNp3n3L62gUcXS-450">
          <mxGeometry relative="1" as="geometry">
            <mxPoint x="1668.17" y="3243.5" as="sourcePoint" />
            <mxPoint x="1755.17" y="3219.5" as="targetPoint" />
          </mxGeometry>
        </mxCell>
        <mxCell id="VGcXp5rNp3n3L62gUcXS-452" value="" style="ellipse;whiteSpace=wrap;html=1;aspect=fixed;fillColor=light-dark(#f2aa84, #ededed);strokeWidth=1;shadow=1;textShadow=0;" vertex="1" parent="1">
          <mxGeometry x="1768.17" y="3125.5" width="25" height="25" as="geometry" />
        </mxCell>
        <mxCell id="VGcXp5rNp3n3L62gUcXS-453" style="rounded=0;orthogonalLoop=1;jettySize=auto;html=1;entryX=1;entryY=0;entryDx=0;entryDy=0;endArrow=none;startFill=0;exitX=0;exitY=1;exitDx=0;exitDy=0;shadow=0;" edge="1" parent="1" source="VGcXp5rNp3n3L62gUcXS-452" target="VGcXp5rNp3n3L62gUcXS-447">
          <mxGeometry relative="1" as="geometry">
            <mxPoint x="1773.17" y="3126.5" as="sourcePoint" />
            <mxPoint x="1755.17" y="3183.5" as="targetPoint" />
          </mxGeometry>
        </mxCell>
        <mxCell id="VGcXp5rNp3n3L62gUcXS-454" value="" style="ellipse;whiteSpace=wrap;html=1;aspect=fixed;fillColor=light-dark(#f2aa84, #ededed);strokeWidth=1;shadow=1;" vertex="1" parent="1">
          <mxGeometry x="1773.68" y="3191.5" width="25" height="25" as="geometry" />
        </mxCell>
        <mxCell id="VGcXp5rNp3n3L62gUcXS-455" style="rounded=0;orthogonalLoop=1;jettySize=auto;html=1;exitX=0;exitY=0;exitDx=0;exitDy=0;entryX=1;entryY=1;entryDx=0;entryDy=0;endArrow=none;startFill=0;shadow=0;" edge="1" parent="1" source="VGcXp5rNp3n3L62gUcXS-454" target="VGcXp5rNp3n3L62gUcXS-447">
          <mxGeometry relative="1" as="geometry">
            <mxPoint x="1668.17" y="3243.5" as="sourcePoint" />
            <mxPoint x="1755.17" y="3219.5" as="targetPoint" />
          </mxGeometry>
        </mxCell>
        <mxCell id="VGcXp5rNp3n3L62gUcXS-456" style="rounded=0;orthogonalLoop=1;jettySize=auto;html=1;entryX=0.5;entryY=1;entryDx=0;entryDy=0;endArrow=none;startFill=0;exitX=0.5;exitY=0;exitDx=0;exitDy=0;shadow=0;" edge="1" parent="1" source="VGcXp5rNp3n3L62gUcXS-454" target="VGcXp5rNp3n3L62gUcXS-452">
          <mxGeometry relative="1" as="geometry">
            <mxPoint x="1833.17" y="3246.5" as="sourcePoint" />
            <mxPoint x="1771.17" y="3239.5" as="targetPoint" />
          </mxGeometry>
        </mxCell>
        <mxCell id="VGcXp5rNp3n3L62gUcXS-457" value="" style="shape=cube;whiteSpace=wrap;html=1;boundedLbl=1;backgroundOutline=1;darkOpacity=0.05;darkOpacity2=0.1;fillColor=light-dark(#f7c1bd, #ededed);size=8;flipH=1;shadow=0;strokeColor=none;gradientColor=light-dark(#ffa68a, #ededed);" vertex="1" parent="1">
          <mxGeometry x="1661.73" y="3382.75" width="25" height="101" as="geometry" />
        </mxCell>
        <mxCell id="VGcXp5rNp3n3L62gUcXS-458" value="" style="shape=cube;whiteSpace=wrap;html=1;boundedLbl=1;backgroundOutline=1;darkOpacity=0.05;darkOpacity2=0.1;fillColor=light-dark(#f7c1bd, #ededed);size=8;flipH=1;shadow=0;strokeColor=none;gradientColor=light-dark(#ffa68a, #ededed);" vertex="1" parent="1">
          <mxGeometry x="1688.73" y="3382.75" width="25" height="101" as="geometry" />
        </mxCell>
        <mxCell id="VGcXp5rNp3n3L62gUcXS-459" value="" style="shape=cube;whiteSpace=wrap;html=1;boundedLbl=1;backgroundOutline=1;darkOpacity=0.05;darkOpacity2=0.1;fillColor=light-dark(#f7c1bd, #ededed);size=8;flipH=1;shadow=0;strokeColor=none;gradientColor=light-dark(#ffa68a, #ededed);" vertex="1" parent="1">
          <mxGeometry x="1716.23" y="3382.75" width="25" height="101" as="geometry" />
        </mxCell>
        <mxCell id="VGcXp5rNp3n3L62gUcXS-460" value="" style="shape=cube;whiteSpace=wrap;html=1;boundedLbl=1;backgroundOutline=1;darkOpacity=0.05;darkOpacity2=0.1;fillColor=light-dark(#f7c1bd, #ededed);size=8;flipH=1;shadow=0;strokeColor=none;gradientColor=light-dark(#ffa68a, #ededed);" vertex="1" parent="1">
          <mxGeometry x="1791.1" y="3382.75" width="25" height="101" as="geometry" />
        </mxCell>
        <mxCell id="VGcXp5rNp3n3L62gUcXS-461" value="" style="shape=cube;whiteSpace=wrap;html=1;boundedLbl=1;backgroundOutline=1;darkOpacity=0.05;darkOpacity2=0.1;fillColor=light-dark(#f7c1bd, #ededed);size=8;flipH=1;shadow=0;strokeColor=none;gradientColor=light-dark(#ffa68a, #ededed);" vertex="1" parent="1">
          <mxGeometry x="1818.6" y="3382.75" width="25" height="101" as="geometry" />
        </mxCell>
        <mxCell id="VGcXp5rNp3n3L62gUcXS-462" value="" style="html=1;shadow=0;dashed=0;align=center;verticalAlign=middle;shape=mxgraph.arrows2.arrow;dy=0.48;dx=22.56;notch=0;fillColor=#747474;strokeColor=none;opacity=60;" vertex="1" parent="1">
          <mxGeometry x="1882.7999999999997" y="3426.25" width="49.63" height="30" as="geometry" />
        </mxCell>
        <mxCell id="VGcXp5rNp3n3L62gUcXS-463" value="&lt;span style=&quot;color: rgb(0, 0, 0); font-family: Helvetica; font-style: normal; font-variant-ligatures: normal; font-variant-caps: normal; font-weight: 400; letter-spacing: normal; orphans: 2; text-align: center; text-indent: 0px; text-transform: none; widows: 2; word-spacing: 0px; -webkit-text-stroke-width: 0px; white-space: normal; background-color: rgb(251, 251, 251); text-decoration-thickness: initial; text-decoration-style: initial; text-decoration-color: initial; float: none; display: inline !important;&quot;&gt;$$S_u$$&lt;/span&gt;" style="text;whiteSpace=wrap;html=1;shadow=0;fontSize=19;" vertex="1" parent="1">
          <mxGeometry x="1112.8" y="3461" width="52.5" height="52.5" as="geometry" />
        </mxCell>
        <mxCell id="VGcXp5rNp3n3L62gUcXS-464" value="" style="shape=image;verticalLabelPosition=bottom;labelBackgroundColor=default;verticalAlign=top;aspect=fixed;imageAspect=0;editableCssRules=.*;image=data:image/svg+xml,PHN2ZyB4bWxuczp4bGluaz0iaHR0cDovL3d3dy53My5vcmcvMTk5OS94bGluayIgeG1sbnM9Imh0dHA6Ly93d3cudzMub3JnLzIwMDAvc3ZnIiBoZWlnaHQ9IjIwMCIgd2lkdGg9IjE3NSIgdmVyc2lvbj0iMS4xIiB2aWV3Qm94PSI2NCAwIDg5NiAxMDI0IiBjbGFzcz0iaWNvbiI+PHBhdGggZmlsbD0iIzU0QzNGMSIgZD0iTTg2NCAzODRIMTYwYTk2IDk2IDAgMCAxLTk2LTk2Vjk2YTk2IDk2IDAgMCAxIDk2LTk2aDcwNGE5NiA5NiAwIDAgMSA5NiA5NnYxOTJhOTYgOTYgMCAwIDEtOTYgOTZ6TTE2MCA2NGEzMiAzMiAwIDAgMC0zMiAzMnYxOTJhMzIgMzIgMCAwIDAgMzIgMzJoNzA0YTMyIDMyIDAgMCAwIDMyLTMyVjk2YTMyIDMyIDAgMCAwLTMyLTMyeiIvPjxwYXRoIGZpbGw9IiM1NEMzRjEiIGQ9Ik04NjQgNzA0SDE2MGE5NiA5NiAwIDAgMS05Ni05NnYtMTkyYTk2IDk2IDAgMCAxIDk2LTk2aDcwNGE5NiA5NiAwIDAgMSA5NiA5NnYxOTJhOTYgOTYgMCAwIDEtOTYgOTZ6TTE2MCAzODRhMzIgMzIgMCAwIDAtMzIgMzJ2MTkyYTMyIDMyIDAgMCAwIDMyIDMyaDcwNGEzMiAzMiAwIDAgMCAzMi0zMnYtMTkyYTMyIDMyIDAgMCAwLTMyLTMyeiIvPjxwYXRoIGZpbGw9IiM1NEMzRjEiIGQ9Ik04NjQgMTAyNEgxNjBhOTYgOTYgMCAwIDEtOTYtOTZ2LTE5MmE5NiA5NiAwIDAgMSA5Ni05Nmg3MDRhOTYgOTYgMCAwIDEgOTYgOTZ2MTkyYTk2IDk2IDAgMCAxLTk2IDk2ek0xNjAgNzA0YTMyIDMyIDAgMCAwLTMyIDMydjE5MmEzMiAzMiAwIDAgMCAzMiAzMmg3MDRhMzIgMzIgMCAwIDAgMzItMzJ2LTE5MmEzMiAzMiAwIDAgMC0zMi0zMnoiLz48cGF0aCBmaWxsPSIjNTRDM0YxIiBkPSJNMjI0IDE5Mm0tMzIgMGEzMiAzMiAwIDEgMCA2NCAwIDMyIDMyIDAgMSAwLTY0IDBaIi8+PHBhdGggZmlsbD0iIzU0QzNGMSIgZD0iTTIyNCA1MTJtLTMyIDBhMzIgMzIgMCAxIDAgNjQgMCAzMiAzMiAwIDEgMC02NCAwWiIvPjxwYXRoIGZpbGw9IiM1NEMzRjEiIGQ9Ik0yMjQgODMybS0zMiAwYTMyIDMyIDAgMSAwIDY0IDAgMzIgMzIgMCAxIDAtNjQgMFoiLz48L3N2Zz4=;shadow=0;" vertex="1" parent="1">
          <mxGeometry x="1199.38" y="3671.68" width="56.33" height="64.38" as="geometry" />
        </mxCell>
        <mxCell id="VGcXp5rNp3n3L62gUcXS-465" value="" style="html=1;shadow=0;dashed=0;align=center;verticalAlign=middle;shape=mxgraph.arrows2.arrow;dy=0.48;dx=22.56;notch=0;fillColor=#118ED3;strokeColor=none;opacity=40;" vertex="1" parent="1">
          <mxGeometry x="1149.51" y="3690.0099999999998" width="42.52" height="20" as="geometry" />
        </mxCell>
        <mxCell id="VGcXp5rNp3n3L62gUcXS-466" value="&lt;p style=&quot;language:zh-CN;margin-top:0pt;margin-bottom:0pt;margin-left:0in;&lt;br/&gt;text-align:left;direction:ltr;unicode-bidi:embed;mso-line-break-override:none;&lt;br/&gt;word-break:normal;punctuation-wrap:hanging&quot;&gt;&lt;span&gt;&lt;b&gt;&lt;i&gt;PCA&lt;/i&gt;&lt;/b&gt;&lt;/span&gt;&lt;/p&gt;" style="text;whiteSpace=wrap;html=1;fontSize=16;shadow=0;" vertex="1" parent="1">
          <mxGeometry x="1149.51" y="3660.0099999999998" width="75" height="30" as="geometry" />
        </mxCell>
        <mxCell id="VGcXp5rNp3n3L62gUcXS-467" value="" style="ellipse;whiteSpace=wrap;html=1;aspect=fixed;fillColor=none;strokeColor=#FF9C7D;strokeWidth=4;dashed=1;shadow=0;dashPattern=1 2;" vertex="1" parent="1">
          <mxGeometry x="1451.19" y="3655.76" width="170" height="170" as="geometry" />
        </mxCell>
        <mxCell id="VGcXp5rNp3n3L62gUcXS-468" value="" style="ellipse;whiteSpace=wrap;html=1;aspect=fixed;fillColor=none;strokeColor=#FF9C7D;strokeWidth=4;dashed=1;dashPattern=12 12;shadow=0;" vertex="1" parent="1">
          <mxGeometry x="1451.19" y="3655.76" width="170" height="170" as="geometry" />
        </mxCell>
        <mxCell id="VGcXp5rNp3n3L62gUcXS-469" value="" style="html=1;shadow=0;dashed=0;align=center;verticalAlign=middle;shape=mxgraph.arrows2.arrow;dy=0.66;dx=15.38;notch=0;fillColor=#FF9C7D;strokeColor=none;rotation=348;direction=south;" vertex="1" parent="1">
          <mxGeometry x="1518.69" y="3660.01" width="12" height="26" as="geometry" />
        </mxCell>
        <mxCell id="VGcXp5rNp3n3L62gUcXS-470" value="" style="html=1;shadow=0;dashed=0;align=center;verticalAlign=middle;shape=mxgraph.arrows2.arrow;dy=0.66;dx=15.38;notch=0;fillColor=#FF9C7D;strokeColor=none;rotation=14;direction=south;" vertex="1" parent="1">
          <mxGeometry x="1546.56" y="3657.2500000000005" width="12" height="26" as="geometry" />
        </mxCell>
        <mxCell id="VGcXp5rNp3n3L62gUcXS-471" value="" style="html=1;shadow=0;dashed=0;align=center;verticalAlign=middle;shape=mxgraph.arrows2.arrow;dy=0.66;dx=15.38;notch=0;fillColor=#FF9C7D;strokeColor=none;rotation=338;direction=east;" vertex="1" parent="1">
          <mxGeometry x="1456.19" y="3739.01" width="26" height="12" as="geometry" />
        </mxCell>
        <mxCell id="VGcXp5rNp3n3L62gUcXS-472" value="" style="html=1;shadow=0;dashed=0;align=center;verticalAlign=middle;shape=mxgraph.arrows2.arrow;dy=0.66;dx=15.38;notch=0;fillColor=#FF9C7D;strokeColor=none;rotation=12;direction=west;" vertex="1" parent="1">
          <mxGeometry x="1455.5600000000002" y="3712.01" width="26" height="12" as="geometry" />
        </mxCell>
        <mxCell id="VGcXp5rNp3n3L62gUcXS-473" value="" style="html=1;shadow=0;dashed=0;align=center;verticalAlign=middle;shape=mxgraph.arrows2.arrow;dy=0.66;dx=15.38;notch=0;fillColor=#FF9C7D;strokeColor=none;rotation=330;direction=north;" vertex="1" parent="1">
          <mxGeometry x="1567.19" y="3781.01" width="12" height="26" as="geometry" />
        </mxCell>
        <mxCell id="VGcXp5rNp3n3L62gUcXS-474" value="" style="html=1;shadow=0;dashed=0;align=center;verticalAlign=middle;shape=mxgraph.arrows2.arrow;dy=0.66;dx=15.38;notch=0;fillColor=#FF9C7D;strokeColor=none;rotation=32;direction=south;" vertex="1" parent="1">
          <mxGeometry x="1492.19" y="3783.01" width="12" height="26" as="geometry" />
        </mxCell>
        <mxCell id="VGcXp5rNp3n3L62gUcXS-475" value="" style="html=1;shadow=0;dashed=0;align=center;verticalAlign=middle;shape=mxgraph.arrows2.arrow;dy=0.66;dx=15.38;notch=0;fillColor=#FF9C7D;strokeColor=none;rotation=8;direction=west;" vertex="1" parent="1">
          <mxGeometry x="1585.19" y="3737.51" width="26" height="12" as="geometry" />
        </mxCell>
        <mxCell id="VGcXp5rNp3n3L62gUcXS-476" value="" style="html=1;shadow=0;dashed=0;align=center;verticalAlign=middle;shape=mxgraph.arrows2.arrow;dy=0.66;dx=15.38;notch=0;fillColor=#FF9C7D;strokeColor=none;rotation=339;direction=east;" vertex="1" parent="1">
          <mxGeometry x="1585.19" y="3712.01" width="26" height="12" as="geometry" />
        </mxCell>
        <mxCell id="VGcXp5rNp3n3L62gUcXS-477" value="&lt;p style=&quot;language:zh-CN;margin-top:0pt;margin-bottom:0pt;margin-left:0in;&lt;br/&gt;text-align:left;direction:ltr;unicode-bidi:embed;mso-line-break-override:none;&lt;br/&gt;word-break:normal;punctuation-wrap:hanging&quot;&gt;&lt;span style=&quot;color: black; font-weight: bold; font-style: italic;&quot;&gt;&lt;font&gt;Graph Neural Network&lt;/font&gt;&lt;/span&gt;&lt;/p&gt;" style="text;whiteSpace=wrap;html=1;shadow=0;fontSize=19;verticalAlign=middle;" vertex="1" parent="1">
          <mxGeometry x="1444.7" y="3851.1200000000003" width="205.99" height="40" as="geometry" />
        </mxCell>
        <mxCell id="VGcXp5rNp3n3L62gUcXS-478" style="rounded=0;orthogonalLoop=1;jettySize=auto;html=1;exitX=1;exitY=1;exitDx=0;exitDy=0;entryX=0;entryY=0;entryDx=0;entryDy=0;endArrow=none;startFill=0;shadow=0;" edge="1" parent="1" source="VGcXp5rNp3n3L62gUcXS-479" target="VGcXp5rNp3n3L62gUcXS-482">
          <mxGeometry relative="1" as="geometry" />
        </mxCell>
        <mxCell id="VGcXp5rNp3n3L62gUcXS-479" value="" style="ellipse;whiteSpace=wrap;html=1;aspect=fixed;fillColor=light-dark(#91C4E1,#EDEDED);strokeWidth=1;shadow=1;" vertex="1" parent="1">
          <mxGeometry x="1486.5600000000002" y="3693.26" width="25" height="25" as="geometry" />
        </mxCell>
        <mxCell id="VGcXp5rNp3n3L62gUcXS-480" style="rounded=0;orthogonalLoop=1;jettySize=auto;html=1;exitX=0.5;exitY=1;exitDx=0;exitDy=0;entryX=0.5;entryY=0;entryDx=0;entryDy=0;endArrow=none;startFill=0;" edge="1" parent="1" source="VGcXp5rNp3n3L62gUcXS-482" target="VGcXp5rNp3n3L62gUcXS-489">
          <mxGeometry relative="1" as="geometry" />
        </mxCell>
        <mxCell id="VGcXp5rNp3n3L62gUcXS-481" style="rounded=0;orthogonalLoop=1;jettySize=auto;html=1;exitX=1;exitY=0.5;exitDx=0;exitDy=0;entryX=0;entryY=0.5;entryDx=0;entryDy=0;endArrow=none;startFill=0;" edge="1" parent="1" source="VGcXp5rNp3n3L62gUcXS-482" target="VGcXp5rNp3n3L62gUcXS-487">
          <mxGeometry relative="1" as="geometry" />
        </mxCell>
        <mxCell id="VGcXp5rNp3n3L62gUcXS-482" value="" style="ellipse;whiteSpace=wrap;html=1;aspect=fixed;fillColor=light-dark(#E97132,#EDEDED);strokeWidth=1;shadow=1;" vertex="1" parent="1">
          <mxGeometry x="1520.19" y="3727.89" width="26.37" height="26.37" as="geometry" />
        </mxCell>
        <mxCell id="VGcXp5rNp3n3L62gUcXS-483" style="rounded=0;orthogonalLoop=1;jettySize=auto;html=1;exitX=1;exitY=0.5;exitDx=0;exitDy=0;entryX=0;entryY=1;entryDx=0;entryDy=0;endArrow=none;startFill=0;shadow=0;" edge="1" parent="1" source="VGcXp5rNp3n3L62gUcXS-484" target="VGcXp5rNp3n3L62gUcXS-482">
          <mxGeometry relative="1" as="geometry" />
        </mxCell>
        <mxCell id="VGcXp5rNp3n3L62gUcXS-484" value="" style="ellipse;whiteSpace=wrap;html=1;aspect=fixed;fillColor=light-dark(#91C4E1,#EDEDED);strokeWidth=1;shadow=1;" vertex="1" parent="1">
          <mxGeometry x="1475.3100000000002" y="3754.26" width="25" height="25" as="geometry" />
        </mxCell>
        <mxCell id="VGcXp5rNp3n3L62gUcXS-485" style="rounded=0;orthogonalLoop=1;jettySize=auto;html=1;exitX=0.5;exitY=1;exitDx=0;exitDy=0;endArrow=none;startFill=0;" edge="1" parent="1" source="VGcXp5rNp3n3L62gUcXS-486" target="VGcXp5rNp3n3L62gUcXS-487">
          <mxGeometry relative="1" as="geometry" />
        </mxCell>
        <mxCell id="VGcXp5rNp3n3L62gUcXS-486" value="" style="ellipse;whiteSpace=wrap;html=1;aspect=fixed;fillColor=light-dark(#E97132,#EDEDED);strokeWidth=1;shadow=1;" vertex="1" parent="1">
          <mxGeometry x="1546.5600000000002" y="3683.2500000000005" width="25" height="25" as="geometry" />
        </mxCell>
        <mxCell id="VGcXp5rNp3n3L62gUcXS-487" value="" style="ellipse;whiteSpace=wrap;html=1;aspect=fixed;fillColor=light-dark(#91C4E1,#EDEDED);strokeWidth=1;shadow=1;textShadow=0;" vertex="1" parent="1">
          <mxGeometry x="1561.66" y="3743.55" width="25" height="25" as="geometry" />
        </mxCell>
        <mxCell id="VGcXp5rNp3n3L62gUcXS-488" style="rounded=0;orthogonalLoop=1;jettySize=auto;html=1;exitX=1;exitY=0.5;exitDx=0;exitDy=0;entryX=-0.004;entryY=0.937;entryDx=0;entryDy=0;entryPerimeter=0;strokeColor=light-dark(#0288d1, #ededed);" edge="1" parent="1" source="VGcXp5rNp3n3L62gUcXS-489" target="VGcXp5rNp3n3L62gUcXS-498">
          <mxGeometry relative="1" as="geometry">
            <mxPoint x="1668.51" y="3958.13" as="targetPoint" />
          </mxGeometry>
        </mxCell>
        <mxCell id="VGcXp5rNp3n3L62gUcXS-489" value="" style="ellipse;whiteSpace=wrap;html=1;aspect=fixed;fillColor=light-dark(#91C4E1,#EDEDED);strokeWidth=1;shadow=1;" vertex="1" parent="1">
          <mxGeometry x="1521.56" y="3786.38" width="25" height="25" as="geometry" />
        </mxCell>
        <mxCell id="VGcXp5rNp3n3L62gUcXS-490" value="" style="rounded=1;whiteSpace=wrap;html=1;fillColor=#FFF1CC;shadow=0;" vertex="1" parent="1">
          <mxGeometry x="1139.5700000000002" y="3796.15" width="227.5" height="80" as="geometry" />
        </mxCell>
        <mxCell id="VGcXp5rNp3n3L62gUcXS-491" value="&lt;span style=&quot;color: rgb(0, 0, 0); font-family: Helvetica; font-size: 20px; font-style: normal; font-variant-ligatures: normal; font-variant-caps: normal; font-weight: 400; letter-spacing: normal; orphans: 2; text-align: center; text-indent: 0px; text-transform: none; widows: 2; word-spacing: 0px; -webkit-text-stroke-width: 0px; white-space: normal; background-color: rgb(251, 251, 251); text-decoration-thickness: initial; text-decoration-style: initial; text-decoration-color: initial; float: none; display: inline !important;&quot;&gt;$$E^0_u$$&lt;/span&gt;" style="text;whiteSpace=wrap;html=1;shadow=0;" vertex="1" parent="1">
          <mxGeometry x="1255.8200000000002" y="3813.65" width="52.5" height="52.5" as="geometry" />
        </mxCell>
        <mxCell id="VGcXp5rNp3n3L62gUcXS-492" value="&lt;p style=&quot;language:zh-CN;margin-top:0pt;margin-bottom:0pt;margin-left:0in;&lt;br/&gt;text-align:left;direction:ltr;unicode-bidi:embed;mso-line-break-override:none;&lt;br/&gt;word-break:normal;punctuation-wrap:hanging&quot;&gt;&lt;span style=&quot;font-size: 20px; text-align: center;&quot;&gt;Embedding Layer&lt;/span&gt;&lt;/p&gt;" style="text;whiteSpace=wrap;html=1;shadow=0;" vertex="1" parent="1">
          <mxGeometry x="1192.0700000000002" y="3802.77" width="167.5" height="40" as="geometry" />
        </mxCell>
        <mxCell id="VGcXp5rNp3n3L62gUcXS-493" value="" style="shape=image;verticalLabelPosition=bottom;labelBackgroundColor=default;verticalAlign=top;aspect=fixed;imageAspect=0;editableCssRules=.*;image=data:image/svg+xml,PHN2ZyB4bWxuczp4bGluaz0iaHR0cDovL3d3dy53My5vcmcvMTk5OS94bGluayIgeG1sbnM9Imh0dHA6Ly93d3cudzMub3JnLzIwMDAvc3ZnIiBoZWlnaHQ9IjIwMCIgd2lkdGg9IjE3My4zMzMzMzQ5MjI3OTA1MyIgdmVyc2lvbj0iMS4xIiB2aWV3Qm94PSI2OC4yNjY2NzAyMjcwNTA3OCAwIDg4Ny40NjY2NzQ4MDQ2ODc1IDEwMjQiIGNsYXNzPSJpY29uIj48cGF0aCBmaWxsPSIjMDAwMDAwIiBkPSJNNDMzLjk3MTIgNTg1LjE0NzczM2gxNTYuMDU3NkM3OTEuOTk1NzMzIDU4NS4xNDc3MzMgOTU1LjczMzMzMyA3NDguODg1MzMzIDk1NS43MzMzMzMgOTUwLjg1MjI2NyA5NTUuNzMzMzMzIDk5MS4yNjYxMzMgOTIyLjk2NTMzMyAxMDI0IDg4Mi41ODU2IDEwMjRIMTQxLjQxNDRBNzMuMTQ3NzMzIDczLjE0NzczMyAwIDAgMSA2OC4yNjY2NjcgOTUwLjg1MjI2N2MwLTIwMS45NjY5MzMgMTYzLjczNzYtMzY1LjcwNDUzMyAzNjUuNzA0NTMzLTM2NS43MDQ1MzR6TTUxMiA1MTJjLTE0Mi45NTA0IDAtMjU4LjgzMzA2Ny0xMTQuNjE5NzMzLTI1OC44MzMwNjctMjU2QzI1My4xNjY5MzMgMTE0LjYxOTczMyAzNjkuMDQ5NiAwIDUxMiAwYzE0Mi45NTA0IDAgMjU4LjgzMzA2NyAxMTQuNjE5NzMzIDI1OC44MzMwNjcgMjU2IDAgMTQxLjM4MDI2Ny0xMTUuODgyNjY3IDI1Ni0yNTguODMzMDY3IDI1NnoiLz48L3N2Zz4=;shadow=0;" vertex="1" parent="1">
          <mxGeometry x="1157.0700000000002" y="3830.15" width="22.06" height="25.5" as="geometry" />
        </mxCell>
        <mxCell id="VGcXp5rNp3n3L62gUcXS-494" value="" style="shape=image;verticalLabelPosition=bottom;labelBackgroundColor=default;verticalAlign=top;aspect=fixed;imageAspect=0;editableCssRules=.*;image=data:image/svg+xml,PHN2ZyB4bWxuczp4bGluaz0iaHR0cDovL3d3dy53My5vcmcvMTk5OS94bGluayIgeG1sbnM9Imh0dHA6Ly93d3cudzMub3JnLzIwMDAvc3ZnIiBoZWlnaHQ9IjE4OS41NjM2NDM5MzIzNDI1MyIgd2lkdGg9IjE0NS4xODY1NDM0NjQ2NjA2NCIgdmVyc2lvbj0iMS4xIiB2aWV3Qm94PSIxMzkuNzQ1MzYxMzI4MTI1IDAuOTMwODQ3MTY3OTY4NzUgNzQzLjM1NTEwMjUzOTA2MjUgOTcwLjU2NTg1NjkzMzU5MzgiIGNsYXNzPSJpY29uIj48cGF0aCBmaWxsPSIjRkY1RTAwIiBkPSJNNzAxLjc5NjUzOCAxODEuMTU0OTA5YzIwLjIwMDcyNyA1MS4yIDIzLjI3MjcyNyAxMzUuNzI2NTQ1LTE4LjYxODE4MiAxNzYuNDA3MjczQzYxNC45NDI3MiA1OS4yMDU4MTggNDQ0Ljc3MjUzOCAwLjkzMDkwOSA0NDQuNzcyNTM4IDAuOTMwOTA5YzIwLjI5MzgxOCAxNTEuNjQ1MDkxLTcxLjEyMTQ1NSAzMTcuNjI2MTgyLTE2MC44NjEwOTEgNDQyLjc0MDM2NC0yLjk3ODkwOS01OS45NTA1NDUtNi4yMzcwOTEtMTAwLjUzODE4Mi0zNS41NjA3MjctMTYyLjM1MDU0NkMyNDIuMjA2NzIgMzkyLjU2NDM2NCAxNjguMDEzMjY1IDQ4MC44MTQ1NDUgMTQ2LjQxNjE3NSA1OTIuMDU4MTgyYy0yNi4yNTE2MzYgMTUzLjUwNjkwOSAyMS41OTcwOTEgMjYxLjEyIDIwNC4wNTUyNzIgMzc5LjQzODU0NS01Ny4yNTA5MDktMTM1LjcyNjU0NS0yNi4yNTE2MzYtMjEzLjQ1NzQ1NSAxOC42MTgxODItMjgzLjkyNzI3MiA0Ny45NDE4MTgtODEuMDgyMTgyIDYwLjUwOTA5MS0xNTguODEzMDkxIDYwLjUwOTA5MS0xNTguODEzMDkxczM4LjUzOTYzNiA1NC42NDQzNjQgMjMuMjcyNzI3IDE0MS4wMzI3MjdjNjQuNzkxMjczLTg0LjYxOTYzNiA3Ny4zNTg1NDUtMjIwLjYyNTQ1NSA2OC4xNDI1NDYtMjY5Ljk2MzYzNiAxNDguMzg2OTA5IDExOC4yMjU0NTUgMjE0Ljg1MzgxOCAzNzkuNDM4NTQ1IDEyOC4zNzIzNjMgNTY4LjEzMzgxOCA0NTcuNjM0OTA5LTI5OC4wNzcwOTEgMTEyLjY0LTc0MS4wMDM2MzYgNTIuNDEwMTgyLTc4Ni43MTEyNzMiLz48L3N2Zz4=;shadow=0;" vertex="1" parent="1">
          <mxGeometry x="1333.32" y="3841.15" width="20.98" height="27.5" as="geometry" />
        </mxCell>
        <mxCell id="VGcXp5rNp3n3L62gUcXS-495" value="" style="html=1;shadow=0;dashed=0;align=center;verticalAlign=middle;shape=mxgraph.arrows2.arrow;dy=0.48;dx=22.56;notch=0;fillColor=#747474;strokeColor=none;opacity=60;" vertex="1" parent="1">
          <mxGeometry x="1388.32" y="3811.46" width="42.52" height="20" as="geometry" />
        </mxCell>
        <mxCell id="VGcXp5rNp3n3L62gUcXS-496" value="" style="html=1;shadow=0;dashed=0;align=center;verticalAlign=middle;shape=mxgraph.arrows2.arrow;dy=0.48;dx=22.56;notch=0;fillColor=#118ED3;strokeColor=none;opacity=40;" vertex="1" parent="1">
          <mxGeometry x="1263.31" y="3690.0099999999998" width="42.52" height="20" as="geometry" />
        </mxCell>
        <mxCell id="VGcXp5rNp3n3L62gUcXS-497" value="" style="html=1;shadow=0;dashed=0;align=center;verticalAlign=middle;shape=mxgraph.arrows2.arrow;dy=0.48;dx=22.56;notch=0;fillColor=#118ED3;strokeColor=none;opacity=40;" vertex="1" parent="1">
          <mxGeometry x="1405.0800000000002" y="3690.01" width="42.52" height="20" as="geometry" />
        </mxCell>
        <mxCell id="VGcXp5rNp3n3L62gUcXS-498" value="&lt;p style=&quot;language:zh-CN;line-height:150%;margin-top:0pt;margin-bottom:0pt;&lt;br/&gt;margin-left:0in;text-align:left;direction:ltr;unicode-bidi:embed;mso-line-break-override:&lt;br/&gt;none;word-break:normal;punctuation-wrap:hanging&quot;&gt;&lt;span&gt;Choose&lt;br&gt;the best item from the&amp;nbsp;&lt;/span&gt;&lt;span style=&quot;font-family: Aptos;&quot;&gt;can&lt;/span&gt;&lt;span style=&quot;font-family: Aptos; color: black;&quot;&gt;a&lt;/span&gt;&lt;span style=&quot;font-family: Aptos; color: black;&quot;&gt;didates&amp;nbsp;&lt;/span&gt;&lt;span style=&quot;font-family: Aptos; color: black;&quot;&gt;to&lt;br&gt;recommend for&amp;nbsp;&lt;/span&gt;&lt;/p&gt;&lt;p style=&quot;language:zh-CN;line-height:150%;margin-top:0pt;margin-bottom:0pt;&lt;br/&gt;margin-left:0in;text-align:left;direction:ltr;unicode-bidi:embed;mso-line-break-override:&lt;br/&gt;none;word-break:normal;punctuation-wrap:hanging&quot;&gt;&lt;span style=&quot;font-family: Aptos; font-style: italic;&quot;&gt;&lt;font style=&quot;color: rgb(192, 79, 21);&quot;&gt;&lt;b&gt;&amp;lt;user_1&amp;gt;&lt;/b&gt;&lt;/font&gt; &lt;/span&gt;&lt;span style=&quot;font-family: Aptos; color: rgb(74, 74, 74);&quot;&gt;?&lt;/span&gt;&lt;/p&gt;&lt;p style=&quot;language:zh-CN;line-height:150%;margin-top:0pt;margin-bottom:0pt;&lt;br/&gt;margin-left:0in;text-align:left;direction:ltr;unicode-bidi:embed;mso-line-break-override:&lt;br/&gt;none;word-break:normal;punctuation-wrap:hanging&quot;&gt;&lt;span style=&quot;font-weight: bold;&quot;&gt;&lt;font style=&quot;color: rgb(2, 136, 209);&quot;&gt;&lt;i&gt;&amp;lt;item_12&amp;gt;&lt;span style=&quot;mso-spacerun:yes&quot;&gt;&amp;nbsp; &amp;nbsp;&lt;/span&gt;&lt;/i&gt;&lt;/font&gt;&lt;/span&gt;&lt;/p&gt;&lt;p style=&quot;language:zh-CN;line-height:150%;margin-top:0pt;margin-bottom:0pt;&lt;br/&gt;margin-left:0in;text-align:left;direction:ltr;unicode-bidi:embed;mso-line-break-override:&lt;br/&gt;none;word-break:normal;punctuation-wrap:hanging&quot;&gt;&lt;span style=&quot;font-weight: bold;&quot;&gt;&lt;font style=&quot;color: rgb(2, 136, 209);&quot;&gt;&lt;i&gt;&amp;lt;item_3&amp;gt;&lt;span style=&quot;mso-spacerun:yes&quot;&gt;&amp;nbsp;&amp;nbsp;&lt;/span&gt;&lt;/i&gt;&lt;/font&gt;&lt;/span&gt;&lt;/p&gt;&lt;p style=&quot;language:zh-CN;line-height:150%;margin-top:0pt;margin-bottom:0pt;&lt;br/&gt;margin-left:0in;text-align:left;direction:ltr;unicode-bidi:embed;mso-line-break-override:&lt;br/&gt;none;word-break:normal;punctuation-wrap:hanging&quot;&gt;&lt;span style=&quot;font-weight: bold;&quot;&gt;&lt;font style=&quot;color: rgb(2, 136, 209);&quot;&gt;&lt;i&gt;&amp;lt;item_4&amp;gt;&lt;/i&gt;&lt;/font&gt;&lt;/span&gt;&lt;/p&gt;" style="text;whiteSpace=wrap;html=1;fontSize=15;" vertex="1" parent="1">
          <mxGeometry x="1688.6" y="3648.25" width="144.48" height="187.02" as="geometry" />
        </mxCell>
        <mxCell id="VGcXp5rNp3n3L62gUcXS-499" value="" style="rounded=1;whiteSpace=wrap;html=1;fillColor=#81D4FA;strokeColor=none;" vertex="1" parent="1">
          <mxGeometry x="2219.1000000000004" y="3620.26" width="50" height="271.81" as="geometry" />
        </mxCell>
        <mxCell id="VGcXp5rNp3n3L62gUcXS-500" value="&lt;p style=&quot;language:zh-CN;margin-top:0pt;margin-bottom:0pt;margin-left:0in;&lt;br/&gt;text-align:left;direction:ltr;unicode-bidi:embed;mso-line-break-override:none;&lt;br/&gt;word-break:normal;punctuation-wrap:hanging&quot;&gt;&lt;span style=&quot;color: black; font-weight: bold;&quot;&gt;&lt;font face=&quot;Times New Roman&quot;&gt;Large Language Model&lt;/font&gt;&lt;/span&gt;&lt;/p&gt;" style="text;whiteSpace=wrap;html=1;textDirection=vertical-lr;direction=south;fontSize=23;" vertex="1" parent="1">
          <mxGeometry x="2227.1000000000004" y="3639.1800000000003" width="25" height="241.08" as="geometry" />
        </mxCell>
        <mxCell id="VGcXp5rNp3n3L62gUcXS-501" value="" style="html=1;shadow=0;dashed=0;align=center;verticalAlign=middle;shape=mxgraph.arrows2.arrow;dy=0.48;dx=22.56;notch=0;fillColor=#D1DBCF;strokeColor=none;" vertex="1" parent="1">
          <mxGeometry x="2287.79" y="3740.48" width="44.43" height="23.11" as="geometry" />
        </mxCell>
        <mxCell id="VGcXp5rNp3n3L62gUcXS-502" value="" style="shape=image;verticalLabelPosition=bottom;labelBackgroundColor=default;verticalAlign=top;aspect=fixed;imageAspect=0;editableCssRules=.*;image=data:image/svg+xml,PHN2ZyB4bWxuczp4bGluaz0iaHR0cDovL3d3dy53My5vcmcvMTk5OS94bGluayIgeG1sbnM9Imh0dHA6Ly93d3cudzMub3JnLzIwMDAvc3ZnIiBoZWlnaHQ9IjE5OS45OTQ1NDAyMTQ1Mzg1NyIgd2lkdGg9IjIwMC4wMDMwNTE3NTc4MTI1IiB2ZXJzaW9uPSIxLjEiIHZpZXdCb3g9IjAgMC4wMjc4NTM1MDM4MjMyODAzMzQgMTAyNC4wMTU2MjUgMTAyMy45NzIwNDU4OTg0Mzc1IiBjbGFzcz0iaWNvbiI+PHBhdGggZmlsbD0iIzJFMkEyQSIgZD0iTTEwMjMuOTk1MjkgMzQ0LjE2NDgxN3Y1ODQuODQ0NjdhNzkuNDgyNTE0IDc5LjQ4MjUxNCAwIDAgMS04LjkzOTQ3OSAzOC40NjEyNjMgMTIwLjA0Mjk2OCAxMjAuMDQyOTY4IDAgMCAxLTE5LjgzNDc4OSAyNy40OTQyNzMgOTcuNTM1NTUxIDk3LjUzNTU1MSAwIDAgMS0zMi4yNTU4NTIgMjIuNTI3ODk3IDg5LjgzNTEwNyA4OS44MzUxMDcgMCAwIDEtMzMuMjY5NjA3IDYuNTAyMzdIODcuMzk3OTk4YTgzLjk2NzYxNCA4My45Njc2MTQgMCAwIDEtNjIuNTU1ODcyLTI2Ljk4MjI3NkE5MS4yNDgyMiA5MS4yNDgyMiAwIDAgMSAwIDkzNi4wMzQwOTR2LTU5MS44NjkyNzdsOTQuMzcxNDA2LTI5Mi44NjI2NTNhMTIwLjQ3MzA0NiAxMjAuNDczMDQ2IDAgMCAxIDIyLjgxNDYxNS0yNS41MTc5NjNxMjIuODg2Mjk1LTIyLjUyNzg5NiA3MS40ODUxMTEtMjUuNTE3OTYyaDY0Ni41ODEzNDZjMy4zMzgyMjUtMS4zMjA5NTQgMTcuNDA3OTIgMi44NDY3MDcgNDIuMjA5MDg2IDEyLjUwMjk4MnM0Mi4yMDkwODYgMzIuMTczOTMyIDUyLjE2MjMyIDY3LjQ4MTI5eiBtLTEyMy4xNDU2NzQtNzIuOTY5OTA0TDg0Mi4yMjU4ODYgOTUuMjgyNzYySDE3NC43OTU5OTZsLTUxLjY3MDgwMiAxNzUuOTEyMTUxek03MDYuNjU5MTQ5IDcxMS41NjQwODdhODIuMTI0NDIyIDgyLjEyNDQyMiAwIDAgMCAwLTEwNi4wMTQyMzMgNzQuNzUxNjU2IDc0Ljc1MTY1NiAwIDAgMC01My4xMDQzOTUtMjAuNDc5OTA1SDM2My41Mzg4MDhhNzQuODQzODE2IDc0Ljg0MzgxNiAwIDAgMC01My4xMDQzOTYgMjAuNDc5OTA1IDcyLjYxMTUwNiA3Mi42MTE1MDYgMCAwIDAgNTMuMTA0Mzk2IDEyNS41NDE4MjNoMjkwLjAxNTk0NmE3MS44MzMyNyA3MS44MzMyNyAwIDAgMCA1My4xMDQzOTUtMTkuNTE3MzV6Ii8+PC9zdmc+;" vertex="1" parent="1">
          <mxGeometry x="2358.9700000000003" y="3704.4100000000003" width="50.63" height="50.63" as="geometry" />
        </mxCell>
        <mxCell id="VGcXp5rNp3n3L62gUcXS-503" value="&lt;p style=&quot;language:zh-CN;margin-top:0pt;margin-bottom:0pt;margin-left:0in;&lt;br/&gt;text-align:left;direction:ltr;unicode-bidi:embed;mso-line-break-override:none;&lt;br/&gt;word-break:normal;punctuation-wrap:hanging&quot;&gt;&lt;span style=&quot;color: black; font-weight: bold;&quot;&gt;&lt;font style=&quot;font-size: 19px;&quot;&gt;Next Item&lt;/font&gt;&lt;/span&gt;&lt;/p&gt;" style="text;whiteSpace=wrap;html=1;" vertex="1" parent="1">
          <mxGeometry x="2341.4700000000003" y="3771.42" width="110" height="40" as="geometry" />
        </mxCell>
        <mxCell id="VGcXp5rNp3n3L62gUcXS-504" value="" style="html=1;strokeWidth=2;shape=manualInput;whiteSpace=wrap;rounded=1;size=13;arcSize=0;fillColor=#A9A9A9;strokeColor=none;opacity=50;shadow=0;" vertex="1" parent="1">
          <mxGeometry x="1031.3799999999999" y="3580.26" width="250" height="40" as="geometry" />
        </mxCell>
        <mxCell id="VGcXp5rNp3n3L62gUcXS-505" value="&lt;p style=&quot;language:zh-CN;margin-top:0pt;margin-bottom:0pt;margin-left:0in;&lt;br/&gt;text-align:left;direction:ltr;unicode-bidi:embed;mso-line-break-override:none;&lt;br/&gt;word-break:normal;punctuation-wrap:hanging&quot;&gt;&lt;span style=&quot;font-size: 16px;&quot;&gt;&lt;b&gt;Graph Preference Learning&lt;/b&gt;&lt;/span&gt;&lt;/p&gt;" style="text;whiteSpace=wrap;html=1;shadow=0;" vertex="1" parent="1">
          <mxGeometry x="1031.3799999999999" y="3590.26" width="250" height="30" as="geometry" />
        </mxCell>
        <mxCell id="VGcXp5rNp3n3L62gUcXS-506" value="&lt;p style=&quot;language:zh-CN;margin-top:0pt;margin-bottom:0pt;margin-left:0in;&lt;br/&gt;text-align:left;direction:ltr;unicode-bidi:embed;mso-line-break-override:none;&lt;br/&gt;word-break:normal;punctuation-wrap:hanging&quot;&gt;&lt;span style=&quot;color: black; font-weight: bold;&quot;&gt;Step2: Item Feature Generation&lt;/span&gt;&lt;/p&gt;" style="text;whiteSpace=wrap;html=1;shadow=0;fontSize=18;" vertex="1" parent="1">
          <mxGeometry x="588.62" y="3093.69" width="292.65" height="25" as="geometry" />
        </mxCell>
        <mxCell id="VGcXp5rNp3n3L62gUcXS-507" value="&lt;p style=&quot;language:zh-CN;margin-top:0pt;margin-bottom:0pt;margin-left:0in;&lt;br/&gt;text-align:left;direction:ltr;unicode-bidi:embed;mso-line-break-override:none;&lt;br/&gt;word-break:normal;punctuation-wrap:hanging&quot;&gt;&lt;span style=&quot;color: black; font-weight: bold;&quot;&gt;Step4: User Interest and Preference Generation&lt;/span&gt;&lt;/p&gt;" style="text;whiteSpace=wrap;html=1;shadow=0;fontSize=18;" vertex="1" parent="1">
          <mxGeometry x="510.64" y="3531.0800000000004" width="412.74" height="25" as="geometry" />
        </mxCell>
        <mxCell id="VGcXp5rNp3n3L62gUcXS-508" value="" style="ellipse;whiteSpace=wrap;html=1;aspect=fixed;fillColor=light-dark(#EAF7E0,#EDEDED);strokeWidth=1;shadow=1;" vertex="1" parent="1">
          <mxGeometry x="2270.79" y="3378.25" width="12.5" height="12.5" as="geometry" />
        </mxCell>
        <mxCell id="VGcXp5rNp3n3L62gUcXS-509" value="" style="ellipse;whiteSpace=wrap;html=1;aspect=fixed;fillColor=light-dark(#EAF7E0,#EDEDED);strokeWidth=1;shadow=1;" vertex="1" parent="1">
          <mxGeometry x="2281.39" y="3478.25" width="12.5" height="12.5" as="geometry" />
        </mxCell>
        <mxCell id="VGcXp5rNp3n3L62gUcXS-510" value="" style="ellipse;whiteSpace=wrap;html=1;aspect=fixed;fillColor=light-dark(#EAF7E0,#EDEDED);strokeWidth=1;shadow=1;" vertex="1" parent="1">
          <mxGeometry x="2285.6" y="3394" width="12.5" height="12.5" as="geometry" />
        </mxCell>
        <mxCell id="VGcXp5rNp3n3L62gUcXS-511" value="" style="ellipse;whiteSpace=wrap;html=1;aspect=fixed;fillColor=light-dark(#EAF7E0,#EDEDED);strokeWidth=1;shadow=1;" vertex="1" parent="1">
          <mxGeometry x="2293.12" y="3488.75" width="12.5" height="12.5" as="geometry" />
        </mxCell>
        <mxCell id="VGcXp5rNp3n3L62gUcXS-512" value="" style="ellipse;whiteSpace=wrap;html=1;aspect=fixed;fillColor=light-dark(#EAF7E0,#EDEDED);strokeWidth=1;shadow=1;" vertex="1" parent="1">
          <mxGeometry x="2291.95" y="3375.25" width="12.5" height="12.5" as="geometry" />
        </mxCell>
        <mxCell id="VGcXp5rNp3n3L62gUcXS-513" value="" style="ellipse;whiteSpace=wrap;html=1;aspect=fixed;fillColor=light-dark(#EAF7E0,#EDEDED);strokeWidth=1;shadow=1;" vertex="1" parent="1">
          <mxGeometry x="2301.0899999999997" y="3469.25" width="12.5" height="12.5" as="geometry" />
        </mxCell>
        <mxCell id="VGcXp5rNp3n3L62gUcXS-514" value="" style="ellipse;whiteSpace=wrap;html=1;aspect=fixed;fillColor=light-dark(#EAF7E0,#EDEDED);strokeWidth=1;shadow=1;" vertex="1" parent="1">
          <mxGeometry x="2350.01" y="3429.25" width="12.5" height="12.5" as="geometry" />
        </mxCell>
        <mxCell id="VGcXp5rNp3n3L62gUcXS-515" value="" style="ellipse;whiteSpace=wrap;html=1;aspect=fixed;fillColor=light-dark(#EAF7E0,#EDEDED);strokeWidth=1;shadow=1;" vertex="1" parent="1">
          <mxGeometry x="2341.3199999999997" y="3443" width="12.5" height="12.5" as="geometry" />
        </mxCell>
        <mxCell id="VGcXp5rNp3n3L62gUcXS-516" value="" style="ellipse;whiteSpace=wrap;html=1;aspect=fixed;fillColor=light-dark(#EAF7E0,#EDEDED);strokeWidth=1;shadow=1;" vertex="1" parent="1">
          <mxGeometry x="2233.62" y="3422.9399999999996" width="12.5" height="12.5" as="geometry" />
        </mxCell>
        <mxCell id="VGcXp5rNp3n3L62gUcXS-517" value="" style="ellipse;whiteSpace=wrap;html=1;aspect=fixed;fillColor=light-dark(#EAF7E0,#EDEDED);strokeWidth=1;shadow=1;" vertex="1" parent="1">
          <mxGeometry x="2255.19" y="3431.6899999999996" width="12.5" height="12.5" as="geometry" />
        </mxCell>
        <mxCell id="VGcXp5rNp3n3L62gUcXS-518" value="" style="ellipse;whiteSpace=wrap;html=1;aspect=fixed;fillColor=light-dark(#EAF7E0,#EDEDED);strokeWidth=1;shadow=1;" vertex="1" parent="1">
          <mxGeometry x="2254.97" y="3412.1899999999996" width="12.5" height="12.5" as="geometry" />
        </mxCell>
        <mxCell id="VGcXp5rNp3n3L62gUcXS-519" value="" style="ellipse;whiteSpace=wrap;html=1;aspect=fixed;fillColor=none;strokeColor=#042433;dashed=1;" vertex="1" parent="1">
          <mxGeometry x="2333.92" y="3425.38" width="31.75" height="31.75" as="geometry" />
        </mxCell>
        <mxCell id="VGcXp5rNp3n3L62gUcXS-520" value="" style="ellipse;whiteSpace=wrap;html=1;aspect=fixed;fillColor=light-dark(#EAF7E0,#EDEDED);strokeWidth=1;shadow=1;" vertex="1" parent="1">
          <mxGeometry x="2241.27" y="3442.4399999999996" width="12.5" height="12.5" as="geometry" />
        </mxCell>
        <mxCell id="VGcXp5rNp3n3L62gUcXS-521" value="" style="ellipse;whiteSpace=wrap;html=1;aspect=fixed;fillColor=none;strokeColor=#042433;dashed=1;" vertex="1" parent="1">
          <mxGeometry x="2231.39" y="3411.4399999999996" width="48.12" height="48.12" as="geometry" />
        </mxCell>
        <mxCell id="VGcXp5rNp3n3L62gUcXS-522" value="" style="ellipse;whiteSpace=wrap;html=1;aspect=fixed;fillColor=none;strokeColor=#042433;dashed=1;" vertex="1" parent="1">
          <mxGeometry x="2281.39" y="3464.75" width="36.5" height="36.5" as="geometry" />
        </mxCell>
        <mxCell id="VGcXp5rNp3n3L62gUcXS-523" value="" style="ellipse;whiteSpace=wrap;html=1;aspect=fixed;fillColor=light-dark(#EAF7E0,#EDEDED);strokeWidth=1;shadow=1;" vertex="1" parent="1">
          <mxGeometry x="2305.3199999999997" y="3421.749999999999" width="12.5" height="12.5" as="geometry" />
        </mxCell>
        <mxCell id="VGcXp5rNp3n3L62gUcXS-524" value="" style="ellipse;whiteSpace=wrap;html=1;aspect=fixed;fillColor=light-dark(#EAF7E0,#EDEDED);strokeWidth=1;shadow=1;" vertex="1" parent="1">
          <mxGeometry x="2301.0099999999998" y="3439.999999999999" width="12.5" height="12.5" as="geometry" />
        </mxCell>
        <mxCell id="VGcXp5rNp3n3L62gUcXS-525" value="" style="ellipse;whiteSpace=wrap;html=1;aspect=fixed;fillColor=none;strokeColor=#042433;dashed=1;" vertex="1" parent="1">
          <mxGeometry x="2322.49" y="3387.75" width="23" height="23" as="geometry" />
        </mxCell>
        <mxCell id="VGcXp5rNp3n3L62gUcXS-526" value="" style="ellipse;whiteSpace=wrap;html=1;aspect=fixed;fillColor=light-dark(#EAF7E0,#EDEDED);strokeWidth=1;shadow=1;" vertex="1" parent="1">
          <mxGeometry x="2328.8199999999997" y="3390.75" width="12.5" height="12.5" as="geometry" />
        </mxCell>
        <mxCell id="VGcXp5rNp3n3L62gUcXS-527" value="" style="endArrow=classic;startArrow=classic;html=1;rounded=0;exitX=1;exitY=0.5;exitDx=0;exitDy=0;entryX=0.048;entryY=0.261;entryDx=0;entryDy=0;entryPerimeter=0;" edge="1" parent="1" source="VGcXp5rNp3n3L62gUcXS-429" target="VGcXp5rNp3n3L62gUcXS-521">
          <mxGeometry width="50" height="50" relative="1" as="geometry">
            <mxPoint x="2006.44" y="3395.75" as="sourcePoint" />
            <mxPoint x="2027.44" y="3254.75" as="targetPoint" />
          </mxGeometry>
        </mxCell>
        <mxCell id="VGcXp5rNp3n3L62gUcXS-528" value="" style="endArrow=classic;startArrow=classic;html=1;rounded=0;exitX=1;exitY=0.5;exitDx=0;exitDy=0;entryX=0;entryY=0.5;entryDx=0;entryDy=0;dashed=1;" edge="1" parent="1" source="VGcXp5rNp3n3L62gUcXS-428" target="VGcXp5rNp3n3L62gUcXS-521">
          <mxGeometry width="50" height="50" relative="1" as="geometry">
            <mxPoint x="2081.7" y="3433.75" as="sourcePoint" />
            <mxPoint x="2041.6999999999998" y="3262.75" as="targetPoint" />
          </mxGeometry>
        </mxCell>
        <mxCell id="VGcXp5rNp3n3L62gUcXS-529" value="&lt;p style=&quot;language:zh-CN;margin-top:0pt;margin-bottom:0pt;margin-left:0in;&lt;br/&gt;text-align:left;direction:ltr;unicode-bidi:embed;mso-line-break-override:none;&lt;br/&gt;word-break:normal;punctuation-wrap:hanging&quot;&gt;&lt;font style=&quot;font-size: 11px;&quot;&gt;&lt;i&gt;&lt;b&gt;Whole-word Embedding of User History Items&lt;/b&gt;&lt;/i&gt;&lt;/font&gt;&lt;/p&gt;" style="text;whiteSpace=wrap;html=1;shadow=0;fontSize=10;" vertex="1" parent="1">
          <mxGeometry x="2231.91" y="3307.63" width="185.69" height="33.12" as="geometry" />
        </mxCell>
        <mxCell id="VGcXp5rNp3n3L62gUcXS-530" value="" style="endArrow=classic;startArrow=classic;html=1;rounded=0;endSize=5;dashed=1;" edge="1" parent="1">
          <mxGeometry width="50" height="50" relative="1" as="geometry">
            <mxPoint x="2216.29" y="3216.38" as="sourcePoint" />
            <mxPoint x="2166.29" y="3216.38" as="targetPoint" />
          </mxGeometry>
        </mxCell>
        <mxCell id="VGcXp5rNp3n3L62gUcXS-531" style="rounded=0;orthogonalLoop=1;jettySize=auto;html=1;exitX=1;exitY=0.5;exitDx=0;exitDy=0;entryX=-0.023;entryY=0.596;entryDx=0;entryDy=0;entryPerimeter=0;strokeColor=light-dark(#c04f15, #ededed);" edge="1" parent="1" source="VGcXp5rNp3n3L62gUcXS-486" target="VGcXp5rNp3n3L62gUcXS-498">
          <mxGeometry relative="1" as="geometry" />
        </mxCell>
        <mxCell id="VGcXp5rNp3n3L62gUcXS-532" style="rounded=0;orthogonalLoop=1;jettySize=auto;html=1;strokeColor=light-dark(#0288d1, #ededed);entryX=-0.009;entryY=0.707;entryDx=0;entryDy=0;entryPerimeter=0;" edge="1" parent="1" target="VGcXp5rNp3n3L62gUcXS-498">
          <mxGeometry relative="1" as="geometry">
            <mxPoint x="1708.51" y="3788.13" as="targetPoint" />
            <mxPoint x="1588.51" y="3756.13" as="sourcePoint" />
          </mxGeometry>
        </mxCell>
        <mxCell id="VGcXp5rNp3n3L62gUcXS-533" style="rounded=0;orthogonalLoop=1;jettySize=auto;html=1;exitX=1;exitY=0.5;exitDx=0;exitDy=0;entryX=-0.01;entryY=0.841;entryDx=0;entryDy=0;entryPerimeter=0;strokeColor=light-dark(#0288d1, #ededed);" edge="1" parent="1" source="VGcXp5rNp3n3L62gUcXS-484" target="VGcXp5rNp3n3L62gUcXS-498">
          <mxGeometry relative="1" as="geometry">
            <mxPoint x="1592.51" y="3808.13" as="sourcePoint" />
            <mxPoint x="1708.51" y="3828.13" as="targetPoint" />
          </mxGeometry>
        </mxCell>
        <mxCell id="VGcXp5rNp3n3L62gUcXS-534" value="&lt;span&gt;$$\omega_0$$&lt;/span&gt;" style="rounded=1;whiteSpace=wrap;html=1;fillColor=#81D4FA;opacity=40;fontSize=11;" vertex="1" parent="1">
          <mxGeometry x="1885.31" y="3661.57" width="27" height="21" as="geometry" />
        </mxCell>
        <mxCell id="VGcXp5rNp3n3L62gUcXS-535" value="&lt;span&gt;$$\Psi_1$$&lt;/span&gt;" style="rounded=1;whiteSpace=wrap;html=1;fillColor=#C04F15;opacity=20;fontSize=11;" vertex="1" parent="1">
          <mxGeometry x="1885.6099999999997" y="3704.9500000000003" width="27" height="21" as="geometry" />
        </mxCell>
        <mxCell id="VGcXp5rNp3n3L62gUcXS-536" value="&lt;span&gt;$$\Psi_1$$&lt;/span&gt;" style="rounded=1;whiteSpace=wrap;html=1;fillColor=#C04F15;opacity=20;fontSize=11;" vertex="1" parent="1">
          <mxGeometry x="1920.56" y="3705.9500000000003" width="27" height="21" as="geometry" />
        </mxCell>
        <mxCell id="VGcXp5rNp3n3L62gUcXS-537" value="&lt;span&gt;$$\Psi_1$$&lt;/span&gt;" style="rounded=1;whiteSpace=wrap;html=1;fillColor=#C04F15;opacity=20;fontSize=11;" vertex="1" parent="1">
          <mxGeometry x="1960.2999999999997" y="3705.2600000000007" width="27" height="21" as="geometry" />
        </mxCell>
        <mxCell id="VGcXp5rNp3n3L62gUcXS-538" value="&lt;span&gt;$$\psi_{12}$$&lt;/span&gt;" style="rounded=1;whiteSpace=wrap;html=1;fillColor=#81D4FA;opacity=20;fontSize=11;" vertex="1" parent="1">
          <mxGeometry x="1885.6099999999997" y="3741.4100000000003" width="27" height="21" as="geometry" />
        </mxCell>
        <mxCell id="VGcXp5rNp3n3L62gUcXS-539" value="&lt;span&gt;$$\omega_0$$&lt;/span&gt;" style="rounded=1;whiteSpace=wrap;html=1;fillColor=#81D4FA;opacity=40;fontSize=11;" vertex="1" parent="1">
          <mxGeometry x="1920.2599999999998" y="3661.57" width="27" height="21" as="geometry" />
        </mxCell>
        <mxCell id="VGcXp5rNp3n3L62gUcXS-540" value="&lt;span&gt;$$\omega_0$$&lt;/span&gt;" style="rounded=1;whiteSpace=wrap;html=1;fillColor=#81D4FA;opacity=40;fontSize=11;" vertex="1" parent="1">
          <mxGeometry x="1959.9999999999995" y="3661.57" width="27" height="21" as="geometry" />
        </mxCell>
        <mxCell id="VGcXp5rNp3n3L62gUcXS-541" value="&lt;p style=&quot;language:zh-CN;margin-top:0pt;margin-bottom:0pt;margin-left:0in;&lt;br/&gt;text-align:left;direction:ltr;unicode-bidi:embed;mso-line-break-override:none;&lt;br/&gt;word-break:normal;punctuation-wrap:hanging&quot;&gt;&lt;span style=&quot;color: black; font-weight: bold; font-style: italic;&quot;&gt;&lt;font&gt;.&lt;/font&gt;&lt;/span&gt;&lt;/p&gt;" style="text;whiteSpace=wrap;html=1;shadow=0;movable=1;resizable=1;rotatable=1;deletable=1;editable=1;locked=0;connectable=1;fontSize=11;" vertex="1" parent="1">
          <mxGeometry x="1927.5" y="3677.73" width="20" height="30" as="geometry" />
        </mxCell>
        <mxCell id="VGcXp5rNp3n3L62gUcXS-542" value="&lt;p style=&quot;language:zh-CN;margin-top:0pt;margin-bottom:0pt;margin-left:0in;&lt;br/&gt;text-align:left;direction:ltr;unicode-bidi:embed;mso-line-break-override:none;&lt;br/&gt;word-break:normal;punctuation-wrap:hanging&quot;&gt;&lt;span style=&quot;color: black; font-weight: bold; font-style: italic;&quot;&gt;&lt;font&gt;.&lt;/font&gt;&lt;/span&gt;&lt;/p&gt;" style="text;whiteSpace=wrap;html=1;shadow=0;movable=1;resizable=1;rotatable=1;deletable=1;editable=1;locked=0;connectable=1;fontSize=11;" vertex="1" parent="1">
          <mxGeometry x="1940" y="3677.73" width="20" height="30" as="geometry" />
        </mxCell>
        <mxCell id="VGcXp5rNp3n3L62gUcXS-543" value="&lt;p style=&quot;language:zh-CN;margin-top:0pt;margin-bottom:0pt;margin-left:0in;&lt;br/&gt;text-align:left;direction:ltr;unicode-bidi:embed;mso-line-break-override:none;&lt;br/&gt;word-break:normal;punctuation-wrap:hanging&quot;&gt;&lt;span style=&quot;color: black; font-weight: bold; font-style: italic;&quot;&gt;&lt;font&gt;.&lt;/font&gt;&lt;/span&gt;&lt;/p&gt;" style="text;whiteSpace=wrap;html=1;shadow=0;movable=1;resizable=1;rotatable=1;deletable=1;editable=1;locked=0;connectable=1;fontSize=11;" vertex="1" parent="1">
          <mxGeometry x="1951" y="3677.73" width="20" height="30" as="geometry" />
        </mxCell>
        <mxCell id="VGcXp5rNp3n3L62gUcXS-544" value="&lt;p style=&quot;language:zh-CN;margin-top:0pt;margin-bottom:0pt;margin-left:0in;&lt;br/&gt;text-align:left;direction:ltr;unicode-bidi:embed;mso-line-break-override:none;&lt;br/&gt;word-break:normal;punctuation-wrap:hanging&quot;&gt;&lt;span style=&quot;color: black; font-weight: bold; font-style: italic;&quot;&gt;&lt;font&gt;.&lt;/font&gt;&lt;/span&gt;&lt;/p&gt;" style="text;whiteSpace=wrap;html=1;shadow=0;movable=1;resizable=1;rotatable=1;deletable=1;editable=1;locked=0;connectable=1;fontSize=11;" vertex="1" parent="1">
          <mxGeometry x="1925.4199999999996" y="3819.9700000000003" width="20" height="30" as="geometry" />
        </mxCell>
        <mxCell id="VGcXp5rNp3n3L62gUcXS-545" value="&lt;p style=&quot;language:zh-CN;margin-top:0pt;margin-bottom:0pt;margin-left:0in;&lt;br/&gt;text-align:left;direction:ltr;unicode-bidi:embed;mso-line-break-override:none;&lt;br/&gt;word-break:normal;punctuation-wrap:hanging&quot;&gt;&lt;span style=&quot;color: black; font-weight: bold; font-style: italic;&quot;&gt;&lt;font&gt;.&lt;/font&gt;&lt;/span&gt;&lt;/p&gt;" style="text;whiteSpace=wrap;html=1;shadow=0;movable=1;resizable=1;rotatable=1;deletable=1;editable=1;locked=0;connectable=1;fontSize=11;" vertex="1" parent="1">
          <mxGeometry x="1937.9199999999996" y="3819.9700000000003" width="20" height="30" as="geometry" />
        </mxCell>
        <mxCell id="VGcXp5rNp3n3L62gUcXS-546" value="&lt;p style=&quot;language:zh-CN;margin-top:0pt;margin-bottom:0pt;margin-left:0in;&lt;br/&gt;text-align:left;direction:ltr;unicode-bidi:embed;mso-line-break-override:none;&lt;br/&gt;word-break:normal;punctuation-wrap:hanging&quot;&gt;&lt;span style=&quot;color: black; font-weight: bold; font-style: italic;&quot;&gt;&lt;font&gt;.&lt;/font&gt;&lt;/span&gt;&lt;/p&gt;" style="text;whiteSpace=wrap;html=1;shadow=0;movable=1;resizable=1;rotatable=1;deletable=1;editable=1;locked=0;connectable=1;fontSize=11;" vertex="1" parent="1">
          <mxGeometry x="1948.9199999999996" y="3819.9700000000003" width="20" height="30" as="geometry" />
        </mxCell>
        <mxCell id="VGcXp5rNp3n3L62gUcXS-547" value="&lt;span&gt;$$\psi_{12}$$&lt;/span&gt;" style="rounded=1;whiteSpace=wrap;html=1;fillColor=#81D4FA;opacity=20;fontSize=11;" vertex="1" parent="1">
          <mxGeometry x="1920.56" y="3740.6600000000003" width="27" height="21" as="geometry" />
        </mxCell>
        <mxCell id="VGcXp5rNp3n3L62gUcXS-548" value="&lt;span&gt;$$\psi_{12}$$&lt;/span&gt;" style="rounded=1;whiteSpace=wrap;html=1;fillColor=#81D4FA;opacity=20;fontSize=11;" vertex="1" parent="1">
          <mxGeometry x="1960.2999999999997" y="3740.6600000000003" width="27" height="21" as="geometry" />
        </mxCell>
        <mxCell id="VGcXp5rNp3n3L62gUcXS-549" value="&lt;span&gt;$$\psi_{3}$$&lt;/span&gt;" style="rounded=1;whiteSpace=wrap;html=1;fillColor=#81D4FA;opacity=20;fontSize=11;" vertex="1" parent="1">
          <mxGeometry x="1885.9799999999996" y="3774" width="27" height="21" as="geometry" />
        </mxCell>
        <mxCell id="VGcXp5rNp3n3L62gUcXS-550" value="&lt;span&gt;$$\psi_{3}$$&lt;/span&gt;" style="rounded=1;whiteSpace=wrap;html=1;fillColor=#81D4FA;opacity=20;fontSize=11;" vertex="1" parent="1">
          <mxGeometry x="1920.9299999999998" y="3773.25" width="27" height="21" as="geometry" />
        </mxCell>
        <mxCell id="VGcXp5rNp3n3L62gUcXS-551" value="&lt;span&gt;$$\psi_{3}$$&lt;/span&gt;" style="rounded=1;whiteSpace=wrap;html=1;fillColor=#81D4FA;opacity=20;fontSize=11;" vertex="1" parent="1">
          <mxGeometry x="1960.6699999999996" y="3773.25" width="27" height="21" as="geometry" />
        </mxCell>
        <mxCell id="VGcXp5rNp3n3L62gUcXS-552" value="&lt;span&gt;$$\psi_{4}$$&lt;/span&gt;" style="rounded=1;whiteSpace=wrap;html=1;fillColor=#81D4FA;opacity=20;fontSize=11;" vertex="1" parent="1">
          <mxGeometry x="1885.9799999999996" y="3808.3900000000003" width="27" height="21" as="geometry" />
        </mxCell>
        <mxCell id="VGcXp5rNp3n3L62gUcXS-553" value="&lt;span&gt;$$\psi_{4}$$&lt;/span&gt;" style="rounded=1;whiteSpace=wrap;html=1;fillColor=#81D4FA;opacity=20;fontSize=11;" vertex="1" parent="1">
          <mxGeometry x="1920.9299999999998" y="3807.6400000000003" width="27" height="21" as="geometry" />
        </mxCell>
        <mxCell id="VGcXp5rNp3n3L62gUcXS-554" value="&lt;span&gt;$$\psi_{4}$$&lt;/span&gt;" style="rounded=1;whiteSpace=wrap;html=1;fillColor=#81D4FA;opacity=20;fontSize=11;" vertex="1" parent="1">
          <mxGeometry x="1960.6699999999996" y="3807.6400000000003" width="27" height="21" as="geometry" />
        </mxCell>
        <mxCell id="VGcXp5rNp3n3L62gUcXS-555" value="&lt;b&gt;&lt;i&gt;Token Embeddings&lt;/i&gt;&lt;/b&gt;" style="text;whiteSpace=wrap;html=1;shadow=0;fontSize=11;" vertex="1" parent="1">
          <mxGeometry x="2039.0900000000001" y="3847.5600000000004" width="108.54" height="22.33" as="geometry" />
        </mxCell>
        <mxCell id="VGcXp5rNp3n3L62gUcXS-556" value="&lt;b&gt;&lt;i&gt;Whole-word Embedding&lt;/i&gt;&lt;/b&gt;" style="text;whiteSpace=wrap;html=1;shadow=0;fontSize=11;align=center;" vertex="1" parent="1">
          <mxGeometry x="1875.71" y="3847.5600000000004" width="133.6" height="27.14" as="geometry" />
        </mxCell>
        <mxCell id="VGcXp5rNp3n3L62gUcXS-557" value="&lt;p style=&quot;language:zh-CN;margin-top:0pt;margin-bottom:0pt;margin-left:0in;&lt;br/&gt;text-align:left;direction:ltr;unicode-bidi:embed;mso-line-break-override:none;&lt;br/&gt;word-break:normal;punctuation-wrap:hanging&quot;&gt;&lt;span style=&quot;color: black; font-weight: bold; font-style: italic;&quot;&gt;&lt;font&gt;.&lt;/font&gt;&lt;/span&gt;&lt;/p&gt;" style="text;whiteSpace=wrap;html=1;shadow=0;movable=1;resizable=1;rotatable=1;deletable=1;editable=1;locked=0;connectable=1;fontSize=11;" vertex="1" parent="1">
          <mxGeometry x="2085.37" y="3819.9700000000003" width="20" height="30" as="geometry" />
        </mxCell>
        <mxCell id="VGcXp5rNp3n3L62gUcXS-558" value="&lt;p style=&quot;language:zh-CN;margin-top:0pt;margin-bottom:0pt;margin-left:0in;&lt;br/&gt;text-align:left;direction:ltr;unicode-bidi:embed;mso-line-break-override:none;&lt;br/&gt;word-break:normal;punctuation-wrap:hanging&quot;&gt;&lt;span style=&quot;color: black; font-weight: bold; font-style: italic;&quot;&gt;&lt;font&gt;.&lt;/font&gt;&lt;/span&gt;&lt;/p&gt;" style="text;whiteSpace=wrap;html=1;shadow=0;movable=1;resizable=1;rotatable=1;deletable=1;editable=1;locked=0;connectable=1;fontSize=11;" vertex="1" parent="1">
          <mxGeometry x="2097.87" y="3819.9700000000003" width="20" height="30" as="geometry" />
        </mxCell>
        <mxCell id="VGcXp5rNp3n3L62gUcXS-559" value="&lt;p style=&quot;language:zh-CN;margin-top:0pt;margin-bottom:0pt;margin-left:0in;&lt;br/&gt;text-align:left;direction:ltr;unicode-bidi:embed;mso-line-break-override:none;&lt;br/&gt;word-break:normal;punctuation-wrap:hanging&quot;&gt;&lt;span style=&quot;color: black; font-weight: bold; font-style: italic;&quot;&gt;&lt;font&gt;.&lt;/font&gt;&lt;/span&gt;&lt;/p&gt;" style="text;whiteSpace=wrap;html=1;shadow=0;movable=1;resizable=1;rotatable=1;deletable=1;editable=1;locked=0;connectable=1;fontSize=11;" vertex="1" parent="1">
          <mxGeometry x="2108.87" y="3819.9700000000003" width="20" height="30" as="geometry" />
        </mxCell>
        <mxCell id="VGcXp5rNp3n3L62gUcXS-560" value="" style="shape=orEllipse;perimeter=ellipsePerimeter;whiteSpace=wrap;html=1;backgroundOutline=1;" vertex="1" parent="1">
          <mxGeometry x="2002.7000000000003" y="3741.4100000000003" width="24" height="24" as="geometry" />
        </mxCell>
        <mxCell id="VGcXp5rNp3n3L62gUcXS-561" value="&lt;span style=&quot;font-weight: 700; text-align: left;&quot;&gt;&amp;lt;P1&amp;gt;&lt;/span&gt;" style="rounded=1;whiteSpace=wrap;html=1;fillColor=#81D4FA;opacity=40;fontSize=11;" vertex="1" parent="1">
          <mxGeometry x="2043.17" y="3661.57" width="27" height="21" as="geometry" />
        </mxCell>
        <mxCell id="VGcXp5rNp3n3L62gUcXS-562" value="User" style="rounded=1;whiteSpace=wrap;html=1;fillColor=#C04F15;opacity=20;fontSize=11;fontStyle=1" vertex="1" parent="1">
          <mxGeometry x="2042.4500000000003" y="3703.9500000000003" width="27" height="21" as="geometry" />
        </mxCell>
        <mxCell id="VGcXp5rNp3n3L62gUcXS-563" value="_" style="rounded=1;whiteSpace=wrap;html=1;fillColor=#C04F15;opacity=20;fontSize=11;fontStyle=1" vertex="1" parent="1">
          <mxGeometry x="2078.34" y="3704.9500000000003" width="27" height="21" as="geometry" />
        </mxCell>
        <mxCell id="VGcXp5rNp3n3L62gUcXS-564" value="1" style="rounded=1;whiteSpace=wrap;html=1;fillColor=#C04F15;opacity=20;fontSize=11;fontStyle=1" vertex="1" parent="1">
          <mxGeometry x="2115.03" y="3704.6200000000003" width="27" height="21" as="geometry" />
        </mxCell>
        <mxCell id="VGcXp5rNp3n3L62gUcXS-565" value="Item" style="rounded=1;whiteSpace=wrap;html=1;fillColor=#EAF7E0;opacity=40;fontSize=11;fontStyle=1" vertex="1" parent="1">
          <mxGeometry x="2043.17" y="3740.0899999999997" width="27" height="21" as="geometry" />
        </mxCell>
        <mxCell id="VGcXp5rNp3n3L62gUcXS-566" value="_" style="rounded=1;whiteSpace=wrap;html=1;fillColor=#EAF7E0;opacity=40;fontSize=11;fontStyle=1" vertex="1" parent="1">
          <mxGeometry x="2078.97" y="3740.5800000000004" width="27" height="21" as="geometry" />
        </mxCell>
        <mxCell id="VGcXp5rNp3n3L62gUcXS-567" value="12" style="rounded=1;whiteSpace=wrap;html=1;fillColor=#EAF7E0;opacity=40;fontSize=11;fontStyle=1" vertex="1" parent="1">
          <mxGeometry x="2115.75" y="3741.2400000000002" width="27" height="21" as="geometry" />
        </mxCell>
        <mxCell id="VGcXp5rNp3n3L62gUcXS-568" value="&lt;span style=&quot;font-weight: 700; text-align: left;&quot;&gt;&amp;lt;P1&amp;gt;&lt;/span&gt;" style="rounded=1;whiteSpace=wrap;html=1;fillColor=#81D4FA;opacity=40;fontSize=11;" vertex="1" parent="1">
          <mxGeometry x="2079.01" y="3661.57" width="27" height="21" as="geometry" />
        </mxCell>
        <mxCell id="VGcXp5rNp3n3L62gUcXS-569" value="&lt;span style=&quot;font-weight: 700; text-align: left;&quot;&gt;&amp;lt;P1&amp;gt;&lt;/span&gt;" style="rounded=1;whiteSpace=wrap;html=1;fillColor=#81D4FA;opacity=40;fontSize=11;" vertex="1" parent="1">
          <mxGeometry x="2115.7500000000005" y="3662.23" width="27" height="21" as="geometry" />
        </mxCell>
        <mxCell id="VGcXp5rNp3n3L62gUcXS-570" value="Item" style="rounded=1;whiteSpace=wrap;html=1;fillColor=#EAF7E0;opacity=40;fontSize=11;fontStyle=1" vertex="1" parent="1">
          <mxGeometry x="2043.81" y="3774" width="27" height="21" as="geometry" />
        </mxCell>
        <mxCell id="VGcXp5rNp3n3L62gUcXS-571" value="_" style="rounded=1;whiteSpace=wrap;html=1;fillColor=#EAF7E0;opacity=40;fontSize=11;fontStyle=1" vertex="1" parent="1">
          <mxGeometry x="2079.61" y="3774.49" width="27" height="21" as="geometry" />
        </mxCell>
        <mxCell id="VGcXp5rNp3n3L62gUcXS-572" value="3" style="rounded=1;whiteSpace=wrap;html=1;fillColor=#EAF7E0;opacity=40;fontSize=11;fontStyle=1" vertex="1" parent="1">
          <mxGeometry x="2116.3900000000003" y="3775.1499999999996" width="27" height="21" as="geometry" />
        </mxCell>
        <mxCell id="VGcXp5rNp3n3L62gUcXS-573" value="Item" style="rounded=1;whiteSpace=wrap;html=1;fillColor=#EAF7E0;opacity=40;fontSize=11;fontStyle=1" vertex="1" parent="1">
          <mxGeometry x="2044.06" y="3806.49" width="27" height="21" as="geometry" />
        </mxCell>
        <mxCell id="VGcXp5rNp3n3L62gUcXS-574" value="_" style="rounded=1;whiteSpace=wrap;html=1;fillColor=#EAF7E0;opacity=40;fontSize=11;fontStyle=1" vertex="1" parent="1">
          <mxGeometry x="2079.86" y="3806.9799999999996" width="27" height="21" as="geometry" />
        </mxCell>
        <mxCell id="VGcXp5rNp3n3L62gUcXS-575" value="4" style="rounded=1;whiteSpace=wrap;html=1;fillColor=#EAF7E0;opacity=40;fontSize=11;fontStyle=1" vertex="1" parent="1">
          <mxGeometry x="2116.64" y="3807.6399999999994" width="27" height="21" as="geometry" />
        </mxCell>
        <mxCell id="VGcXp5rNp3n3L62gUcXS-576" value="" style="html=1;shadow=0;dashed=0;align=center;verticalAlign=middle;shape=mxgraph.arrows2.arrow;dy=0.57;dx=9.97;notch=0;fillColor=#747474;strokeColor=none;opacity=60;" vertex="1" parent="1">
          <mxGeometry x="1833.83" y="3818.62" width="32.04" height="12.84" as="geometry" />
        </mxCell>
        <mxCell id="VGcXp5rNp3n3L62gUcXS-577" value="" style="html=1;shadow=0;dashed=0;align=center;verticalAlign=middle;shape=mxgraph.arrows2.arrow;dy=0.57;dx=9.97;notch=0;fillColor=#747474;strokeColor=none;opacity=60;" vertex="1" parent="1">
          <mxGeometry x="1833.8300000000002" y="3774.1499999999996" width="32.04" height="12.84" as="geometry" />
        </mxCell>
        <mxCell id="VGcXp5rNp3n3L62gUcXS-578" value="" style="html=1;shadow=0;dashed=0;align=center;verticalAlign=middle;shape=mxgraph.arrows2.arrow;dy=0.57;dx=9.97;notch=0;fillColor=#747474;strokeColor=none;opacity=60;" vertex="1" parent="1">
          <mxGeometry x="1833.83" y="3726.6099999999997" width="32.04" height="12.84" as="geometry" />
        </mxCell>
        <mxCell id="VGcXp5rNp3n3L62gUcXS-579" value="" style="html=1;shadow=0;dashed=0;align=center;verticalAlign=middle;shape=mxgraph.arrows2.arrow;dy=0.57;dx=9.97;notch=0;fillColor=#747474;strokeColor=none;opacity=60;" vertex="1" parent="1">
          <mxGeometry x="1833.8300000000002" y="3683.2499999999995" width="32.04" height="12.84" as="geometry" />
        </mxCell>
        <mxCell id="VGcXp5rNp3n3L62gUcXS-580" value="" style="html=1;shadow=0;dashed=0;align=center;verticalAlign=middle;shape=mxgraph.arrows2.arrow;dy=0.48;dx=22.56;notch=0;fillColor=#81D4FA;strokeColor=none;" vertex="1" parent="1">
          <mxGeometry x="2160.4500000000003" y="3739.2500000000005" width="43.77" height="18" as="geometry" />
        </mxCell>
        <mxCell id="VGcXp5rNp3n3L62gUcXS-581" value="" style="ellipse;whiteSpace=wrap;html=1;aspect=fixed;fillColor=light-dark(#EAF7E0,#EDEDED);strokeWidth=1;shadow=1;" vertex="1" parent="1">
          <mxGeometry x="2167.25" y="3318.25" width="12.5" height="12.5" as="geometry" />
        </mxCell>
        <mxCell id="VGcXp5rNp3n3L62gUcXS-582" value="" style="ellipse;whiteSpace=wrap;html=1;aspect=fixed;fillColor=light-dark(#EAF7E0,#EDEDED);strokeWidth=1;shadow=1;" vertex="1" parent="1">
          <mxGeometry x="2178.98" y="3328.75" width="12.5" height="12.5" as="geometry" />
        </mxCell>
        <mxCell id="VGcXp5rNp3n3L62gUcXS-583" value="" style="ellipse;whiteSpace=wrap;html=1;aspect=fixed;fillColor=light-dark(#EAF7E0,#EDEDED);strokeWidth=1;shadow=1;" vertex="1" parent="1">
          <mxGeometry x="2186.95" y="3309.25" width="12.5" height="12.5" as="geometry" />
        </mxCell>
        <mxCell id="VGcXp5rNp3n3L62gUcXS-584" value="" style="ellipse;whiteSpace=wrap;html=1;aspect=fixed;fillColor=none;strokeColor=#042433;dashed=1;" vertex="1" parent="1">
          <mxGeometry x="2167.25" y="3304.75" width="36.5" height="36.5" as="geometry" />
        </mxCell>
        <mxCell id="VGcXp5rNp3n3L62gUcXS-585" value="&lt;p style=&quot;language:zh-CN;margin-top:0pt;margin-bottom:0pt;margin-left:0in;&lt;br/&gt;text-align:left;direction:ltr;unicode-bidi:embed;mso-line-break-override:none;&lt;br/&gt;word-break:normal;punctuation-wrap:hanging&quot;&gt;&lt;span style=&quot;color: black; font-weight: bold; font-style: italic;&quot;&gt;&lt;font&gt;.&lt;/font&gt;&lt;/span&gt;&lt;/p&gt;" style="text;whiteSpace=wrap;html=1;shadow=0;movable=1;resizable=1;rotatable=1;deletable=1;editable=1;locked=0;connectable=1;fontSize=11;" vertex="1" parent="1">
          <mxGeometry x="2077.2" y="3677.73" width="20" height="30" as="geometry" />
        </mxCell>
        <mxCell id="VGcXp5rNp3n3L62gUcXS-586" value="&lt;p style=&quot;language:zh-CN;margin-top:0pt;margin-bottom:0pt;margin-left:0in;&lt;br/&gt;text-align:left;direction:ltr;unicode-bidi:embed;mso-line-break-override:none;&lt;br/&gt;word-break:normal;punctuation-wrap:hanging&quot;&gt;&lt;span style=&quot;color: black; font-weight: bold; font-style: italic;&quot;&gt;&lt;font&gt;.&lt;/font&gt;&lt;/span&gt;&lt;/p&gt;" style="text;whiteSpace=wrap;html=1;shadow=0;movable=1;resizable=1;rotatable=1;deletable=1;editable=1;locked=0;connectable=1;fontSize=11;" vertex="1" parent="1">
          <mxGeometry x="2089.7" y="3677.73" width="20" height="30" as="geometry" />
        </mxCell>
        <mxCell id="VGcXp5rNp3n3L62gUcXS-587" value="&lt;p style=&quot;language:zh-CN;margin-top:0pt;margin-bottom:0pt;margin-left:0in;&lt;br/&gt;text-align:left;direction:ltr;unicode-bidi:embed;mso-line-break-override:none;&lt;br/&gt;word-break:normal;punctuation-wrap:hanging&quot;&gt;&lt;span style=&quot;color: black; font-weight: bold; font-style: italic;&quot;&gt;&lt;font&gt;.&lt;/font&gt;&lt;/span&gt;&lt;/p&gt;" style="text;whiteSpace=wrap;html=1;shadow=0;movable=1;resizable=1;rotatable=1;deletable=1;editable=1;locked=0;connectable=1;fontSize=11;" vertex="1" parent="1">
          <mxGeometry x="2100.7" y="3677.73" width="20" height="30" as="geometry" />
        </mxCell>
        <mxCell id="VGcXp5rNp3n3L62gUcXS-588" value="" style="shape=image;verticalLabelPosition=bottom;labelBackgroundColor=default;verticalAlign=top;aspect=fixed;imageAspect=0;editableCssRules=.*;image=data:image/svg+xml,PHN2ZyB4bWxuczp4bGluaz0iaHR0cDovL3d3dy53My5vcmcvMTk5OS94bGluayIgeG1sbnM9Imh0dHA6Ly93d3cudzMub3JnLzIwMDAvc3ZnIiBoZWlnaHQ9IjE4OS41NjM2NDM5MzIzNDI1MyIgd2lkdGg9IjE0NS4xODY1NDM0NjQ2NjA2NCIgdmVyc2lvbj0iMS4xIiB2aWV3Qm94PSIxMzkuNzQ1MzYxMzI4MTI1IDAuOTMwODQ3MTY3OTY4NzUgNzQzLjM1NTEwMjUzOTA2MjUgOTcwLjU2NTg1NjkzMzU5MzgiIGNsYXNzPSJpY29uIj48cGF0aCBmaWxsPSIjRkY1RTAwIiBkPSJNNzAxLjc5NjUzOCAxODEuMTU0OTA5YzIwLjIwMDcyNyA1MS4yIDIzLjI3MjcyNyAxMzUuNzI2NTQ1LTE4LjYxODE4MiAxNzYuNDA3MjczQzYxNC45NDI3MiA1OS4yMDU4MTggNDQ0Ljc3MjUzOCAwLjkzMDkwOSA0NDQuNzcyNTM4IDAuOTMwOTA5YzIwLjI5MzgxOCAxNTEuNjQ1MDkxLTcxLjEyMTQ1NSAzMTcuNjI2MTgyLTE2MC44NjEwOTEgNDQyLjc0MDM2NC0yLjk3ODkwOS01OS45NTA1NDUtNi4yMzcwOTEtMTAwLjUzODE4Mi0zNS41NjA3MjctMTYyLjM1MDU0NkMyNDIuMjA2NzIgMzkyLjU2NDM2NCAxNjguMDEzMjY1IDQ4MC44MTQ1NDUgMTQ2LjQxNjE3NSA1OTIuMDU4MTgyYy0yNi4yNTE2MzYgMTUzLjUwNjkwOSAyMS41OTcwOTEgMjYxLjEyIDIwNC4wNTUyNzIgMzc5LjQzODU0NS01Ny4yNTA5MDktMTM1LjcyNjU0NS0yNi4yNTE2MzYtMjEzLjQ1NzQ1NSAxOC42MTgxODItMjgzLjkyNzI3MiA0Ny45NDE4MTgtODEuMDgyMTgyIDYwLjUwOTA5MS0xNTguODEzMDkxIDYwLjUwOTA5MS0xNTguODEzMDkxczM4LjUzOTYzNiA1NC42NDQzNjQgMjMuMjcyNzI3IDE0MS4wMzI3MjdjNjQuNzkxMjczLTg0LjYxOTYzNiA3Ny4zNTg1NDUtMjIwLjYyNTQ1NSA2OC4xNDI1NDYtMjY5Ljk2MzYzNiAxNDguMzg2OTA5IDExOC4yMjU0NTUgMjE0Ljg1MzgxOCAzNzkuNDM4NTQ1IDEyOC4zNzIzNjMgNTY4LjEzMzgxOCA0NTcuNjM0OTA5LTI5OC4wNzcwOTEgMTEyLjY0LTc0MS4wMDM2MzYgNTIuNDEwMTgyLTc4Ni43MTEyNzMiLz48L3N2Zz4=;shadow=0;direction=south;" vertex="1" parent="1">
          <mxGeometry x="2209.63" y="3873.770000000001" width="27.5" height="20.98" as="geometry" />
        </mxCell>
        <mxCell id="VGcXp5rNp3n3L62gUcXS-589" value="&lt;span style=&quot;color: rgb(0, 0, 0); font-family: Helvetica; font-style: normal; font-variant-ligatures: normal; font-variant-caps: normal; font-weight: 400; letter-spacing: normal; orphans: 2; text-align: center; text-indent: 0px; text-transform: none; widows: 2; word-spacing: 0px; -webkit-text-stroke-width: 0px; white-space: normal; background-color: rgb(251, 251, 251); text-decoration-thickness: initial; text-decoration-style: initial; text-decoration-color: initial; float: none; display: inline !important;&quot;&gt;$$S_v$$&lt;/span&gt;" style="text;whiteSpace=wrap;html=1;shadow=0;fontSize=19;" vertex="1" parent="1">
          <mxGeometry x="1074.43" y="3741.7499999999995" width="52.5" height="52.5" as="geometry" />
        </mxCell>
        <mxCell id="VGcXp5rNp3n3L62gUcXS-590" value="&lt;b style=&quot;font-size: 16px;&quot;&gt;&lt;i&gt;&lt;font style=&quot;color: rgb(255, 255, 255);&quot;&gt;Encoder&lt;/font&gt;&lt;/i&gt;&lt;/b&gt;" style="rounded=1;whiteSpace=wrap;html=1;fillColor=#3EA3DA;strokeColor=none;" vertex="1" parent="1">
          <mxGeometry x="1311.45" y="3676.2" width="76.87" height="47.61" as="geometry" />
        </mxCell>
        <mxCell id="VGcXp5rNp3n3L62gUcXS-591" value="" style="shape=image;verticalLabelPosition=bottom;labelBackgroundColor=default;verticalAlign=top;aspect=fixed;imageAspect=0;editableCssRules=.*;image=data:image/svg+xml,PHN2ZyB4bWxuczp4bGluaz0iaHR0cDovL3d3dy53My5vcmcvMTk5OS94bGluayIgeG1sbnM9Imh0dHA6Ly93d3cudzMub3JnLzIwMDAvc3ZnIiBoZWlnaHQ9IjE4OS41NjM2NDM5MzIzNDI1MyIgd2lkdGg9IjE0NS4xODY1NDM0NjQ2NjA2NCIgdmVyc2lvbj0iMS4xIiB2aWV3Qm94PSIxMzkuNzQ1MzYxMzI4MTI1IDAuOTMwODQ3MTY3OTY4NzUgNzQzLjM1NTEwMjUzOTA2MjUgOTcwLjU2NTg1NjkzMzU5MzgiIGNsYXNzPSJpY29uIj48cGF0aCBmaWxsPSIjRkY1RTAwIiBkPSJNNzAxLjc5NjUzOCAxODEuMTU0OTA5YzIwLjIwMDcyNyA1MS4yIDIzLjI3MjcyNyAxMzUuNzI2NTQ1LTE4LjYxODE4MiAxNzYuNDA3MjczQzYxNC45NDI3MiA1OS4yMDU4MTggNDQ0Ljc3MjUzOCAwLjkzMDkwOSA0NDQuNzcyNTM4IDAuOTMwOTA5YzIwLjI5MzgxOCAxNTEuNjQ1MDkxLTcxLjEyMTQ1NSAzMTcuNjI2MTgyLTE2MC44NjEwOTEgNDQyLjc0MDM2NC0yLjk3ODkwOS01OS45NTA1NDUtNi4yMzcwOTEtMTAwLjUzODE4Mi0zNS41NjA3MjctMTYyLjM1MDU0NkMyNDIuMjA2NzIgMzkyLjU2NDM2NCAxNjguMDEzMjY1IDQ4MC44MTQ1NDUgMTQ2LjQxNjE3NSA1OTIuMDU4MTgyYy0yNi4yNTE2MzYgMTUzLjUwNjkwOSAyMS41OTcwOTEgMjYxLjEyIDIwNC4wNTUyNzIgMzc5LjQzODU0NS01Ny4yNTA5MDktMTM1LjcyNjU0NS0yNi4yNTE2MzYtMjEzLjQ1NzQ1NSAxOC42MTgxODItMjgzLjkyNzI3MiA0Ny45NDE4MTgtODEuMDgyMTgyIDYwLjUwOTA5MS0xNTguODEzMDkxIDYwLjUwOTA5MS0xNTguODEzMDkxczM4LjUzOTYzNiA1NC42NDQzNjQgMjMuMjcyNzI3IDE0MS4wMzI3MjdjNjQuNzkxMjczLTg0LjYxOTYzNiA3Ny4zNTg1NDUtMjIwLjYyNTQ1NSA2OC4xNDI1NDYtMjY5Ljk2MzYzNiAxNDguMzg2OTA5IDExOC4yMjU0NTUgMjE0Ljg1MzgxOCAzNzkuNDM4NTQ1IDEyOC4zNzIzNjMgNTY4LjEzMzgxOCA0NTcuNjM0OTA5LTI5OC4wNzcwOTEgMTEyLjY0LTc0MS4wMDM2MzYgNTIuNDEwMTgyLTc4Ni43MTEyNzMiLz48L3N2Zz4=;shadow=0;" vertex="1" parent="1">
          <mxGeometry x="1367.3400000000001" y="3705.9500000000007" width="20.98" height="27.5" as="geometry" />
        </mxCell>
        <mxCell id="VGcXp5rNp3n3L62gUcXS-592" style="rounded=0;orthogonalLoop=1;jettySize=auto;html=1;strokeColor=#156082;targetPerimeterSpacing=0;fontSize=11;strokeWidth=3;endArrow=block;endFill=1;endSize=2;entryX=0.5;entryY=0;entryDx=0;entryDy=0;shadow=0;exitX=0.5;exitY=1;exitDx=0;exitDy=0;" edge="1" parent="1" source="VGcXp5rNp3n3L62gUcXS-339" target="VGcXp5rNp3n3L62gUcXS-340">
          <mxGeometry relative="1" as="geometry">
            <mxPoint x="392.72" y="3752.81" as="sourcePoint" />
            <mxPoint x="392.72" y="3844.81" as="targetPoint" />
          </mxGeometry>
        </mxCell>
        <mxCell id="VGcXp5rNp3n3L62gUcXS-593" value="" style="html=1;shadow=0;dashed=0;align=center;verticalAlign=middle;shape=mxgraph.arrows2.arrow;dy=0.48;dx=22.56;notch=0;fillColor=#747474;strokeColor=none;opacity=60;" vertex="1" parent="1">
          <mxGeometry x="938.1899999999999" y="3258.07" width="62.5" height="30" as="geometry" />
        </mxCell>
        <mxCell id="VGcXp5rNp3n3L62gUcXS-594" value="" style="html=1;shadow=0;dashed=0;align=center;verticalAlign=middle;shape=mxgraph.arrows2.arrow;dy=0.48;dx=22.56;notch=0;fillColor=#747474;strokeColor=none;opacity=60;" vertex="1" parent="1">
          <mxGeometry x="937.67" y="3713.9300000000003" width="62.5" height="30" as="geometry" />
        </mxCell>
        <mxCell id="VGcXp5rNp3n3L62gUcXS-595" value="" style="html=1;shadow=0;dashed=0;align=center;verticalAlign=middle;shape=mxgraph.arrows2.arrow;dy=0.48;dx=22.56;notch=0;fillColor=#747474;strokeColor=none;opacity=60;direction=south;" vertex="1" parent="1">
          <mxGeometry x="388.69" y="3483.75" width="61.31" height="40" as="geometry" />
        </mxCell>
        <mxCell id="VGcXp5rNp3n3L62gUcXS-596" value="" style="shape=image;verticalLabelPosition=bottom;labelBackgroundColor=default;verticalAlign=top;aspect=fixed;imageAspect=0;editableCssRules=.*;image=data:image/svg+xml,PHN2ZyB4bWxuczp4bGluaz0iaHR0cDovL3d3dy53My5vcmcvMTk5OS94bGluayIgeG1sbnM9Imh0dHA6Ly93d3cudzMub3JnLzIwMDAvc3ZnIiBoZWlnaHQ9IjE3My4zMjI5MDQxMDk5NTQ4MyIgd2lkdGg9IjE1MS43NTg0NTYyMzAxNjM1NyIgdmVyc2lvbj0iMS4xIiB2aWV3Qm94PSIxMjcuMTM0Nzg4NTEzMTgzNiA2NCA3NzcuMDAzMjk1ODk4NDM3NSA4ODcuNDEzMjY5MDQyOTY4OCIgY2xhc3M9Imljb24iPjxwYXRoIGZpbGw9IiM3NUM0RkUiIGQ9Ik04ODguNjUwNjY3IDYzOS42MzczMzNhMTYgMTYgMCAwIDEtMTIuNjgyNjY3IDE4Ljc0MTMzNGwtNzIuMTE3MzMzIDEzLjkwOTMzMyAxNy4yOCA2NC40OTA2NjdhMTYgMTYgMCAwIDEtMzAuOTEyIDguMjc3MzMzbC0yMS43MjgtODEuMDg4YTE2IDE2IDAgMCAxIDEyLjQyNjY2Ni0xOS44NGw4OC45OTItMTcuMTczMzMzYTE2IDE2IDAgMCAxIDE4Ljc0MTMzNCAxMi42OTMzMzN6TTI0OS43MjggMzM4LjM0NjY2N2ExNiAxNiAwIDAgMS05LjM0NCAxOC45MjI2NjZsLTY5LjIyNjY2NyAyOC41NzZhMTYgMTYgMCAwIDEtMTIuMjEzMzMzLTI5LjU3ODY2Nmw1Ni4yNDUzMzMtMjMuMjIxMzM0LTE2LjQyNjY2Ni02MS4yOGExNiAxNiAwIDAgMSAzMC45MTItOC4yNzczMzNsMjAuMDUzMzMzIDc0Ljg0OHpNODE3LjQ4MjY2NyAyNTEuOTY4YTE2IDE2IDAgMCAxIDkuODEzMzMzIDIwLjM4NGwtMjQuMjc3MzMzIDY5LjMzMzMzMyA2NC40MjY2NjYgMTcuNTE0NjY3YTE2IDE2IDAgMSAxLTguMzk0NjY2IDMwLjg4bC04MS4wMTMzMzQtMjIuMDM3MzMzYTE2IDE2IDAgMCAxLTEwLjkwMTMzMy0yMC43MjUzMzRsMjkuOTYyNjY3LTg1LjU0NjY2NmExNiAxNiAwIDAgMSAyMC4zODQtOS44MTMzMzR6TTIzNS41OTQ2NjcgNjUyLjQ4YTE2IDE2IDAgMCAxIDExLjY0OCAxNy42bC0xMC4xMzMzMzQgNzQuMTk3MzMzYTE2IDE2IDAgMCAxLTMxLjcxMi00LjMzMDY2Nmw4LjI0NTMzNC02MC4yODgtNjEuMjI2NjY3LTE2LjY0YTE2IDE2IDAgMSAxIDguNDA1MzMzLTMwLjg4bDc0Ljc3MzMzNCAyMC4zMzA2NjZ6TTQ0My43NTQ2NjcgMTE4LjkwMTMzM2ExNiAxNiAwIDAgMSAyMi41NzA2NjYgMS42MTA2NjdsNDguMTA2NjY3IDU1LjUwOTMzMyA0Ny4yMTA2NjctNDcuMjEwNjY2YTE2IDE2IDAgMSAxIDIyLjYyNCAyMi42MzQ2NjZsLTU5LjM2IDU5LjM2YTE2IDE2IDAgMCAxLTIzLjQwMjY2Ny0wLjg0MjY2NmwtNTkuMzYtNjguNDhhMTYgMTYgMCAwIDEgMS42LTIyLjU4MTMzNHpNNTAyLjI4MjY2NyA4MjIuODY5MzMzYTE2IDE2IDAgMCAxIDIxLjA2NjY2Ni0xLjM2NTMzM2w1OS4zNiA0NS42NjRhMTYgMTYgMCAxIDEtMTkuNTIgMjUuMzY1MzMzbC00OC4yMTMzMzMtMzcuMDk4NjY2LTQ0Ljg2NCA0NC44NjRhMTYgMTYgMCAxIDEtMjIuNjI0LTIyLjYzNDY2N2w1NC43OTQ2NjctNTQuNzk0NjY3eiIvPjxwYXRoIGZpbGw9IiM0M0FFRkMiIGQ9Ik05MDEuMjggNzI3LjU3MzMzM2EyMS4zMzMzMzMgMjEuMzMzMzMzIDAgMCAxLTI5LjE0MTMzMyA3LjgwOEwxNDAuNTY1MzMzIDMxMy4wMTMzMzNhMjEuMzMzMzMzIDIxLjMzMzMzMyAwIDEgMSAyMS4zMzMzMzQtMzYuOTQ5MzMzbDczMS41NzMzMzMgNDIyLjM2OGEyMS4zMzMzMzMgMjEuMzMzMzMzIDAgMCAxIDcuODA4IDI5LjE0MTMzM3oiLz48cGF0aCBmaWxsPSIjNDNBRUZDIiBkPSJNODY0LjUzMzMzMyA1NjYuNDk2YTIxLjMzMzMzMyAyMS4zMzMzMzMgMCAwIDEtMTMuMjI2NjY2IDI3LjExNDY2N0w3MzYgNjMzLjI4bDE0LjMzNiAxMTguODkwNjY3YTIxLjMzMzMzMyAyMS4zMzMzMzMgMCAwIDEtNDIuMzY4IDUuMDk4NjY2bC0xNi4zODQtMTM2YTIxLjMzMzMzMyAyMS4zMzMzMzMgMCAwIDEgMTQuMjQtMjIuNzJsMTMxLjU5NDY2Ny00NS4yOTA2NjZhMjEuMzMzMzMzIDIxLjMzMzMzMyAwIDAgMSAyNy4xMTQ2NjYgMTMuMjI2NjY2ek0zNDIuNCAzODkuNzA2NjY3YTIxLjMzMzMzMyAyMS4zMzMzMzMgMCAwIDEtMTIuODk2IDIyLjY3NzMzM2wtMTExLjIxMDY2NyA0Ni41MDY2NjdhMjEuMzMzMzMzIDIxLjMzMzMzMyAwIDEgMS0xNi40NTg2NjYtMzkuMzZsOTYuMDEwNjY2LTQwLjE2LTE2LjM2MjY2Ni0xMTUuNzMzMzM0YTIxLjMzMzMzMyAyMS4zMzMzMzMgMCAxIDEgNDIuMjQtNS45NzMzMzNsMTguNjc3MzMzIDEzMi4wNTMzMzN6TTg5OS44NCAyODUuMzAxMzMzYTIxLjMzMzMzMyAyMS4zMzMzMzMgMCAwIDEtNy45MjUzMzMgMjkuMTA5MzM0TDE1OC43NzMzMzMgNzM0LjA0OGEyMS4zMzMzMzMgMjEuMzMzMzMzIDAgMCAxLTIxLjE5NDY2Ni0zNy4wMjRMODcwLjcyIDI3Ny4zNzZhMjEuMzMzMzMzIDIxLjMzMzMzMyAwIDAgMSAyOS4xMiA3LjkxNDY2N3oiLz48cGF0aCBmaWxsPSIjNDNBRUZDIiBkPSJNNzQyLjE1NDY2NyAyMzUuOTg5MzMzYTIxLjMzMzMzMyAyMS4zMzMzMzMgMCAwIDEgMTYuNzY4IDI1LjA3NzMzNGwtMjMuNzMzMzM0IDExOS42MDUzMzMgMTA5Ljk1MiA0Ny40NTZhMjEuMzMzMzMzIDIxLjMzMzMzMyAwIDEgMS0xNi45MDY2NjYgMzkuMTY4bC0xMjUuNzcwNjY3LTU0LjI3MmEyMS4zMzMzMzMgMjEuMzMzMzMzIDAgMCAxLTEyLjQ4LTIzLjc0NGwyNy4wOTMzMzMtMTM2LjUxMmEyMS4zMzMzMzMgMjEuMzMzMzMzIDAgMCAxIDI1LjA2NjY2Ny0xNi43Nzg2Njd6TTMyNi42MzQ2NjcgNTk4LjI0QTIxLjMzMzMzMyAyMS4zMzMzMzMgMCAwIDEgMzM5LjczMzMzMyA2MjAuOGwtMTUuNzY1MzMzIDExOS41MDkzMzNhMjEuMzMzMzMzIDIxLjMzMzMzMyAwIDEgMS00Mi4zMDQtNS41Nzg2NjZsMTMuNjIxMzMzLTEwMy4xNzg2NjctMTA4LjI1Ni00NC4xMDY2NjdhMjEuMzMzMzMzIDIxLjMzMzMzMyAwIDAgMSAxNi4xMDY2NjctMzkuNTA5MzMzbDEyMy40OTg2NjcgNTAuMzE0NjY3ek01MTMuNiA2NGEyMS4zMzMzMzMgMjEuMzMzMzMzIDAgMCAxIDIxLjMzMzMzMyAyMS4zMzMzMzN2ODQ0Ljc0NjY2N2EyMS4zMzMzMzMgMjEuMzMzMzMzIDAgMSAxLTQyLjY2NjY2NiAwVjg1LjMzMzMzM2EyMS4zMzMzMzMgMjEuMzMzMzMzIDAgMCAxIDIxLjMzMzMzMy0yMS4zMzMzMzN6Ii8+PHBhdGggZmlsbD0iIzQzQUVGQyIgZD0iTTM5Mi40NjkzMzMgMTc2LjM2MjY2N2EyMS4zMzMzMzMgMjEuMzMzMzMzIDAgMCAxIDMwLjEwMTMzNC0yLjEwMTMzNGw5Mi4wMTA2NjYgODAgOTUuNzk3MzM0LTcxLjg0YTIxLjMzMzMzMyAyMS4zMzMzMzMgMCAwIDEgMjUuNiAzNC4xMzMzMzRMNTI2LjQgMjk4Ljc1MmEyMS4zMzMzMzMgMjEuMzMzMzMzIDAgMCAxLTI2Ljc5NDY2Ny0wLjk3MDY2N2wtMTA1LjAyNC05MS4zMjhhMjEuMzMzMzMzIDIxLjMzMzMzMyAwIDAgMS0yLjEwMTMzMy0zMC4wOTA2NjZ6TTUwMC40NDggNzE2LjkyOGEyMS4zMzMzMzMgMjEuMzMzMzMzIDAgMCAxIDI2LjA2OTMzMy0wLjE3MDY2N2w5NS44OTMzMzQgNzMuMDY2NjY3YTIxLjMzMzMzMyAyMS4zMzMzMzMgMCAwIDEtMjUuODU2IDMzLjkzMDY2N2wtODIuNzg0LTYzLjA3Mi05Mi4wNTMzMzQgNzIuMDQyNjY2YTIxLjMzMzMzMyAyMS4zMzMzMzMgMCAxIDEtMjYuMjkzMzMzLTMzLjZsMTA1LjAyNC04Mi4xOTczMzN6Ii8+PHBhdGggZmlsbD0iIzQzQUVGQyIgZD0iTTM4OC4xNiAyOTUuNTMwNjY3YTIxLjMzMzMzMyAyMS4zMzMzMzMgMCAwIDEgMTkuMi0xLjY5NmwxMDcuMjc0NjY3IDQyLjkxMiAxMTYuMTgxMzMzLTM0LjQyMTMzNGEyMS4zMzMzMzMgMjEuMzMzMzMzIDAgMCAxIDI3LjA4MjY2NyAxNi44bDE3LjA0NTMzMyA5OC4wMjY2NjcgNzcuMDM0NjY3IDcyLjc1NzMzM2EyMS4zMzMzMzMgMjEuMzMzMzMzIDAgMCAxLTAuNDI2NjY3IDMxLjQxMzMzNGwtODEuODY2NjY3IDczLjI1ODY2Ni0zMC4zNzg2NjYgMTIxLjQ5MzMzNGEyMS4zMzMzMzMgMjEuMzMzMzMzIDAgMCAxLTI5LjE5NDY2NyAxNC40TDUxMi40NDggNjg4bC0xMDYuNTA2NjY3IDM0LjA4YTIxLjMzMzMzMyAyMS4zMzMzMzMgMCAwIDEtMjcuNzc2LTE4LjY4OGwtOC4zMDkzMzMtMTA3Ljk3ODY2Ny0xMDAuNDQ4LTYyLjc3MzMzM2EyMS4zMzMzMzMgMjEuMzMzMzMzIDAgMCAxLTEuNDkzMzMzLTM1LjE1NzMzM2wxMDEuODY2NjY2LTc2LjM5NDY2NyA4LjM4NC0xMDkuMDg4YTIxLjMzMzMzMyAyMS4zMzMzMzMgMCAwIDEgOS45OTQ2NjctMTYuNDh6IG0zMC4zMjUzMzMgNDguNzA0bC02LjkxMiA4OS43NzA2NjZhMjEuMzMzMzMzIDIxLjMzMzMzMyAwIDAgMS04LjQ2OTMzMyAxNS40MjRsLTg0LjY5MzMzMyA2My41MzA2NjcgODMuMiA1MmEyMS4zMzMzMzMgMjEuMzMzMzMzIDAgMCAxIDkuOTYyNjY2IDE2LjQ0OGw3LjA2MTMzNCA5MS44MTg2NjcgODguNDU4NjY2LTI4LjMwOTMzNGEyMS4zMzMzMzMgMjEuMzMzMzMzIDAgMCAxIDE1LjAwOCAwLjc1NzMzNGw4MS45MiAzNS42MjY2NjYgMjUuODU2LTEwMy40MjRhMjEuMzMzMzMzIDIxLjMzMzMzMyAwIDAgMSA2LjQ3NDY2Ny0xMC43MzA2NjZsNjkuNDYxMzMzLTYyLjE0NC02NS4zMTItNjEuNjk2YTIxLjMzMzMzMyAyMS4zMzMzMzMgMCAwIDEtNi4zNzg2NjYtMTEuODUwNjY3bC0xNC4xNTQ2NjctODEuNDE4NjY3LTEwMC4zMiAyOS43MTczMzRhMjEuMzMzMzMzIDIxLjMzMzMzMyAwIDAgMS0xMy45NzMzMzMtMC42NGwtODcuMTg5MzM0LTM0Ljg4eiIvPjxwYXRoIGZpbGw9IiM3NUM0RkUiIGQ9Ik01MTMuMjE2IDM0My4zMDY2NjdhMTYgMTYgMCAwIDEgMTQuNTE3MzMzIDguNTEybDM2LjA4NTMzNCA2OC4xNiA4NS4yNDgtOC4xMDY2NjdhMTYgMTYgMCAwIDEgMTUuNDk4NjY2IDIzLjY5MDY2N2wtNDAuOTI4IDczLjY2NCA0MC4yNTYgNjAuMzczMzMzYTE2IDE2IDAgMCAxLTEzLjMxMiAyNC44ODUzMzNoLTg1Ljc2bC0zNi43NjggNzcuNmExNiAxNiAwIDAgMS0yOC45Mzg2NjYtMC4wMzJsLTMyLjcxNDY2Ny02OS41MjUzMzMtNzMuMjkwNjY3LTguMTQ5MzMzYTE2IDE2IDAgMCAxLTExLjU1Mi0yNC43NjhsMzkuNzQ0LTU5LjYyNjY2Ny00OC44NzQ2NjYtNzMuMzEyYTE2IDE2IDAgMCAxIDE0LjkwMTMzMy0yNC44bDgwLjA3NDY2NyA4LjAxMDY2NyAzMS43MTItNjcuMzkyYTE2IDE2IDAgMCAxIDE0LjEwMTMzMy05LjE3MzMzNHogbTEuMjE2IDUxLjc4NjY2NmwtMjIuODkwNjY3IDQ4LjY0YTE2IDE2IDAgMCAxLTE2LjA3NDY2NiA5LjEybC01Ny42NDI2NjctNS43NiAzNi4wMjEzMzMgNTQuMDE2YTE2IDE2IDAgMCAxIDAgMTcuNzZsLTMxLjA3MiA0Ni42MTMzMzQgNTYuMDUzMzM0IDYuMjI5MzMzYTE2IDE2IDAgMCAxIDEyLjcxNDY2NiA5LjA4OGwyMi4xMDEzMzQgNDYuOTY1MzMzIDI2LjU4MTMzMy01Ni4xMzg2NjZhMTYgMTYgMCAwIDEgMTQuNDY0LTkuMTQxMzM0aDY1Ljk5NDY2N2wtMjkuMDc3MzM0LTQzLjYyNjY2NmExNiAxNiAwIDAgMS0wLjY3Mi0xNi42NGwzMC44OTA2NjctNTUuNjA1MzM0LTY1LjYyMTMzMyA2LjI0YTE2IDE2IDAgMCAxLTE1LjY1ODY2Ny04LjQzNzMzM2wtMjYuMTEyLTQ5LjMyMjY2N3oiLz48L3N2Zz4=;" vertex="1" parent="1">
          <mxGeometry x="1230.13" y="3716.07" width="29.81" height="33.93" as="geometry" />
        </mxCell>
      </root>
    </mxGraphModel>
  </diagram>
</mxfile>
